<svg version="1" xmlns="http://www.w3.org/2000/svg" width="1440" height="1440" viewBox="0 0 1080.000000 1080.000000"><path d="M723.4 152.5c-16.3 3.5-31.1 11.8-46.1 25.7-2.8 2.6-5.6 4.8-6 4.8-.5 0-5.6-1.6-11.4-3.5-25.1-8.5-51.3-14.2-81.9-17.7-17.2-1.9-62.9-1.6-81 .6-118 14.3-220 79.5-281.5 180-29.5 48.2-46.9 99.8-53.7 159.6-1.9 17.2-1.6 62.9.6 81 5.4 44.6 17.3 85.2 36.8 125l7.1 14.4-3.2 12.6c-3.9 15.8-6.6 28.9-8.2 41-1.8 12.6-1.8 40.5 0 49.9 6.7 36.8 29.7 56.5 69.8 60 5.4.5 12.1.7 14.8.6 2.8-.2 9.1-.6 14-.9 11.1-.7 33.8-4.8 50.8-9.1l12.9-3.3 9.1 4.9c39.5 20.7 85.8 34.4 135.7 40.1 17.2 1.9 62.9 1.6 81-.6 118-14.3 220-79.5 281.5-180 29.5-48.2 46.9-99.8 53.7-159.6 1.9-17.2 1.6-62.9-.6-81-3.1-26.1-9.6-55.2-17.4-78l-2.9-8.5 7-7.9c18-20.4 25.7-39.3 25.7-62.8 0-28.9-12-56.7-39.1-91-10.6-13.3-45.4-48.1-58.9-58.8-25.8-20.5-49.6-32.8-72.2-37.4-9.3-1.9-27.8-2-36.4-.1zM579 199c78.1 9.5 146.7 42 201.8 95.5 80.2 77.8 117 187.3 100.1 298.5-16.3 107.4-85.8 202.8-184 252.5-37.9 19.2-75.6 30.5-119.4 35.7-14.4 1.7-59.6 1.7-74 0-78.9-9.4-147.7-41.8-203.3-95.7-80.2-77.8-117-187.3-100.1-298.5 16.3-107.4 85.8-202.8 184-252.5 38.2-19.4 79.4-31.6 119.5-35.5 6-.5 12.5-1.2 14.4-1.4 6.3-.7 52.3.3 61 1.4z"/><path d="M525.5 443.1c-35 5.1-66.5 31.5-78.1 65.6-23.6 69.6 34.3 139.4 107.1 129.2 36-5 67.3-31 79.1-65.6 23.7-69.9-34.8-139.8-108.1-129.2z"/></svg>