<?xml version="1.0" standalone="no"?>
<!DOCTYPE svg PUBLIC "-//W3C//DTD SVG 20010904//EN"
 "http://www.w3.org/TR/2001/REC-SVG-20010904/DTD/svg10.dtd">
<svg version="1.0" xmlns="http://www.w3.org/2000/svg"
 width="700.000000pt" height="700.000000pt" viewBox="0 0 700.000000 700.000000"
 preserveAspectRatio="xMidYMid meet">
<metadata>
Created by potrace 1.11, written by Peter Selinger 2001-2013
</metadata>
<g transform="translate(0.000000,700.000000) scale(0.100000,-0.100000)"
fill="#000000" stroke="none">
<path d="M3377 5524 c-1 -1 -33 -5 -71 -8 -67 -5 -95 -9 -161 -22 -16 -3 -43
-7 -60 -10 -16 -3 -64 -14 -105 -25 -41 -12 -82 -22 -90 -24 -98 -20 -502
-218 -540 -264 -3 -4 -18 -15 -35 -25 -53 -34 -168 -132 -249 -212 -197 -197
-342 -416 -448 -676 -44 -110 -99 -295 -112 -378 -3 -19 -12 -73 -19 -120 -15
-92 -20 -417 -7 -478 5 -20 11 -59 14 -87 15 -142 83 -375 152 -524 l34 -74
-40 -130 c-36 -116 -53 -182 -77 -290 -4 -17 -7 -82 -7 -143 -1 -108 0 -111
38 -188 53 -108 144 -200 250 -252 74 -36 87 -39 175 -41 100 -2 246 22 351
57 14 5 70 23 126 40 l100 31 65 -29 c137 -62 317 -120 439 -142 30 -6 65 -12
77 -14 142 -28 498 -28 633 -1 14 3 41 8 60 11 75 12 239 57 330 91 612 228
1090 752 1254 1375 39 151 52 227 63 368 26 357 -29 668 -177 1006 l-22 50 35
115 c35 111 56 186 62 221 2 10 6 22 9 26 10 17 21 131 21 223 0 90 -2 99 -39
173 -53 108 -144 200 -250 252 -76 37 -85 39 -180 41 -116 1 -231 -21 -445
-87 -128 -39 -135 -41 -170 -26 -20 8 -70 29 -111 46 -147 62 -356 114 -545
136 -54 6 -323 13 -328 8z"/>
</g>
</svg>
