<?xml version="1.0" standalone="no"?>
<!DOCTYPE svg PUBLIC "-//W3C//DTD SVG 20010904//EN"
 "http://www.w3.org/TR/2001/REC-SVG-20010904/DTD/svg10.dtd">
<svg version="1.0" xmlns="http://www.w3.org/2000/svg"
 width="700.000000pt" height="700.000000pt" viewBox="0 0 700.000000 700.000000"
 preserveAspectRatio="xMidYMid meet">
<metadata>
Created by potrace 1.11, written by Peter Selinger 2001-2013
</metadata>
<g transform="translate(0.000000,700.000000) scale(0.100000,-0.100000)"
fill="#000000" stroke="none">
<path d="M3245 6214 c-16 -2 -82 -11 -145 -20 -584 -79 -1141 -366 -1566 -807
-208 -215 -359 -431 -490 -702 -119 -246 -192 -470 -233 -717 -91 -546 -29
-1063 189 -1568 l51 -118 -30 -97 c-118 -367 -161 -594 -141 -752 7 -60 20
-99 56 -173 40 -80 61 -109 138 -185 65 -65 112 -102 164 -129 89 -46 116 -54
212 -66 150 -17 339 18 704 132 124 38 130 39 165 25 20 -8 86 -36 146 -62
196 -83 427 -144 680 -181 182 -27 543 -25 735 5 599 91 1116 349 1535 766
376 375 630 836 744 1350 71 321 80 701 25 1035 -34 209 -112 465 -197 656
l-44 97 34 106 c121 379 162 594 143 754 -8 65 -20 102 -57 177 -39 80 -60
109 -137 186 -76 76 -106 98 -186 138 -113 56 -207 70 -355 54 -143 -15 -412
-82 -625 -156 l-55 -19 -82 38 c-204 94 -463 171 -703 211 -98 16 -181 21
-385 23 -143 2 -273 1 -290 -1z m690 -298 c287 -55 528 -140 760 -269 447
-250 795 -616 1020 -1072 293 -594 331 -1268 108 -1905 -47 -133 -179 -397
-262 -520 -133 -199 -269 -354 -441 -502 -362 -313 -804 -514 -1285 -584 -166
-25 -515 -25 -675 0 -385 59 -726 189 -1035 395 -596 398 -977 1014 -1076
1741 -17 122 -17 478 -1 595 67 474 238 878 524 1237 382 480 975 818 1573
897 44 6 94 13 110 15 17 2 145 3 285 1 227 -2 270 -5 395 -29z"/>
<path d="M3325 4180 c-143 -38 -243 -98 -345 -207 -202 -216 -245 -519 -113
-793 39 -82 58 -107 137 -185 63 -63 113 -102 161 -127 275 -143 610 -96 826
117 74 73 109 123 154 218 187 399 -50 879 -487 982 -88 21 -246 18 -333 -5z"/>
</g>
</svg>
