<?xml version="1.0" standalone="no"?>
<!DOCTYPE svg PUBLIC "-//W3C//DTD SVG 20010904//EN"
 "http://www.w3.org/TR/2001/REC-SVG-20010904/DTD/svg10.dtd">
<svg version="1.0" xmlns="http://www.w3.org/2000/svg"
 width="700.000000pt" height="700.000000pt" viewBox="0 0 700.000000 700.000000"
 preserveAspectRatio="xMidYMid meet">
<metadata>
Created by potrace 1.11, written by Peter Selinger 2001-2013
</metadata>
<g transform="translate(0.000000,700.000000) scale(0.100000,-0.100000)"
fill="#000000" stroke="none">
<path d="M3340 5519 c-599 -40 -1176 -376 -1522 -885 -307 -450 -416 -1013
-303 -1559 28 -132 79 -292 130 -402 l35 -76 -34 -111 c-76 -244 -101 -376
-94 -491 10 -156 131 -321 291 -400 147 -73 279 -61 658 56 l96 30 79 -35
c545 -240 1159 -232 1684 20 639 307 1063 894 1150 1594 13 109 13 371 -1 480
-23 191 -73 379 -144 545 l-47 109 23 76 c12 41 35 117 50 168 97 327 73 499
-90 663 -90 90 -191 140 -296 147 -115 7 -247 -18 -493 -94 l-114 -35 -106 44
c-140 59 -247 92 -396 122 -105 21 -360 48 -421 43 -11 0 -72 -4 -135 -9z
m331 -199 c227 -23 419 -77 619 -171 734 -350 1147 -1128 1025 -1932 -87 -577
-458 -1083 -989 -1352 -806 -406 -1797 -162 -2322 572 -518 722 -439 1712 185
2342 392 396 939 595 1482 541z"/>
<path d="M3372 4005 c-92 -26 -162 -66 -232 -131 -111 -105 -164 -230 -162
-384 3 -335 315 -581 640 -505 238 56 402 263 404 506 0 143 -41 253 -134 354
-102 111 -216 164 -368 171 -65 3 -112 -1 -148 -11z"/>
</g>
</svg>
