<svg width="1116" height="1116" viewBox="0 0 1116 1116" fill="none" xmlns="http://www.w3.org/2000/svg">
<path d="M444.968 919.995C315.187 965.461 250.296 988.194 208.383 970.53C180.006 958.571 157.429 935.994 145.47 907.617C127.806 865.704 150.539 800.813 196.005 671.032V671.032C232.067 568.094 250.098 516.624 284.188 494.68C307.423 479.723 335.171 473.395 362.594 476.799C402.828 481.794 441.391 520.357 518.517 597.483V597.483C595.643 674.609 634.206 713.172 639.201 753.406C642.605 780.829 636.277 808.577 621.32 831.812C599.376 865.902 547.906 883.933 444.968 919.995V919.995Z" fill="#272727"/>
<path d="M671.033 196.005C800.813 150.539 865.704 127.806 907.617 145.47C935.994 157.429 958.572 180.006 970.53 208.383C988.194 250.296 965.461 315.187 919.996 444.968V444.968C883.934 547.906 865.903 599.376 831.812 621.32C808.577 636.277 780.829 642.605 753.406 639.201C713.172 634.206 674.609 595.643 597.483 518.517V518.517C520.357 441.391 481.794 402.828 476.799 362.594C473.395 335.171 479.723 307.423 494.68 284.188C516.624 250.098 568.094 232.067 671.033 196.005V196.005Z" fill="#272727"/>
<circle cx="557.323" cy="558.344" r="434.514" fill="#272727"/>
<ellipse cx="557.894" cy="558.344" rx="393.921" ry="392.206" fill="#FFC336"/>
<path d="M623.987 464.73L903.219 746.021L888.926 770.034L872.917 792.903L855.194 814.628L835.755 835.211L815.173 854.65L796.306 869.515L777.439 883.236L759.715 894.099L743.935 903.247L464.703 624.014L623.987 464.73Z" fill="black" fill-opacity="0.12"/>
<circle cx="557.895" cy="558.922" r="112.631" fill="#272727"/>
</svg>
