<svg width="720" height="527" viewBox="0 0 720 527" fill="none" xmlns="http://www.w3.org/2000/svg">
<g clip-path="url(#clip0)">
<path d="M641.824 159.987C607.67 159.987 573.097 154.869 538.754 144.708C505.4 134.839 472.188 120.218 440.041 101.252C389.418 71.3852 357.292 39.9049 352.494 35.0764C334.362 63.8213 306.823 86.502 270.63 102.494C241.46 115.381 206.634 123.979 167.118 128.046C99.8724 134.969 41.5439 126.235 40.9626 126.146C40.7802 126.118 40.6164 126.019 40.5072 125.87C40.3979 125.721 40.3523 125.535 40.3802 125.353C40.4081 125.17 40.5074 125.007 40.6561 124.897C40.8048 124.788 40.9908 124.742 41.1732 124.77C41.7529 124.86 99.9317 133.568 167.005 126.659C228.822 120.292 311.06 98.9772 351.782 33.5927C351.838 33.5028 351.914 33.4269 352.003 33.3707C352.093 33.3146 352.195 33.2797 352.3 33.2687C352.405 33.2577 352.512 33.2708 352.611 33.3072C352.711 33.3436 352.801 33.4022 352.874 33.4786C353.201 33.8189 386.206 67.8808 440.785 100.076C491.133 129.774 570.664 163.914 663.632 157.892C663.816 157.88 663.997 157.942 664.136 158.064C664.274 158.186 664.359 158.357 664.371 158.542C664.383 158.726 664.321 158.907 664.199 159.046C664.078 159.184 663.906 159.269 663.722 159.281C656.446 159.752 649.147 159.987 641.824 159.987Z" fill="black"/>
<path d="M118.649 161.973C118.294 161.953 117.954 161.823 117.677 161.601C117.4 161.379 117.199 161.076 117.102 160.734L108.161 130.702C108.086 130.448 108.069 130.18 108.113 129.919C108.156 129.658 108.259 129.41 108.413 129.195C108.567 128.979 108.768 128.802 109 128.676C109.233 128.55 109.492 128.478 109.756 128.467H109.757L127.971 127.718C128.248 127.707 128.524 127.762 128.775 127.879C129.026 127.996 129.246 128.171 129.416 128.39C129.586 128.609 129.701 128.866 129.752 129.138C129.803 129.411 129.787 129.692 129.707 129.957L120.434 160.739C120.331 161.1 120.112 161.417 119.81 161.641C119.509 161.865 119.142 161.983 118.766 161.977C118.727 161.977 118.687 161.975 118.649 161.973Z" fill="#CC4B23"/>
<path d="M206.323 155.378C205.97 155.416 205.614 155.343 205.304 155.168C204.995 154.993 204.748 154.726 204.598 154.404L190.938 126.204C190.822 125.965 190.763 125.704 190.764 125.439C190.764 125.174 190.826 124.913 190.943 124.676C191.06 124.438 191.23 124.231 191.44 124.069C191.649 123.907 191.893 123.795 192.152 123.742H192.152L210.008 120.069C210.28 120.014 210.561 120.023 210.828 120.098C211.095 120.173 211.34 120.311 211.543 120.5C211.746 120.689 211.901 120.923 211.995 121.184C212.089 121.445 212.119 121.725 212.083 122L207.887 153.873C207.843 154.246 207.678 154.594 207.416 154.863C207.155 155.133 206.812 155.308 206.44 155.363C206.401 155.369 206.362 155.374 206.323 155.378Z" fill="#CC4B23"/>
<path d="M302.935 122.353C302.607 122.491 302.245 122.523 301.898 122.445C301.552 122.367 301.238 122.182 301.002 121.917L279.806 98.8385C279.626 98.6435 279.494 98.4102 279.419 98.1564C279.344 97.9025 279.327 97.6348 279.371 97.3737C279.415 97.1126 279.518 96.865 279.672 96.6497C279.826 96.4344 280.028 96.2571 280.261 96.1314L280.261 96.1313L296.305 87.4769C296.549 87.3453 296.821 87.274 297.098 87.2689C297.376 87.2638 297.65 87.3251 297.899 87.4476C298.148 87.5701 298.364 87.7503 298.529 87.9732C298.694 88.1961 298.803 88.4553 298.847 88.729L303.999 120.462C304.065 120.831 304.006 121.212 303.833 121.546C303.66 121.879 303.382 122.146 303.042 122.305C303.006 122.322 302.971 122.338 302.935 122.353Z" fill="#CC4B23"/>
<path d="M611.298 190.458C610.947 190.399 610.624 190.232 610.374 189.98C610.123 189.729 609.957 189.405 609.9 189.054L604.376 158.21C604.329 157.949 604.342 157.681 604.415 157.427C604.487 157.172 604.617 156.937 604.794 156.74C604.971 156.544 605.191 156.39 605.436 156.29C605.682 156.191 605.947 156.15 606.211 156.168H606.211L624.395 157.462C624.671 157.482 624.939 157.567 625.176 157.712C625.413 157.856 625.612 158.055 625.756 158.291C625.9 158.528 625.986 158.796 626.006 159.073C626.025 159.349 625.979 159.627 625.87 159.882L613.21 189.432C613.067 189.779 612.814 190.07 612.489 190.258C612.164 190.447 611.787 190.523 611.414 190.475C611.375 190.471 611.336 190.465 611.298 190.458Z" fill="#CC4B23"/>
<path d="M514.243 170.256C513.915 170.121 513.637 169.886 513.448 169.585C513.26 169.284 513.17 168.932 513.192 168.577L514.649 137.276C514.662 137.011 514.734 136.753 514.861 136.521C514.989 136.289 515.167 136.089 515.384 135.936C515.6 135.783 515.848 135.682 516.109 135.64C516.371 135.597 516.638 135.616 516.892 135.692L516.892 135.692L534.335 140.988C534.601 141.069 534.843 141.212 535.042 141.405C535.241 141.598 535.39 141.836 535.479 142.099C535.567 142.362 535.591 142.642 535.549 142.917C535.507 143.191 535.4 143.451 535.237 143.675L516.336 169.68C516.12 169.987 515.808 170.214 515.45 170.326C515.091 170.438 514.706 170.428 514.353 170.299C514.316 170.286 514.279 170.272 514.243 170.256Z" fill="#CC4B23"/>
<path d="M278.981 122.593H274.807V135.81H278.981V122.593Z" fill="#337357"/>
<path d="M346.459 85.0276H342.286V98.245H346.459V85.0276Z" fill="#337357"/>
<path d="M329.368 125.514L326.102 128.113L334.334 138.454L337.599 135.855L329.368 125.514Z" fill="#337357"/>
<path d="M309.696 165.565L303.087 177.012L306.702 179.099L313.31 167.652L309.696 165.565Z" fill="#337357"/>
<path d="M290.913 36.8696L284.304 48.3162L287.919 50.4031L294.528 38.9566L290.913 36.8696Z" fill="#337357"/>
<path d="M488.334 136.457H484.16V149.674H488.334V136.457Z" fill="#337357"/>
<path d="M555.812 98.8914H551.638V112.109H555.812V98.8914Z" fill="#337357"/>
<path d="M538.721 139.378L535.455 141.977L543.687 152.318L546.952 149.719L538.721 139.378Z" fill="#337357"/>
<path d="M519.049 179.429L512.44 190.876L516.055 192.963L522.663 181.516L519.049 179.429Z" fill="#337357"/>
<path d="M500.266 50.7333L493.657 62.1799L497.272 64.2668L503.881 52.8203L500.266 50.7333Z" fill="#337357"/>
<path d="M140.546 85.7233H136.372V98.9407H140.546V85.7233Z" fill="#337357"/>
<path d="M208.025 48.1581H203.851V61.3755H208.025V48.1581Z" fill="#337357"/>
<path d="M190.933 88.6442L187.667 91.2437L195.899 101.585L199.165 98.9855L190.933 88.6442Z" fill="#337357"/>
<path d="M171.261 128.696L164.652 140.142L168.267 142.229L174.876 130.783L171.261 128.696Z" fill="#337357"/>
<path d="M152.478 -1.35441e-05L145.869 11.4466L149.484 13.5335L156.093 2.08694L152.478 -1.35441e-05Z" fill="#337357"/>
<path d="M92.7448 121.333C86.334 121.333 80.0672 119.432 74.7368 115.87C69.4065 112.309 65.2519 107.246 62.7986 101.324C60.3453 95.4008 59.7034 88.8835 60.9541 82.5959C62.2048 76.3083 65.2919 70.5328 69.825 65.9997C74.3581 61.4665 80.1337 58.3795 86.4213 57.1288C92.7089 55.8781 99.2262 56.52 105.149 58.9733C111.072 61.4266 116.134 65.5811 119.696 70.9115C123.257 76.2419 125.158 82.5087 125.158 88.9195C125.149 97.5131 121.731 105.752 115.654 111.829C109.577 117.905 101.338 121.323 92.7448 121.333V121.333ZM92.7448 62.8616C87.5911 62.8616 82.553 64.3898 78.2678 67.2531C73.9826 70.1164 70.6427 74.1861 68.6705 78.9476C66.6982 83.709 66.1822 88.9484 67.1876 94.0031C68.1931 99.0579 70.6748 103.701 74.3191 107.345C77.9634 110.989 82.6064 113.471 87.6612 114.477C92.7159 115.482 97.9553 114.966 102.717 112.994C107.478 111.022 111.548 107.682 114.411 103.396C117.275 99.1113 118.803 94.0733 118.803 88.9195C118.795 82.0109 116.047 75.3875 111.162 70.5024C106.277 65.6173 99.6534 62.8694 92.7448 62.8616V62.8616Z" fill="#FFC336"/>
<path d="M121.981 164.088H63.5091C62.886 164.088 62.2767 163.905 61.7569 163.561C61.2371 163.218 60.8298 162.729 60.5856 162.156C60.3414 161.583 60.271 160.95 60.3834 160.337C60.4957 159.725 60.7857 159.158 61.2173 158.709L107.683 110.337C108.267 109.729 109.068 109.379 109.911 109.362C110.753 109.345 111.568 109.664 112.175 110.248C112.783 110.831 113.134 111.632 113.151 112.475C113.168 113.317 112.85 114.132 112.267 114.74L70.9681 157.733H121.981C122.823 157.733 123.632 158.067 124.228 158.663C124.824 159.259 125.158 160.068 125.158 160.91C125.158 161.753 124.824 162.561 124.228 163.157C123.632 163.753 122.823 164.088 121.981 164.088V164.088Z" fill="#FFC336"/>
<path d="M100.132 172.68H87.7431C87.3065 172.621 86.91 172.394 86.6379 172.048C86.3657 171.702 86.2393 171.263 86.2855 170.825L87.7431 163.404C87.6969 162.966 87.8233 162.528 88.0955 162.181C88.3676 161.835 88.7641 161.608 89.2006 161.549H98.6747C99.1113 161.608 99.5077 161.835 99.7799 162.181C100.052 162.528 100.178 162.966 100.132 163.404L101.59 170.825C101.636 171.263 101.51 171.702 101.237 172.048C100.965 172.394 100.569 172.621 100.132 172.68Z" fill="#FFC336"/>
<path d="M102.15 168.506H85.4542C84.8084 168.506 84.1892 168.249 83.7325 167.793C83.2759 167.336 83.0194 166.717 83.0194 166.071C83.0194 165.425 83.2759 164.806 83.7325 164.349C84.1892 163.893 84.8084 163.636 85.4542 163.636H102.15C102.796 163.636 103.415 163.893 103.871 164.349C104.328 164.806 104.585 165.425 104.585 166.071C104.585 166.717 104.328 167.336 103.871 167.793C103.415 168.249 102.796 168.506 102.15 168.506V168.506Z" fill="#121212"/>
<path d="M84.7473 165.471C82.1925 164.833 79.5255 164.788 76.951 165.341C74.3765 165.894 71.9629 167.03 69.8956 168.661C67.8611 170.332 66.2443 172.454 65.1738 174.859C64.1033 177.264 63.6085 179.885 63.7287 182.515C64.238 193.881 75.6808 199.99 83.6572 206.103C93.083 213.327 101.931 221.661 108.318 231.752C114.643 241.745 118.609 253.587 117.69 265.514C116.896 275.829 112.221 286.056 104.204 292.731C103.194 293.567 102.133 294.34 101.027 295.045C99.9012 295.769 100.946 297.576 102.081 296.847C110.865 291.201 116.675 281.789 118.876 271.676C121.325 260.426 119.143 248.714 114.331 238.387C109.331 227.658 101.468 218.537 92.6315 210.771C88.2485 206.919 83.593 203.422 78.8779 199.992C74.7318 196.976 70.3859 193.728 67.8092 189.186C66.5368 186.96 65.8545 184.445 65.8269 181.88C65.7993 179.316 66.4274 176.787 67.6515 174.534C68.9292 172.267 70.7837 170.378 73.0269 169.059C75.27 167.74 77.8221 167.037 80.4243 167.023C81.6951 167.011 82.962 167.165 84.1925 167.483C85.4943 167.816 86.0497 165.804 84.7473 165.471H84.7473Z" fill="#121212"/>
<path d="M445.395 83.0721C438.984 83.0721 432.717 81.1711 427.387 77.6095C422.056 74.0478 417.902 68.9855 415.448 63.0627C412.995 57.1399 412.353 50.6227 413.604 44.3351C414.855 38.0474 417.942 32.2719 422.475 27.7388C427.008 23.2057 432.783 20.1186 439.071 18.8679C445.359 17.6172 451.876 18.2591 457.799 20.7124C463.722 23.1657 468.784 27.3203 472.345 32.6506C475.907 37.981 477.808 44.2478 477.808 50.6586C477.798 59.2522 474.38 67.4911 468.304 73.5677C462.227 79.6443 453.988 83.0624 445.395 83.0721V83.0721ZM445.395 24.6007C440.241 24.6007 435.203 26.129 430.918 28.9922C426.632 31.8555 423.292 35.9252 421.32 40.6867C419.348 45.4481 418.832 50.6875 419.837 55.7423C420.843 60.797 423.325 65.4401 426.969 69.0844C430.613 72.7286 435.256 75.2104 440.311 76.2159C445.366 77.2213 450.605 76.7053 455.366 74.733C460.128 72.7607 464.198 69.4208 467.061 65.1356C469.924 60.8504 471.453 55.8124 471.453 50.6586C471.445 43.75 468.697 37.1266 463.812 32.2415C458.927 27.3564 452.303 24.6085 445.395 24.6007Z" fill="#FFC336"/>
<path d="M474.63 125.827H416.159C415.536 125.827 414.926 125.644 414.407 125.301C413.887 124.957 413.479 124.468 413.235 123.895C412.991 123.322 412.921 122.689 413.033 122.077C413.145 121.464 413.436 120.897 413.867 120.448L460.333 72.076C460.622 71.7744 460.967 71.5328 461.35 71.3649C461.732 71.197 462.144 71.1061 462.561 71.0975C462.979 71.0888 463.394 71.1625 463.783 71.3145C464.172 71.4664 464.528 71.6935 464.829 71.9829C465.13 72.2722 465.371 72.6181 465.539 73.0007C465.706 73.3833 465.796 73.7952 465.804 74.2128C465.813 74.6304 465.738 75.0455 465.586 75.4343C465.434 75.8232 465.206 76.1782 464.916 76.479L423.618 119.472H474.63C475.473 119.472 476.281 119.806 476.877 120.402C477.473 120.998 477.808 121.807 477.808 122.649C477.808 123.492 477.473 124.301 476.877 124.897C476.281 125.492 475.473 125.827 474.63 125.827V125.827Z" fill="#FFC336"/>
<path d="M453.524 134.419H441.134C440.698 134.36 440.301 134.134 440.029 133.787C439.757 133.441 439.631 133.002 439.677 132.564L441.134 125.144C441.088 124.706 441.215 124.267 441.487 123.92C441.759 123.574 442.155 123.347 442.592 123.289H452.066C452.503 123.347 452.899 123.574 453.171 123.92C453.443 124.267 453.57 124.706 453.524 125.144L454.981 132.564C455.027 133.002 454.901 133.441 454.629 133.787C454.357 134.134 453.96 134.36 453.524 134.419Z" fill="#FFC336"/>
<path d="M455.541 130.245H438.846C438.2 130.245 437.58 129.989 437.124 129.532C436.667 129.075 436.411 128.456 436.411 127.81C436.411 127.164 436.667 126.545 437.124 126.089C437.58 125.632 438.2 125.375 438.846 125.375H455.541C456.187 125.375 456.806 125.632 457.263 126.089C457.719 126.545 457.976 127.164 457.976 127.81C457.976 128.456 457.719 129.075 457.263 129.532C456.806 129.989 456.187 130.245 455.541 130.245V130.245Z" fill="#121212"/>
<path d="M438.139 127.21C435.584 126.572 432.917 126.527 430.342 127.08C427.768 127.634 425.354 128.769 423.287 130.4C421.252 132.071 419.636 134.193 418.565 136.598C417.495 139.003 417 141.624 417.12 144.254C417.629 155.62 429.072 161.729 437.049 167.842C446.474 175.066 455.322 183.4 461.709 193.491C468.034 203.485 472.001 215.326 471.082 227.253C470.287 237.568 465.612 247.795 457.595 254.471C456.585 255.306 455.524 256.079 454.419 256.784C453.292 257.508 454.338 259.315 455.472 258.586C464.256 252.94 470.067 243.528 472.267 233.416C474.716 222.165 472.534 210.453 467.722 200.126C462.723 189.397 454.859 180.276 446.023 172.51C441.64 168.658 436.984 165.162 432.269 161.731C428.123 158.715 423.777 155.467 421.2 150.926C419.928 148.699 419.246 146.184 419.218 143.62C419.191 141.055 419.819 138.526 421.043 136.273C422.321 134.006 424.175 132.117 426.418 130.798C428.661 129.479 431.213 128.777 433.816 128.762C435.086 128.75 436.353 128.905 437.584 129.222C438.886 129.555 439.441 127.543 438.139 127.21V127.21Z" fill="#121212"/>
<path d="M624.79 486.151L616.899 486.15L613.145 455.711L624.792 455.712L624.79 486.151Z" fill="#FFB8B8"/>
<path d="M611.262 483.896H626.482V493.478H601.68C601.68 490.937 602.689 488.499 604.486 486.702C606.283 484.905 608.721 483.896 611.262 483.896V483.896Z" fill="#121212"/>
<path d="M682.051 477.212L674.872 480.49L658.81 454.363L669.405 449.524L682.051 477.212Z" fill="#FFB8B8"/>
<path d="M668.808 480.781L682.652 474.458L686.633 483.174L664.073 493.479C663.017 491.167 662.923 488.531 663.811 486.149C664.699 483.768 666.497 481.837 668.808 480.781V480.781Z" fill="#121212"/>
<path d="M624.288 478.125H616.749C616.018 478.122 615.314 477.844 614.779 477.346C614.243 476.848 613.915 476.167 613.86 475.438L609.748 365.65C609.718 365.229 609.78 364.807 609.929 364.413C610.079 364.018 610.313 363.661 610.615 363.367C610.917 363.072 611.279 362.847 611.677 362.707C612.075 362.568 612.499 362.516 612.919 362.557L656.519 367.188C657.226 367.257 657.883 367.583 658.365 368.104C658.847 368.626 659.121 369.306 659.134 370.016L660.048 418.444C660.053 418.707 660.104 418.967 660.199 419.213L678.084 465.593C678.222 465.951 678.288 466.333 678.277 466.717C678.266 467.101 678.178 467.479 678.02 467.829C677.862 468.179 677.636 468.493 677.354 468.755C677.073 469.017 676.743 469.22 676.382 469.352L668.743 472.167C668.079 472.412 667.349 472.405 666.69 472.148C666.031 471.892 665.489 471.403 665.166 470.774L643.194 428.053C643.075 427.821 642.987 427.573 642.934 427.317L639.181 409.233C639.072 408.709 638.78 408.241 638.357 407.912C637.934 407.584 637.408 407.416 636.873 407.441C636.338 407.465 635.829 407.679 635.438 408.044C635.046 408.41 634.798 408.903 634.737 409.435L627.166 475.557C627.085 476.264 626.747 476.916 626.216 477.39C625.685 477.863 624.999 478.125 624.288 478.125Z" fill="#121212"/>
<path d="M628.042 279.807C636.773 279.807 643.851 272.729 643.851 263.997C643.851 255.265 636.773 248.187 628.042 248.187C619.31 248.187 612.232 255.265 612.232 263.997C612.232 272.729 619.31 279.807 628.042 279.807Z" fill="#FFB8B8"/>
<path d="M638.941 375.668C624.957 375.669 614.007 369.847 610.042 367.409H610.043C609.593 367.133 609.228 366.738 608.988 366.268C608.747 365.799 608.641 365.272 608.68 364.745L612.524 309.791C612.771 306.083 613.882 302.483 615.769 299.281C617.656 296.078 620.266 293.362 623.39 291.348C626.375 289.373 629.78 288.123 633.334 287.7C636.888 287.276 640.492 287.691 643.857 288.909C645.342 289.422 646.744 290.148 648.02 291.066C656.536 297.409 660.641 306.961 659.281 317.272C656.462 338.655 659.656 367.499 660.029 370.718L660.056 370.95L659.844 371.047C653.296 374.091 646.162 375.668 638.941 375.668Z" fill="#A4031F"/>
<path d="M659.069 383.518C659.825 382.949 660.447 382.221 660.892 381.386C661.336 380.55 661.592 379.627 661.641 378.682C661.69 377.737 661.532 376.793 661.176 375.916C660.821 375.039 660.278 374.25 659.585 373.606L668.861 352.557L657.076 354.554L650.074 374.236C649.068 375.472 648.551 377.034 648.62 378.626C648.69 380.218 649.34 381.729 650.449 382.873C651.558 384.017 653.048 384.714 654.636 384.833C656.225 384.952 657.802 384.484 659.069 383.518V383.518Z" fill="#FFB8B8"/>
<path d="M659.956 370.516C659.555 370.516 659.158 370.432 658.791 370.27C658.424 370.108 658.095 369.872 657.824 369.576L654.366 365.803C654.03 365.434 653.794 364.984 653.681 364.498C653.569 364.012 653.583 363.504 653.723 363.025L661.644 336.217L649.593 310.909C649.064 309.796 648.935 308.536 649.226 307.339C649.483 306.289 650.052 305.341 650.859 304.62C651.665 303.9 652.671 303.441 653.744 303.304C654.817 303.167 655.906 303.358 656.867 303.853C657.829 304.347 658.618 305.122 659.131 306.074L675.422 332.509C676.056 333.536 676.428 334.702 676.506 335.907C676.583 337.111 676.363 338.316 675.866 339.416L662.6 368.81C662.403 369.247 662.101 369.629 661.72 369.92C661.339 370.211 660.892 370.403 660.418 370.478C660.265 370.503 660.111 370.515 659.956 370.516Z" fill="#A4031F"/>
<path d="M641.068 277.935C639.428 278.216 638.079 275.934 637.875 274.329C637.671 272.724 638.256 271.188 638.32 269.593C638.384 267.998 637.632 266.06 635.975 265.587C634.239 265.092 632.63 266.484 630.852 266.317C628.375 266.084 627.132 263.185 626.832 260.84C626.532 258.495 626.296 255.718 624.151 254.381C622.012 253.048 619.367 254.018 616.91 254.06C612.757 254.13 608.529 250.963 607.559 247.055C608.062 247.2 608.6 247.173 609.087 246.978C609.574 246.783 609.982 246.431 610.246 245.978C610.454 245.495 610.496 244.957 610.367 244.447C610.237 243.938 609.942 243.485 609.528 243.16L614.236 245.465C613.593 244.156 614.564 242.665 615.902 242.169C617.239 241.673 618.795 241.896 620.271 242.125C627.641 243.27 636.179 242.706 641.068 248.325C644.454 252.218 647.242 259.625 646.861 264.418C646.48 269.21 641.068 277.935 641.068 277.935Z" fill="#121212"/>
<path d="M557.237 304.887C558.059 304.419 558.974 304.136 559.918 304.06C560.861 303.983 561.809 304.115 562.696 304.444C563.583 304.774 564.387 305.294 565.051 305.968C565.715 306.642 566.224 307.454 566.54 308.346L589.542 308.18L583.034 318.206L562.189 316.826C560.655 317.259 559.017 317.114 557.583 316.419C556.149 315.724 555.02 314.528 554.41 313.056C553.8 311.584 553.75 309.94 554.271 308.434C554.792 306.929 555.848 305.667 557.237 304.887H557.237Z" fill="#FFB8B8"/>
<path d="M569.206 315.815C569.124 315.422 569.125 315.017 569.209 314.624C569.292 314.232 569.456 313.861 569.691 313.536L572.68 309.381C572.972 308.977 573.364 308.654 573.818 308.445C574.271 308.235 574.77 308.146 575.268 308.186L602.174 307.058L625.447 293.515C626.428 292.77 627.636 292.387 628.867 292.428C629.948 292.465 630.992 292.829 631.862 293.472C632.731 294.114 633.386 295.006 633.739 296.028C634.091 297.05 634.126 298.155 633.838 299.198C633.55 300.24 632.953 301.17 632.126 301.867L609.568 323.206C608.692 324.036 607.625 324.638 606.462 324.959C605.299 325.281 604.074 325.312 602.897 325.049L571.415 318.055C570.946 317.952 570.511 317.733 570.148 317.42C569.786 317.106 569.507 316.708 569.336 316.259C569.281 316.115 569.238 315.966 569.206 315.815V315.815Z" fill="#A4031F"/>
<path d="M48.8822 347.544C49.2409 348.161 49.7177 348.702 50.2853 349.136C50.853 349.569 51.5005 349.886 52.1908 350.069C52.8811 350.252 53.6007 350.298 54.3086 350.203C55.0164 350.108 55.6985 349.874 56.3161 349.515C56.9337 349.157 57.4746 348.68 57.9079 348.112C58.3412 347.545 58.6585 346.897 58.8416 346.207C59.0247 345.516 59.07 344.797 58.975 344.089C58.88 343.381 58.6464 342.699 58.2878 342.081C58.1357 341.827 57.9645 341.584 57.7756 341.355L62.3504 308.748L62.4874 307.771L63.4167 301.118L63.5537 300.159L63.0473 300.182L54.1839 300.587L51.807 300.695L51.5092 306.764L49.8234 340.89C48.9427 341.733 48.3709 342.847 48.2002 344.054C48.0295 345.261 48.2697 346.49 48.8822 347.544V347.544Z" fill="#FFB8B8"/>
<path d="M62.4611 308.068L51.2063 307.035C50.6225 306.98 50.0842 306.696 49.7089 306.246C49.3335 305.795 49.1514 305.215 49.2023 304.631L51.2899 281.226C51.391 280.089 51.7191 278.984 52.2549 277.976C52.7906 276.968 53.523 276.078 54.4088 275.359C55.2946 274.639 56.3158 274.104 57.4119 273.786C58.508 273.468 59.6568 273.373 60.7903 273.507C61.9237 273.641 63.0188 274.001 64.0108 274.565C65.0027 275.13 65.8713 275.887 66.5652 276.794C67.2591 277.7 67.7642 278.736 68.0505 279.841C68.3369 280.945 68.3987 282.097 68.2323 283.226L64.8576 306.183C64.78 306.709 64.5162 307.189 64.114 307.537C63.7118 307.885 63.1981 308.076 62.6664 308.077C62.5985 308.077 62.5299 308.074 62.4611 308.068Z" fill="#A4031F"/>
<path d="M53.9315 289.158C52.7932 285.934 52.7404 282.426 53.7813 279.168C54.8221 275.911 56.8995 273.084 59.6967 271.117C63.9408 268.213 69.7486 267.171 76.003 274.616C83.5717 283.706 88.97 294.401 91.7882 305.889L66.1746 310.059C66.1746 310.059 57.463 299.411 53.9315 289.158Z" fill="#A4031F"/>
<path d="M95.3572 456.902L102.659 456.901L106.134 428.733L95.3558 428.734L95.3572 456.902Z" fill="#FFB8B8"/>
<path d="M116.744 463.682L93.7924 463.683L93.792 454.815L107.876 454.814C110.228 454.814 112.483 455.748 114.146 457.411C115.809 459.074 116.744 461.33 116.744 463.682V463.682L116.744 463.682Z" fill="#121212"/>
<path d="M35.3176 450.532L42.2511 452.824L54.391 427.17L44.1572 423.788L35.3176 450.532Z" fill="#FFB8B8"/>
<path d="M53.4955 463.683L31.7037 456.48L34.4866 448.06L47.8589 452.48C50.0919 453.218 51.9402 454.813 52.9973 456.914C54.0544 459.015 54.2336 461.45 53.4955 463.683V463.683L53.4955 463.683Z" fill="#121212"/>
<path d="M70.0088 263.731C78.0888 263.731 84.639 257.181 84.639 249.101C84.639 241.021 78.0888 234.471 70.0088 234.471C61.9288 234.471 55.3787 241.021 55.3787 249.101C55.3787 257.181 61.9288 263.731 70.0088 263.731Z" fill="#FFB8B8"/>
<path d="M82.8185 449.06L76.0366 404.299C75.9643 403.821 75.7283 403.383 75.3689 403.06C75.0095 402.737 74.5491 402.549 74.0663 402.528C73.5836 402.507 73.1085 402.654 72.7223 402.945C72.3362 403.235 72.0629 403.65 71.9491 404.12L61.6215 446.777C61.4588 447.431 61.0578 448 60.497 448.373C59.9363 448.746 59.2565 448.896 58.5909 448.793L30.1032 444.215C29.7255 444.154 29.3651 444.013 29.0463 443.802C28.7275 443.59 28.4577 443.313 28.255 442.988C28.0523 442.664 27.9214 442.3 27.8711 441.921C27.8207 441.541 27.8522 441.156 27.9633 440.79L65.1095 318.323C65.215 317.975 65.2276 317.605 65.1458 317.25L63.9089 311.891C63.7731 311.31 63.8358 310.7 64.087 310.159C64.3382 309.617 64.7634 309.176 65.2949 308.904C70.3531 306.323 83.1619 300.958 92.8332 306.835C93.1471 307.027 93.4187 307.28 93.6317 307.58C93.8446 307.879 93.9943 308.219 94.0718 308.579L123.09 444.966C123.169 445.337 123.168 445.72 123.088 446.091C123.008 446.461 122.85 446.811 122.625 447.116C122.4 447.421 122.112 447.674 121.782 447.86C121.451 448.046 121.085 448.16 120.708 448.194L85.708 451.328C85.6273 451.335 85.5472 451.338 85.4678 451.338C84.8269 451.337 84.2077 451.107 83.7218 450.689C83.236 450.271 82.9156 449.693 82.8185 449.06V449.06Z" fill="#121212"/>
<path d="M60.3077 238.765C61.4106 238.101 62.3893 237.251 63.1999 236.251C63.5996 235.746 63.8627 235.147 63.9639 234.511C64.065 233.875 64.0008 233.223 63.7775 232.619C63.0383 230.989 60.8417 230.472 59.1399 231.028C57.438 231.584 56.1231 232.917 54.8793 234.205C53.7021 235.262 52.7667 236.561 52.1369 238.012C51.6172 239.501 51.8842 241.389 53.1769 242.292C54.4455 243.179 56.2694 242.816 57.4895 241.864C58.6415 240.823 59.5602 239.55 60.1851 238.129L60.3077 238.765Z" fill="#121212"/>
<path d="M55.3527 234.596C55.2716 230.474 50.5728 227.518 46.515 228.249C42.4571 228.979 39.3379 232.439 37.7766 236.255C34.4777 244.318 36.9542 253.517 40.1328 261.628C43.3114 269.739 47.2448 277.972 46.7812 286.671C46.4678 291.373 44.8902 295.904 42.2151 299.784C39.5399 303.663 35.8665 306.749 31.5829 308.714C36.1626 310.789 41.6367 308.645 45.4851 305.409C54.0317 298.222 57.3307 285.427 53.3246 275.003C51.3487 269.862 47.8665 265.464 45.148 260.674C42.4294 255.884 40.4348 250.239 41.8383 244.913C43.2419 239.587 49.2151 235.274 54.3218 237.337L55.3527 234.596Z" fill="#121212"/>
<path d="M70.8862 255.593C69.611 253.438 68.3234 250.609 70.6551 248.725C71.162 248.334 71.742 248.048 72.3609 247.885C72.9798 247.721 73.6252 247.683 74.2591 247.772C76.8874 248.089 79.7494 248.219 82.2932 247.264C83.2472 246.936 84.1256 246.419 84.8761 245.745C85.6266 245.071 86.234 244.252 86.6621 243.339C87.9754 240.227 86.3309 236.446 83.5854 234.479C81.9057 233.319 79.9211 232.681 77.8804 232.645C75.8397 232.609 73.8337 233.176 72.1142 234.276C68.5582 232.705 64.2435 233.404 61.0129 235.566C57.7823 237.728 55.5717 241.19 54.3708 244.888C53.2646 248.07 53.0741 251.499 53.8211 254.784C54.4222 257.07 55.5653 259.177 57.1535 260.927C58.7417 262.677 60.7282 264.019 62.9448 264.839C63.8084 265.179 64.7462 265.286 65.6643 265.15C66.5824 265.014 67.4486 264.639 68.1761 264.062C69.3589 263.002 70.2672 261.67 70.8235 260.182C71.3082 258.554 71.5676 256.745 70.8862 255.593Z" fill="#121212"/>
<path d="M114.288 268.648C114.214 268.969 114.167 269.296 114.145 269.625L88.5568 284.387L82.3372 280.806L75.7068 289.486L86.1013 296.895C86.9411 297.493 87.9523 297.803 88.9832 297.778C90.0141 297.753 91.0091 297.394 91.8187 296.756L118.205 275.94C119.395 276.38 120.692 276.448 121.922 276.134C123.153 275.82 124.258 275.139 125.092 274.181C125.925 273.223 126.448 272.034 126.589 270.772C126.73 269.51 126.484 268.235 125.883 267.117C125.283 265.998 124.355 265.089 123.225 264.51C122.095 263.932 120.815 263.711 119.557 263.877C118.298 264.043 117.119 264.589 116.178 265.441C115.237 266.293 114.578 267.412 114.288 268.648V268.648Z" fill="#FFB8B8"/>
<path d="M87.7014 285.086L79.4313 295.804C79.196 296.109 78.8977 296.36 78.5568 296.539C78.2159 296.718 77.8403 296.822 77.4557 296.843C77.0711 296.864 76.6865 296.802 76.328 296.661C75.9695 296.52 75.6457 296.304 75.3785 296.026L66.0162 286.304C64.4628 285.091 63.4536 283.312 63.2101 281.356C62.9665 279.401 63.5083 277.428 64.7168 275.872C65.9253 274.315 67.7017 273.301 69.6567 273.052C71.6117 272.803 73.5856 273.339 75.1457 274.543L86.8881 281.109C87.2242 281.297 87.5159 281.556 87.7432 281.867C87.9705 282.178 88.1281 282.534 88.2053 282.911C88.2825 283.289 88.2774 283.678 88.1904 284.053C88.1035 284.429 87.9367 284.781 87.7014 285.086V285.086Z" fill="#A4031F"/>
<path d="M572.416 245.949C571.571 245.944 570.763 245.602 570.169 245.001C569.575 244.399 569.245 243.586 569.251 242.741V148.154L545.254 172.477C544.962 172.775 544.613 173.011 544.229 173.172C543.845 173.333 543.432 173.417 543.016 173.417C542.599 173.417 542.186 173.333 541.802 173.172C541.418 173.011 541.07 172.775 540.778 172.477C540.184 171.872 539.851 171.057 539.851 170.209C539.851 169.36 540.184 168.546 540.778 167.94L570.178 138.141C570.617 137.693 571.181 137.388 571.796 137.264C572.411 137.14 573.049 137.203 573.627 137.446C574.208 137.693 574.704 138.106 575.051 138.633C575.399 139.16 575.583 139.778 575.581 140.409V242.741C575.586 243.586 575.256 244.399 574.663 245.001C574.069 245.602 573.261 245.944 572.416 245.949V245.949Z" fill="#FFC336"/>
<path d="M567.195 253.774H579.534C579.972 253.711 580.368 253.481 580.639 253.131C580.91 252.782 581.034 252.341 580.986 251.901L579.534 244.41C579.583 243.971 579.458 243.53 579.187 243.18C578.916 242.831 578.52 242.6 578.082 242.538H568.647C568.209 242.6 567.813 242.831 567.542 243.18C567.271 243.53 567.146 243.971 567.195 244.41L565.743 251.901C565.695 252.341 565.819 252.782 566.09 253.131C566.361 253.481 566.757 253.711 567.195 253.774V253.774Z" fill="#FFC336"/>
<path d="M562.761 247.102C562.757 246.455 563.01 245.833 563.465 245.372C563.92 244.911 564.538 244.65 565.186 244.645H581.814C582.46 244.653 583.076 244.916 583.53 245.376C583.984 245.836 584.238 246.456 584.238 247.102C584.238 247.749 583.984 248.369 583.53 248.829C583.076 249.289 582.46 249.551 581.814 249.56H565.186C564.538 249.555 563.92 249.293 563.465 248.833C563.01 248.372 562.757 247.75 562.761 247.102V247.102Z" fill="#121212"/>
<path d="M582.518 246.496C585.064 245.853 587.726 245.809 590.292 246.368C592.859 246.927 595.261 248.073 597.309 249.717C599.342 251.417 600.954 253.564 602.019 255.99C603.085 258.416 603.575 261.055 603.451 263.702C602.944 275.176 591.547 281.343 583.603 287.514C574.216 294.806 565.404 303.219 559.043 313.406C552.743 323.493 548.793 335.447 549.708 347.487C550.5 357.9 555.156 368.223 563.14 374.962C564.145 375.805 565.202 376.585 566.304 377.298C567.425 378.028 566.384 379.853 565.255 379.117C556.506 373.417 550.719 363.916 548.527 353.708C546.089 342.351 548.261 330.528 553.054 320.103C558.033 309.272 565.865 300.065 574.665 292.225C579.031 288.337 583.667 284.807 588.363 281.345C592.493 278.3 596.821 275.021 599.387 270.437C600.655 268.183 601.334 265.646 601.361 263.061C601.389 260.476 600.764 257.925 599.544 255.645C598.287 253.366 596.447 251.463 594.211 250.131C591.975 248.798 589.426 248.085 586.823 248.063C585.557 248.051 584.295 248.207 583.07 248.528C581.774 248.864 581.221 246.832 582.518 246.496L582.518 246.496Z" fill="#121212"/>
<path d="M394.261 315.718C395.115 315.294 395.864 314.687 396.458 313.941C397.051 313.196 397.474 312.329 397.696 311.402C397.919 310.475 397.935 309.511 397.744 308.577C397.554 307.643 397.161 306.763 396.593 305.997L401.468 258.333H390.932L387.058 304.875C385.835 305.914 385.036 307.366 384.812 308.954C384.589 310.543 384.955 312.159 385.843 313.496C386.731 314.833 388.078 315.797 389.63 316.207C391.181 316.616 392.829 316.443 394.261 315.718V315.718Z" fill="#A0616A"/>
<path d="M403.935 232.029C412.167 232.029 418.84 225.355 418.84 217.123C418.84 208.891 412.167 202.218 403.935 202.218C395.703 202.218 389.029 208.891 389.029 217.123C389.029 225.355 395.703 232.029 403.935 232.029Z" fill="#A0616A"/>
<path d="M406.741 286.091C406.144 286.091 405.564 285.895 405.089 285.533C404.615 285.172 404.272 284.665 404.114 284.089C402.919 279.75 399.812 272.415 394.879 262.284C393.766 259.995 393.15 257.495 393.07 254.95C392.991 252.405 393.451 249.872 394.419 247.518C395.388 245.163 396.843 243.04 398.69 241.287C400.537 239.534 402.734 238.192 405.136 237.348V237.348C407.412 236.544 409.827 236.205 412.237 236.351C414.646 236.496 417.002 237.124 419.165 238.196C421.328 239.269 423.254 240.764 424.829 242.593C426.404 244.423 427.596 246.55 428.335 248.849C432.158 260.837 431.974 273.678 431.717 278.642C431.685 279.24 431.458 279.811 431.071 280.268C430.683 280.724 430.157 281.041 429.572 281.17L407.326 286.028C407.134 286.07 406.938 286.091 406.741 286.091Z" fill="#A4031F"/>
<path d="M428.283 427.631H435.723L439.263 398.934L428.282 398.934L428.283 427.631Z" fill="#A0616A"/>
<path d="M450.073 434.539L426.689 434.54L426.689 425.506L441.038 425.505C443.434 425.505 445.732 426.457 447.426 428.151C449.12 429.845 450.072 432.143 450.073 434.539V434.539Z" fill="#121212"/>
<path d="M353.886 417.989L360.406 421.574L377.334 398.131L367.711 392.841L353.886 417.989Z" fill="#A0616A"/>
<path d="M369.651 434.54L349.16 423.275L353.513 415.358L366.087 422.271C368.186 423.425 369.742 425.366 370.41 427.667C371.078 429.968 370.806 432.441 369.651 434.54V434.54V434.54Z" fill="#121212"/>
<path d="M427.936 411.703C427.273 411.702 426.633 411.461 426.135 411.023C425.637 410.585 425.315 409.981 425.23 409.323L415.925 337.622C415.884 337.305 415.744 337.009 415.524 336.776C415.305 336.544 415.018 336.386 414.704 336.327C414.389 336.267 414.064 336.308 413.775 336.444C413.486 336.581 413.247 336.805 413.092 337.085L374.314 407.44C373.994 408.014 373.478 408.455 372.861 408.681C372.244 408.908 371.566 408.905 370.95 408.674L362.498 405.454C362.158 405.324 361.847 405.128 361.584 404.877C361.321 404.626 361.11 404.325 360.965 403.991C360.82 403.657 360.743 403.298 360.739 402.934C360.735 402.57 360.803 402.209 360.94 401.873L387.803 335.883C387.871 335.715 387.917 335.539 387.94 335.36C391.579 307.199 400.836 292.878 403.586 289.16C403.787 288.887 403.92 288.569 403.972 288.234C404.024 287.899 403.995 287.556 403.887 287.234L403.509 286.1C403.358 285.65 403.327 285.168 403.42 284.702C403.512 284.236 403.724 283.803 404.035 283.444C413.946 272.155 431.22 278.315 431.394 278.379L431.48 278.411L431.535 278.485C450.904 305.049 443.743 391.329 442.11 408.356C442.049 408.995 441.764 409.593 441.305 410.043C440.846 410.493 440.243 410.766 439.602 410.813L428.148 411.695C428.077 411.7 428.006 411.703 427.936 411.703Z" fill="#121212"/>
<path d="M461.881 234.437C461.807 234.765 461.758 235.098 461.736 235.433L435.666 250.472L429.33 246.825L422.575 255.668L433.165 263.216C434.02 263.826 435.051 264.142 436.101 264.116C437.151 264.09 438.165 263.725 438.99 263.074L465.872 241.866C467.085 242.316 468.406 242.385 469.66 242.064C470.913 241.744 472.039 241.05 472.889 240.074C473.738 239.099 474.27 237.887 474.414 236.602C474.558 235.316 474.308 234.017 473.696 232.878C473.083 231.738 472.139 230.812 470.987 230.222C469.836 229.632 468.532 229.407 467.25 229.577C465.967 229.746 464.767 230.302 463.808 231.17C462.849 232.038 462.177 233.178 461.881 234.437V234.437Z" fill="#A0616A"/>
<path d="M434.795 251.185L426.369 262.105C426.13 262.415 425.826 262.671 425.478 262.854C425.131 263.036 424.748 263.142 424.356 263.163C423.965 263.185 423.573 263.122 423.208 262.978C422.842 262.834 422.512 262.614 422.24 262.331L412.702 252.426C411.119 251.191 410.09 249.378 409.842 247.385C409.594 245.392 410.146 243.383 411.377 241.796C412.608 240.21 414.418 239.177 416.41 238.923C418.402 238.67 420.414 239.217 422.003 240.444L433.966 247.133C434.309 247.325 434.606 247.588 434.838 247.905C435.069 248.222 435.23 248.585 435.308 248.969C435.387 249.354 435.382 249.751 435.293 250.133C435.205 250.515 435.035 250.874 434.795 251.185V251.185Z" fill="#A4031F"/>
<path d="M402.138 270.157L388.565 267.706C388.179 267.636 387.812 267.484 387.49 267.26C387.168 267.036 386.898 266.745 386.698 266.407C386.499 266.069 386.375 265.692 386.334 265.301C386.293 264.911 386.337 264.517 386.463 264.145L390.863 251.117C391.231 249.143 392.366 247.395 394.021 246.257C395.675 245.119 397.714 244.684 399.689 245.046C401.664 245.409 403.414 246.54 404.557 248.191C405.699 249.843 406.14 251.88 405.782 253.856L405.353 267.556C405.341 267.948 405.244 268.333 405.069 268.684C404.895 269.036 404.646 269.346 404.341 269.592C404.036 269.839 403.681 270.017 403.301 270.115C402.921 270.212 402.524 270.227 402.138 270.157V270.157Z" fill="#A4031F"/>
<path d="M406.294 213.695C410.125 216.317 415.155 219.012 419.068 216.22C420.292 215.288 421.181 213.984 421.602 212.505C422.023 211.025 421.954 209.449 421.405 208.012C419.531 202.654 414.384 200.295 409.461 198.487C403.062 196.137 396.094 194.267 389.488 195.95C382.882 197.634 377.044 204.03 378.236 210.742C379.195 216.139 384.287 220.631 383.564 226.065C382.837 231.534 376.686 234.413 371.256 235.39C365.826 236.368 359.749 236.682 355.847 240.582C350.869 245.558 352.112 254.451 356.796 259.705C361.48 264.958 368.549 267.339 375.399 268.958C384.475 271.103 394.29 272.23 402.91 268.671C411.529 265.111 418.237 255.529 415.74 246.544C414.685 242.749 412.201 239.541 409.8 236.419C407.398 233.296 404.967 230.031 404.051 226.2C403.288 223.007 403.853 219.3 405.97 216.905C406.355 216.486 406.597 215.956 406.662 215.39C406.727 214.825 406.611 214.253 406.331 213.758L406.294 213.695Z" fill="#121212"/>
<path d="M188.598 380.394C189.162 379.541 189.906 378.821 190.777 378.287C191.649 377.752 192.627 377.415 193.644 377.299C194.66 377.184 195.689 377.292 196.658 377.617C197.628 377.942 198.515 378.476 199.256 379.181L221.346 367.779L219.972 380.624L199.206 389.482C197.939 390.648 196.289 391.31 194.568 391.341C192.846 391.372 191.173 390.77 189.865 389.65C188.558 388.529 187.707 386.969 187.473 385.263C187.239 383.557 187.64 381.824 188.598 380.394H188.598Z" fill="#A0616A"/>
<path d="M207.605 385.184C207.104 384.79 206.734 384.254 206.546 383.645L204.788 377.969C204.599 377.354 204.604 376.696 204.801 376.084C204.999 375.471 205.38 374.935 205.892 374.546L223.796 361.021L243.186 325.046C243.997 323.999 245.007 323.122 246.158 322.465C247.309 321.808 248.578 321.384 249.893 321.218C251.208 321.052 252.542 321.147 253.82 321.497C255.098 321.847 256.295 322.445 257.342 323.258C258.388 324.07 259.265 325.081 259.92 326.233C260.576 327.384 260.998 328.654 261.163 329.969C261.328 331.284 261.232 332.618 260.881 333.896C260.53 335.174 259.93 336.37 259.117 337.416L248.086 360.7C244.739 367.767 238.939 373.378 231.764 376.489L210.782 385.591C210.378 385.766 209.942 385.854 209.503 385.849C209.063 385.845 208.629 385.748 208.229 385.564C208.007 385.462 207.798 385.335 207.605 385.184Z" fill="#A4031F"/>
<path d="M259.602 310.032C269.038 310.032 276.688 302.382 276.688 292.946C276.688 283.51 269.038 275.86 259.602 275.86C250.166 275.86 242.516 283.51 242.516 292.946C242.516 302.382 250.166 310.032 259.602 310.032Z" fill="#A0616A"/>
<path d="M252.682 517.082H244.153L240.096 484.186L252.683 484.187L252.682 517.082Z" fill="#A0616A"/>
<path d="M238.061 514.645H254.509V525.002H227.705C227.705 523.642 227.973 522.295 228.493 521.038C229.014 519.782 229.777 518.64 230.738 517.679C231.7 516.717 232.841 515.954 234.098 515.434C235.354 514.913 236.701 514.645 238.061 514.645V514.645Z" fill="#121212"/>
<path d="M280.508 517.082H271.979L267.922 484.186L280.509 484.187L280.508 517.082Z" fill="#A0616A"/>
<path d="M265.887 514.645H282.335V525.002H255.531C255.531 523.642 255.799 522.295 256.319 521.038C256.84 519.782 257.603 518.64 258.564 517.679C259.526 516.717 260.668 515.954 261.924 515.434C263.181 514.913 264.527 514.645 265.887 514.645V514.645Z" fill="#121212"/>
<path d="M281.13 508.735H271.136C270.448 508.734 269.779 508.507 269.233 508.089C268.687 507.67 268.293 507.084 268.113 506.419L253.725 453.063C253.703 452.98 253.65 452.908 253.578 452.861C253.505 452.814 253.418 452.796 253.333 452.81C253.248 452.824 253.172 452.869 253.118 452.936C253.064 453.003 253.037 453.088 253.042 453.174L255.95 503.777C255.976 504.225 255.906 504.673 255.743 505.09C255.581 505.508 255.331 505.886 255.01 506.199C254.689 506.512 254.305 506.752 253.883 506.903C253.461 507.055 253.012 507.114 252.565 507.076L241.332 506.14C240.612 506.079 239.936 505.771 239.417 505.268C238.897 504.766 238.568 504.1 238.482 503.383L228.244 397.126L232.203 399.502L269.301 393.201L284.233 505.191C284.292 505.633 284.256 506.083 284.127 506.51C283.998 506.937 283.779 507.331 283.485 507.667C283.192 508.002 282.83 508.271 282.423 508.456C282.017 508.64 281.576 508.735 281.13 508.735V508.735Z" fill="#121212"/>
<path d="M240.652 408.341C236.559 408.308 232.549 407.18 229.04 405.073C228.499 404.753 228.068 404.277 227.803 403.707C227.538 403.137 227.451 402.501 227.554 401.881C228.858 393.89 235.68 352.901 241.887 330.555C244.415 321.454 250.005 316.552 258.503 315.985C270.933 315.169 281.981 324.894 283.132 337.688C285.163 360.261 276.92 392.332 273.282 405.074C273.141 405.566 272.882 406.016 272.526 406.384C272.171 406.752 271.73 407.028 271.244 407.186C270.757 407.345 270.239 407.381 269.735 407.293C269.23 407.204 268.756 406.993 268.352 406.678L260.935 400.909C260.479 400.56 259.914 400.383 259.341 400.407C258.767 400.431 258.219 400.655 257.793 401.04C251.542 406.616 245.604 408.341 240.652 408.341Z" fill="#A4031F"/>
<path d="M254.995 408.989C254.912 407.97 255.053 406.945 255.409 405.986C255.765 405.027 256.327 404.158 257.055 403.44C257.783 402.722 258.66 402.173 259.624 401.83C260.587 401.487 261.614 401.36 262.632 401.458L272.978 378.854L279.824 389.808L268.95 409.594C268.674 411.293 267.783 412.832 266.448 413.919C265.112 415.006 263.424 415.565 261.704 415.49C259.984 415.416 258.351 414.713 257.114 413.515C255.878 412.316 255.124 410.706 254.995 408.989V408.989Z" fill="#A0616A"/>
<path d="M272.907 401.028C272.27 401.028 271.648 400.834 271.124 400.472L266.238 397.09C265.71 396.722 265.308 396.202 265.085 395.598C264.862 394.995 264.831 394.337 264.994 393.715L270.736 372.024L263.792 331.751C263.784 330.426 264.038 329.112 264.538 327.885C265.038 326.658 265.775 325.541 266.707 324.599C267.639 323.657 268.748 322.908 269.969 322.395C271.191 321.881 272.502 321.614 273.827 321.607C275.152 321.601 276.466 321.856 277.692 322.357C278.919 322.858 280.035 323.597 280.976 324.53C281.917 325.463 282.665 326.572 283.177 327.794C283.689 329.016 283.956 330.327 283.961 331.652L289.65 356.781C291.378 364.408 290.277 372.403 286.552 379.278L275.658 399.389C275.449 399.775 275.16 400.113 274.811 400.381C274.462 400.649 274.061 400.84 273.633 400.942C273.395 401 273.152 401.028 272.907 401.028Z" fill="#A4031F"/>
<path opacity="0.2" d="M265.178 348.735L271.439 375.17L262.396 397.431L268.657 375.866L265.178 348.735Z" fill="black"/>
<path d="M269.352 306.996C270.872 307.024 272.382 306.751 273.796 306.192C274.418 305.952 275.064 305.755 275.684 305.516C281.167 303.397 284.779 297.558 284.908 291.681C285.038 285.805 281.995 280.101 277.476 276.342C272.957 272.584 267.104 270.654 261.243 270.208C254.929 269.727 247.821 271.328 244.293 276.585C243.354 277.985 242.697 279.683 243.254 281.373C243.42 281.883 243.718 282.34 244.117 282.699C245.692 284.1 247.263 283.046 248.869 282.953C251.076 282.825 253.059 284.612 253.772 286.705C254.484 288.798 254.171 291.103 253.595 293.238C253.157 294.523 252.88 295.857 252.773 297.21C252.726 297.889 252.854 298.568 253.143 299.183C253.433 299.798 253.875 300.33 254.427 300.726C255.807 301.56 257.618 301.078 258.998 300.245C260.379 299.413 261.571 298.255 263.062 297.643C264.553 297.03 266.556 297.166 267.424 298.524C267.699 299.019 267.886 299.557 267.975 300.116C268.753 303.661 268.574 303.452 269.352 306.996L269.352 306.996Z" fill="#121212"/>
<path d="M719.304 493.376H548.174C547.989 493.376 547.812 493.302 547.682 493.172C547.552 493.041 547.478 492.864 547.478 492.68C547.478 492.495 547.552 492.318 547.682 492.188C547.812 492.057 547.989 491.984 548.174 491.984H719.304C719.489 491.984 719.666 492.057 719.796 492.188C719.927 492.318 720 492.495 720 492.68C720 492.864 719.927 493.041 719.796 493.172C719.666 493.302 719.489 493.376 719.304 493.376Z" fill="black"/>
<path d="M171.826 464.854H0.695652C0.511154 464.854 0.334211 464.78 0.203751 464.65C0.0732912 464.52 0 464.343 0 464.158C0 463.974 0.0732912 463.797 0.203751 463.666C0.334211 463.536 0.511154 463.462 0.695652 463.462H171.826C172.011 463.462 172.188 463.536 172.318 463.666C172.448 463.797 172.522 463.974 172.522 464.158C172.522 464.343 172.448 464.52 172.318 464.65C172.188 464.78 172.011 464.854 171.826 464.854Z" fill="black"/>
<path d="M483.478 434.245H312.348C312.163 434.245 311.986 434.172 311.856 434.041C311.725 433.911 311.652 433.734 311.652 433.549C311.652 433.365 311.725 433.188 311.856 433.057C311.986 432.927 312.163 432.854 312.348 432.854H483.478C483.663 432.854 483.84 432.927 483.97 433.057C484.101 433.188 484.174 433.365 484.174 433.549C484.174 433.734 484.101 433.911 483.97 434.041C483.84 434.172 483.663 434.245 483.478 434.245Z" fill="black"/>
<path d="M352.696 526.071H181.565C181.381 526.071 181.204 525.998 181.073 525.867C180.943 525.737 180.87 525.56 180.87 525.376C180.87 525.191 180.943 525.014 181.073 524.884C181.204 524.753 181.381 524.68 181.565 524.68H352.696C352.88 524.68 353.057 524.753 353.188 524.884C353.318 525.014 353.391 525.191 353.391 525.376C353.391 525.56 353.318 525.737 353.188 525.867C353.057 525.998 352.88 526.071 352.696 526.071Z" fill="black"/>
<path d="M413.188 196.908L406.762 192.333L401.662 188.697L394.263 183.429L389.155 179.796L382.213 174.845C382.1 174.766 381.968 174.717 381.831 174.704C381.693 174.691 381.555 174.715 381.429 174.772C381.304 174.83 381.195 174.919 381.115 175.031C381.035 175.143 380.985 175.275 380.972 175.412L380.386 181.586L379.927 186.356L379.266 193.271L378.817 198.045L378.156 204.96L377.704 209.727L377.365 213.27C377.347 213.407 377.369 213.547 377.428 213.672C377.485 213.797 377.573 213.905 377.683 213.987C377.796 214.067 377.928 214.116 378.065 214.129C378.203 214.142 378.342 214.118 378.467 214.06L413.064 198.258C413.172 198.211 413.269 198.139 413.344 198.048C413.419 197.956 413.471 197.848 413.496 197.733C413.508 197.695 413.517 197.657 413.521 197.618C413.532 197.481 413.507 197.344 413.451 197.219C413.395 197.092 413.304 196.984 413.188 196.908V196.908Z" fill="#CC4B23"/>
<path d="M394.263 183.429L379.927 186.356L380.385 181.585L389.155 179.795L394.263 183.429Z" fill="#121212"/>
<path d="M406.762 192.333L378.817 198.045L379.266 193.27L401.661 188.697L406.762 192.333Z" fill="#121212"/>
<path d="M413.496 197.733C413.471 197.848 413.419 197.957 413.344 198.048C413.269 198.139 413.172 198.211 413.064 198.258L396.243 205.941L377.704 209.727L378.156 204.96L413.496 197.733Z" fill="#121212"/>
<path d="M380.126 178.193C383.591 178.193 386.4 175.384 386.4 171.919C386.4 168.454 383.591 165.645 380.126 165.645C376.661 165.645 373.852 168.454 373.852 171.919C373.852 175.384 376.661 178.193 380.126 178.193Z" fill="#FFC336"/>
<path d="M287.064 285.233L286.006 277.416L285.17 271.208L283.953 262.208L283.11 255.996L281.973 247.546C281.954 247.409 281.899 247.28 281.815 247.171C281.73 247.061 281.618 246.976 281.49 246.924C281.363 246.872 281.223 246.854 281.086 246.872C280.95 246.89 280.82 246.944 280.71 247.028L275.806 250.823L272.012 253.751L266.515 257.998L262.725 260.936L257.229 265.183L253.442 268.114L250.625 270.29C250.513 270.371 250.426 270.482 250.375 270.611C250.323 270.738 250.305 270.876 250.32 271.012C250.339 271.149 250.393 271.279 250.478 271.388C250.562 271.497 250.675 271.582 250.803 271.634L285.993 286.065C286.102 286.113 286.22 286.134 286.338 286.126C286.456 286.118 286.571 286.083 286.672 286.021C286.708 286.005 286.742 285.985 286.773 285.961C286.88 285.875 286.964 285.764 287.016 285.637C287.07 285.509 287.087 285.369 287.064 285.233V285.233Z" fill="#CC4B23"/>
<path d="M283.953 262.207L272.012 253.751L275.806 250.823L283.11 255.996L283.953 262.207Z" fill="#121212"/>
<path d="M286.006 277.416L262.725 260.936L266.515 257.998L285.169 271.208L286.006 277.416Z" fill="#121212"/>
<path d="M286.672 286.022C286.571 286.083 286.456 286.118 286.338 286.126C286.22 286.134 286.102 286.113 285.993 286.065L268.884 279.049L253.442 268.114L257.229 265.183L286.672 286.022Z" fill="#121212"/>
<path d="M282.681 250.296C286.145 250.296 288.954 247.487 288.954 244.022C288.954 240.557 286.145 237.748 282.681 237.748C279.216 237.748 276.407 240.557 276.407 244.022C276.407 247.487 279.216 250.296 282.681 250.296Z" fill="#FFC336"/>
<path d="M207.513 262.32C198.52 262.32 190.201 256.483 184.088 245.885C178.292 235.836 175.1 222.544 175.1 208.457C175.1 194.369 178.292 181.077 184.088 171.029C190.201 160.43 198.52 154.593 207.513 154.593C216.506 154.593 224.825 160.43 230.939 171.029C236.735 181.077 239.927 194.369 239.927 208.457C239.927 222.544 236.735 235.836 230.939 245.885C224.825 256.483 216.506 262.32 207.513 262.32ZM207.513 160.949C200.888 160.949 194.523 165.656 189.593 174.204C184.345 183.302 181.455 195.467 181.455 208.457C181.455 221.447 184.345 233.611 189.593 242.709C194.523 251.257 200.888 255.965 207.513 255.965C214.139 255.965 220.503 251.257 225.433 242.709C230.681 233.611 233.571 221.447 233.571 208.457C233.571 195.467 230.681 183.302 225.433 174.204C220.503 165.656 214.139 160.949 207.513 160.949Z" fill="#FFC336"/>
<path d="M203.221 268.68H215.611C216.047 268.621 216.444 268.394 216.716 268.048C216.988 267.702 217.114 267.263 217.068 266.825L215.611 259.404C215.657 258.966 215.53 258.528 215.258 258.181C214.986 257.835 214.59 257.608 214.153 257.549H204.679C204.242 257.608 203.846 257.835 203.574 258.181C203.302 258.528 203.175 258.966 203.221 259.404L201.764 266.825C201.718 267.263 201.844 267.702 202.116 268.048C202.388 268.394 202.785 268.621 203.221 268.68V268.68Z" fill="#FFC336"/>
<path d="M198.769 262.071C198.77 261.426 199.027 260.807 199.483 260.35C199.939 259.894 200.558 259.637 201.204 259.636H217.899C218.545 259.636 219.165 259.893 219.621 260.349C220.078 260.806 220.334 261.425 220.334 262.071C220.334 262.717 220.078 263.336 219.621 263.793C219.165 264.249 218.545 264.506 217.899 264.506H201.204C200.558 264.505 199.939 264.248 199.483 263.792C199.027 263.336 198.77 262.717 198.769 262.071V262.071Z" fill="#121212"/>
<path d="M218.606 261.471C221.161 260.833 223.828 260.788 226.403 261.341C228.977 261.894 231.391 263.03 233.458 264.661C235.493 266.332 237.109 268.454 238.18 270.859C239.25 273.264 239.745 275.885 239.625 278.515C239.116 289.881 227.673 295.99 219.697 302.103C210.271 309.327 201.423 317.661 195.036 327.752C188.711 337.745 184.744 349.587 185.663 361.514C186.458 371.829 191.133 382.056 199.15 388.732C200.16 389.567 201.221 390.34 202.326 391.045C203.453 391.769 202.407 393.576 201.273 392.847C192.489 387.201 186.678 377.789 184.478 367.676C182.029 356.426 184.211 344.714 189.023 334.387C194.022 323.658 201.886 314.537 210.722 306.771C215.105 302.919 219.761 299.422 224.476 295.992C228.622 292.976 232.968 289.728 235.545 285.186C236.817 282.96 237.499 280.445 237.527 277.88C237.554 275.316 236.926 272.787 235.702 270.534C234.424 268.267 232.57 266.378 230.327 265.059C228.084 263.74 225.532 263.037 222.929 263.023C221.659 263.011 220.392 263.165 219.161 263.483C217.859 263.816 217.304 261.804 218.606 261.471H218.606Z" fill="#121212"/>
</g>
<defs>
<clipPath id="clip0">
<rect width="720" height="526.071" fill="white"/>
</clipPath>
</defs>
</svg>
