<svg width="720" height="555" viewBox="0 0 720 555" fill="none" xmlns="http://www.w3.org/2000/svg">
<g id="undraw_design_stats_ne2k 1">
<g id="blog">
<path id="Vector" d="M137.249 98.6476C131.869 98.6537 126.712 100.772 122.908 104.539C119.104 108.305 116.965 113.411 116.958 118.738V485.444C116.965 490.771 119.104 495.877 122.908 499.643C126.712 503.409 131.869 505.528 137.249 505.534H340.115C345.494 505.528 350.652 503.409 354.456 499.643C358.259 495.877 360.399 490.77 360.405 485.444V118.738C360.399 113.411 358.259 108.305 354.456 104.539C350.652 100.772 345.494 98.6537 340.115 98.6476H137.249Z" fill="#272727"/>
<path id="Vector_2" d="M143.88 110.062C139.799 110.066 135.886 111.674 133 114.531C130.115 117.389 128.491 121.263 128.487 125.304V478.877C128.491 482.918 130.114 486.793 133 489.65C135.886 492.508 139.799 494.115 143.88 494.12H333.483C337.565 494.115 341.477 492.508 344.363 489.65C347.249 486.793 348.873 482.918 348.877 478.877V125.304C348.873 121.263 347.249 117.389 344.363 114.531C341.477 111.674 337.565 110.066 333.483 110.062H143.88Z" fill="white"/>
<path id="Vector_3" d="M330.229 184.582H147.135C146.236 184.581 145.374 184.227 144.738 183.598C144.103 182.969 143.745 182.115 143.744 181.225V136.256C143.745 135.366 144.103 134.512 144.738 133.883C145.374 133.254 146.236 132.9 147.135 132.899H330.229C331.128 132.9 331.99 133.254 332.625 133.883C333.261 134.512 333.618 135.366 333.62 136.256V181.225C333.618 182.115 333.261 182.969 332.625 183.598C331.99 184.227 331.128 184.581 330.229 184.582V184.582ZM147.135 134.242C146.595 134.242 146.078 134.455 145.697 134.832C145.316 135.21 145.101 135.722 145.1 136.256V181.225C145.101 181.759 145.316 182.271 145.697 182.649C146.078 183.027 146.595 183.239 147.135 183.24H330.229C330.768 183.239 331.285 183.027 331.667 182.649C332.048 182.271 332.263 181.759 332.263 181.225V136.256C332.263 135.722 332.048 135.21 331.667 134.832C331.285 134.455 330.768 134.242 330.229 134.242L147.135 134.242Z" fill="#E6E6E6"/>
<path id="Vector_4" d="M330.229 362.511H147.135C146.236 362.51 145.374 362.156 144.739 361.527C144.103 360.897 143.745 360.044 143.744 359.154V275.913C143.745 275.023 144.103 274.17 144.738 273.54C145.374 272.911 146.236 272.557 147.135 272.556H330.229C331.128 272.557 331.99 272.911 332.625 273.54C333.261 274.17 333.618 275.023 333.619 275.913V359.154C333.618 360.044 333.261 360.897 332.625 361.527C331.99 362.156 331.128 362.51 330.229 362.511V362.511ZM147.135 273.899C146.595 273.899 146.078 274.112 145.697 274.49C145.316 274.867 145.101 275.379 145.1 275.913V359.154C145.101 359.688 145.316 360.2 145.697 360.578C146.078 360.955 146.595 361.168 147.135 361.168H330.229C330.768 361.168 331.285 360.955 331.667 360.578C332.048 360.2 332.263 359.688 332.263 359.154V275.913C332.263 275.379 332.048 274.867 331.667 274.489C331.285 274.112 330.768 273.899 330.229 273.899L147.135 273.899Z" fill="#E6E6E6"/>
<path id="Vector_5" d="M328.873 254.411H247.497C246.598 254.41 245.737 254.056 245.101 253.427C244.465 252.797 244.108 251.944 244.107 251.054V206.085C244.108 205.194 244.465 204.341 245.101 203.712C245.737 203.082 246.598 202.728 247.497 202.727H328.873C329.772 202.728 330.633 203.082 331.269 203.712C331.905 204.341 332.262 205.194 332.263 206.085V251.054C332.262 251.944 331.905 252.797 331.269 253.427C330.633 254.056 329.772 254.41 328.873 254.411V254.411ZM247.497 204.07C246.958 204.071 246.441 204.283 246.059 204.661C245.678 205.038 245.463 205.55 245.463 206.085V251.054C245.463 251.588 245.678 252.1 246.059 252.478C246.441 252.855 246.958 253.068 247.497 253.068H328.873C329.412 253.068 329.929 252.855 330.31 252.478C330.692 252.1 330.906 251.588 330.907 251.054V206.084C330.906 205.55 330.692 205.038 330.31 204.661C329.929 204.283 329.412 204.071 328.873 204.07L247.497 204.07Z" fill="#E6E6E6"/>
<path id="Vector_6" d="M228.51 471.283H147.135C146.236 471.282 145.374 470.928 144.738 470.298C144.103 469.669 143.745 468.816 143.744 467.926V384.013C143.745 383.123 144.103 382.27 144.739 381.641C145.374 381.011 146.236 380.657 147.135 380.656H228.51C229.409 380.657 230.271 381.011 230.906 381.641C231.542 382.27 231.9 383.123 231.901 384.013V467.926C231.9 468.816 231.542 469.669 230.906 470.298C230.271 470.928 229.409 471.282 228.51 471.283V471.283ZM147.135 381.999C146.595 382 146.078 382.212 145.697 382.59C145.316 382.967 145.101 383.479 145.1 384.013V467.926C145.101 468.46 145.316 468.972 145.697 469.349C146.078 469.727 146.595 469.939 147.135 469.94H228.51C229.05 469.939 229.567 469.727 229.948 469.349C230.329 468.972 230.544 468.46 230.545 467.926V384.013C230.544 383.479 230.329 382.967 229.948 382.59C229.567 382.212 229.05 382 228.51 381.999H147.135Z" fill="#E6E6E6"/>
<path id="Vector_7" d="M328.873 471.283H247.497C246.598 471.282 245.737 470.928 245.101 470.298C244.465 469.669 244.108 468.816 244.107 467.926V384.013C244.108 383.123 244.465 382.27 245.101 381.641C245.737 381.011 246.598 380.657 247.497 380.656H328.873C329.772 380.657 330.633 381.011 331.269 381.641C331.905 382.27 332.262 383.123 332.263 384.013V467.926C332.262 468.816 331.905 469.669 331.269 470.298C330.633 470.928 329.772 471.282 328.873 471.283V471.283ZM247.497 381.999C246.958 382 246.441 382.212 246.059 382.59C245.678 382.967 245.463 383.479 245.463 384.013V467.926C245.463 468.46 245.678 468.972 246.059 469.349C246.441 469.727 246.958 469.939 247.497 469.94H328.873C329.412 469.939 329.929 469.727 330.31 469.349C330.692 468.972 330.906 468.46 330.907 467.926V384.013C330.906 383.479 330.692 382.967 330.31 382.59C329.929 382.212 329.412 382 328.873 381.999H247.497Z" fill="#E6E6E6"/>
<path id="Vector_8" d="M174.228 315.719C181.856 315.719 188.039 309.596 188.039 302.044C188.039 294.491 181.856 288.369 174.228 288.369C166.6 288.369 160.416 294.491 160.416 302.044C160.416 309.596 166.6 315.719 174.228 315.719Z" fill="#E6E6E6"/>
<path id="Vector_9" d="M206.126 292.927C205.515 292.927 204.93 293.167 204.498 293.595C204.067 294.022 203.824 294.602 203.824 295.206C203.824 295.811 204.067 296.39 204.498 296.818C204.93 297.245 205.515 297.485 206.126 297.485H314.646C315.255 297.484 315.839 297.243 316.27 296.816C316.7 296.389 316.942 295.81 316.942 295.206C316.942 294.603 316.7 294.024 316.27 293.596C315.839 293.169 315.255 292.928 314.646 292.927H206.126Z" fill="#E6E6E6"/>
<path id="Vector_10" d="M206.126 306.602C205.516 306.602 204.93 306.841 204.498 307.267C204.066 307.694 203.823 308.273 203.821 308.877C203.82 309.481 204.061 310.061 204.491 310.489C204.922 310.917 205.506 311.159 206.116 311.161H252.822C253.433 311.161 254.018 310.921 254.45 310.493C254.882 310.066 255.124 309.486 255.124 308.881C255.124 308.277 254.882 307.697 254.45 307.27C254.018 306.842 253.433 306.602 252.822 306.602H206.126Z" fill="#E6E6E6"/>
<path id="Vector_11" d="M163.634 328.465C161.883 328.465 160.458 329.488 160.458 330.744C160.458 332.001 161.883 333.023 163.634 333.023H313.358C315.109 333.023 316.534 332.001 316.534 330.744C316.534 329.488 315.109 328.465 313.358 328.465H163.634Z" fill="#E6E6E6"/>
<path id="Vector_12" d="M163.634 342.14C161.883 342.14 160.458 343.163 160.458 344.419C160.458 345.676 161.883 346.699 163.634 346.699H313.358C315.109 346.699 316.534 345.676 316.534 344.419C316.534 343.163 315.109 342.14 313.358 342.14H163.634Z" fill="#E6E6E6"/>
<path id="Vector_13" d="M175.584 170.69C183.212 170.69 189.396 164.568 189.396 157.015C189.396 149.462 183.212 143.34 175.584 143.34C167.956 143.34 161.772 149.462 161.772 157.015C161.772 164.568 167.956 170.69 175.584 170.69Z" fill="#E6E6E6"/>
<path id="Vector_14" d="M207.482 147.898C206.873 147.9 206.288 148.14 205.858 148.568C205.427 148.995 205.186 149.574 205.186 150.177C205.186 150.781 205.427 151.36 205.858 151.787C206.288 152.214 206.873 152.455 207.482 152.457H316.002C316.304 152.458 316.604 152.399 316.884 152.286C317.164 152.172 317.418 152.005 317.633 151.793C317.847 151.582 318.017 151.331 318.134 151.055C318.25 150.778 318.311 150.482 318.311 150.182C318.312 149.883 318.253 149.586 318.138 149.309C318.022 149.032 317.853 148.78 317.64 148.568C317.426 148.356 317.172 148.188 316.893 148.073C316.614 147.958 316.314 147.899 316.012 147.898C316.008 147.898 316.005 147.898 316.002 147.898H207.482Z" fill="#E6E6E6"/>
<path id="Vector_15" d="M207.482 161.573C206.872 161.574 206.288 161.815 205.857 162.242C205.426 162.67 205.184 163.249 205.184 163.853C205.184 164.457 205.426 165.036 205.857 165.463C206.288 165.89 206.872 166.131 207.482 166.132H254.179C254.789 166.133 255.375 165.894 255.808 165.468C256.24 165.041 256.484 164.462 256.485 163.857C256.487 163.253 256.245 162.673 255.815 162.244C255.384 161.816 254.799 161.575 254.188 161.573C254.185 161.573 254.182 161.573 254.179 161.573H207.482Z" fill="#E6E6E6"/>
<path id="Vector_16" d="M228.438 254.419H152.101L170.066 223.61C170.388 223.058 170.851 222.599 171.408 222.281C171.966 221.962 172.599 221.794 173.243 221.794C173.887 221.794 174.519 221.962 175.077 222.281C175.635 222.599 176.098 223.058 176.42 223.61L184.094 236.771L197.143 214.393C197.546 213.702 198.126 213.128 198.824 212.729C199.522 212.329 200.314 212.119 201.121 212.119C201.927 212.119 202.719 212.329 203.417 212.729C204.115 213.128 204.695 213.702 205.098 214.393L228.438 254.419ZM154.45 253.076H226.089L203.924 215.065C203.64 214.577 203.231 214.173 202.739 213.891C202.247 213.61 201.689 213.462 201.121 213.462C200.553 213.462 199.994 213.61 199.502 213.891C199.01 214.173 198.602 214.577 198.318 215.065L184.094 239.457L175.245 224.282C175.042 223.934 174.75 223.645 174.399 223.444C174.047 223.243 173.649 223.137 173.243 223.137C172.837 223.137 172.438 223.243 172.087 223.444C171.735 223.645 171.443 223.934 171.241 224.282L154.45 253.076Z" fill="#E6E6E6"/>
<path id="Vector_17" d="M326.088 254.419H249.751L267.716 223.61C268.038 223.058 268.501 222.599 269.058 222.281C269.616 221.962 270.249 221.794 270.893 221.794C271.537 221.794 272.169 221.962 272.727 222.281C273.285 222.599 273.748 223.058 274.07 223.61L281.744 236.771L294.793 214.393C295.196 213.702 295.776 213.128 296.474 212.729C297.172 212.329 297.964 212.119 298.771 212.119C299.577 212.119 300.369 212.329 301.067 212.729C301.765 213.128 302.345 213.702 302.748 214.393L326.088 254.419ZM252.1 253.076H323.739L301.574 215.065C301.29 214.577 300.881 214.173 300.389 213.891C299.897 213.61 299.339 213.462 298.771 213.462C298.203 213.462 297.644 213.61 297.152 213.891C296.66 214.173 296.252 214.577 295.968 215.065L281.744 239.457L272.895 224.282C272.692 223.934 272.4 223.645 272.049 223.444C271.697 223.243 271.299 223.137 270.893 223.137C270.487 223.137 270.088 223.243 269.737 223.444C269.385 223.645 269.093 223.934 268.891 224.282L252.1 253.076Z" fill="#E6E6E6"/>
<path id="Vector_18" d="M228.51 254.411H147.135C146.236 254.41 145.374 254.056 144.738 253.427C144.103 252.797 143.745 251.944 143.744 251.054V206.085C143.745 205.194 144.103 204.341 144.738 203.712C145.374 203.082 146.236 202.728 147.135 202.727H228.51C229.409 202.728 230.271 203.082 230.906 203.712C231.542 204.341 231.9 205.194 231.901 206.085V251.054C231.9 251.944 231.542 252.797 230.906 253.427C230.271 254.056 229.409 254.41 228.51 254.411V254.411ZM147.135 204.07C146.595 204.071 146.078 204.283 145.697 204.661C145.316 205.038 145.101 205.55 145.1 206.085V251.054C145.101 251.588 145.316 252.1 145.697 252.478C146.078 252.855 146.595 253.068 147.135 253.068H228.51C229.05 253.068 229.567 252.855 229.948 252.478C230.329 252.1 230.544 251.588 230.545 251.054V206.084C230.544 205.55 230.329 205.038 229.948 204.661C229.567 204.283 229.05 204.071 228.51 204.07L147.135 204.07Z" fill="#E6E6E6"/>
<path id="Vector_19" d="M164.474 397.96C164.172 397.96 163.872 398.019 163.592 398.133C163.312 398.247 163.058 398.415 162.844 398.627C162.63 398.838 162.46 399.09 162.344 399.367C162.228 399.643 162.169 399.94 162.169 400.24C162.169 400.539 162.228 400.836 162.344 401.113C162.46 401.39 162.63 401.641 162.844 401.853C163.058 402.064 163.312 402.232 163.592 402.346C163.872 402.461 164.172 402.519 164.474 402.519H211.171C211.473 402.519 211.773 402.461 212.053 402.346C212.332 402.232 212.587 402.064 212.801 401.853C213.015 401.641 213.185 401.39 213.301 401.113C213.417 400.836 213.476 400.539 213.476 400.24C213.476 399.94 213.417 399.643 213.301 399.367C213.185 399.09 213.015 398.838 212.801 398.627C212.587 398.415 212.332 398.247 212.053 398.133C211.773 398.019 211.473 397.96 211.171 397.96H164.474Z" fill="#E6E6E6"/>
<path id="Vector_20" d="M164.474 411.389C163.864 411.389 163.278 411.629 162.847 412.057C162.415 412.484 162.172 413.064 162.172 413.668C162.172 414.273 162.415 414.852 162.847 415.28C163.278 415.707 163.864 415.947 164.474 415.947H211.171C211.781 415.947 212.367 415.707 212.798 415.28C213.23 414.852 213.473 414.273 213.473 413.668C213.473 413.064 213.23 412.484 212.798 412.057C212.367 411.629 211.781 411.389 211.171 411.389H164.474Z" fill="#E6E6E6"/>
<path id="Vector_21" d="M187.823 453.978C184.957 453.978 182.155 453.137 179.773 451.561C177.39 449.984 175.533 447.744 174.436 445.122C173.339 442.501 173.052 439.616 173.611 436.833C174.171 434.05 175.551 431.494 177.577 429.487C179.603 427.481 182.185 426.115 184.996 425.561C187.807 425.007 190.72 425.292 193.368 426.377C196.015 427.463 198.278 429.302 199.87 431.661C201.462 434.021 202.312 436.794 202.312 439.632C202.308 443.436 200.78 447.082 198.064 449.772C195.347 452.461 191.664 453.974 187.823 453.978V453.978ZM187.823 426.628C185.225 426.628 182.686 427.391 180.526 428.82C178.366 430.249 176.683 432.279 175.689 434.656C174.695 437.032 174.435 439.646 174.942 442.169C175.448 444.691 176.699 447.008 178.536 448.827C180.373 450.646 182.713 451.884 185.26 452.386C187.808 452.888 190.449 452.63 192.849 451.646C195.248 450.662 197.3 448.995 198.743 446.856C200.186 444.718 200.956 442.204 200.956 439.632C200.952 436.184 199.567 432.879 197.105 430.441C194.643 428.004 191.305 426.632 187.823 426.628V426.628Z" fill="#E6E6E6"/>
<path id="Vector_22" d="M311.533 453.979C311.836 453.979 312.136 453.92 312.415 453.806C312.695 453.692 312.949 453.524 313.163 453.312C313.378 453.101 313.547 452.849 313.663 452.572C313.779 452.296 313.839 451.999 313.839 451.699C313.839 451.4 313.779 451.103 313.663 450.826C313.547 450.549 313.378 450.298 313.163 450.086C312.949 449.875 312.695 449.707 312.415 449.593C312.136 449.478 311.836 449.42 311.533 449.42H264.837C264.227 449.421 263.642 449.662 263.211 450.089C262.781 450.516 262.539 451.096 262.539 451.699C262.539 452.303 262.781 452.882 263.211 453.31C263.642 453.737 264.227 453.978 264.837 453.979H311.533Z" fill="#E6E6E6"/>
<path id="Vector_23" d="M311.533 440.55C311.836 440.55 312.136 440.492 312.415 440.378C312.695 440.263 312.949 440.095 313.163 439.884C313.378 439.672 313.547 439.421 313.663 439.144C313.779 438.867 313.839 438.57 313.839 438.271C313.839 437.971 313.779 437.674 313.663 437.398C313.547 437.121 313.378 436.869 313.163 436.658C312.949 436.446 312.695 436.278 312.415 436.164C312.136 436.05 311.836 435.991 311.533 435.992H264.837C264.226 435.992 263.641 436.232 263.209 436.659C262.777 437.087 262.535 437.666 262.535 438.271C262.535 438.875 262.777 439.455 263.209 439.882C263.641 440.31 264.226 440.55 264.837 440.55H311.533Z" fill="#E6E6E6"/>
<path id="Vector_24" d="M288.185 397.96C291.051 397.96 293.852 398.802 296.235 400.378C298.618 401.955 300.475 404.195 301.571 406.817C302.668 409.438 302.955 412.323 302.396 415.106C301.837 417.889 300.457 420.445 298.431 422.452C296.404 424.458 293.822 425.824 291.012 426.378C288.201 426.932 285.288 426.647 282.64 425.562C279.992 424.476 277.729 422.637 276.137 420.278C274.545 417.918 273.695 415.145 273.695 412.307V412.307C273.7 408.503 275.227 404.857 277.944 402.167C280.66 399.478 284.343 397.965 288.185 397.96V397.96ZM288.185 425.311C290.782 425.311 293.322 424.548 295.481 423.119C297.641 421.69 299.324 419.66 300.319 417.283C301.313 414.907 301.573 412.293 301.066 409.77C300.559 407.248 299.308 404.931 297.472 403.112C295.635 401.293 293.295 400.055 290.747 399.553C288.199 399.051 285.559 399.309 283.159 400.293C280.759 401.277 278.708 402.944 277.265 405.083C275.822 407.221 275.051 409.735 275.051 412.307V412.307C275.056 415.755 276.44 419.06 278.903 421.498C281.365 423.935 284.703 425.307 288.185 425.311V425.311Z" fill="#E6E6E6"/>
<path id="Vector_25" opacity="0.3" d="M265.988 215.741C284.931 215.741 300.287 200.537 300.287 181.781C300.287 163.026 284.931 147.822 265.988 147.822C247.046 147.822 231.69 163.026 231.69 181.781C231.69 200.537 247.046 215.741 265.988 215.741Z" fill="#FFC336"/>
<path id="Vector_26" opacity="0.3" d="M265.988 204.421C278.617 204.421 288.854 194.285 288.854 181.781C288.854 169.278 278.617 159.142 265.988 159.142C253.36 159.142 243.123 169.278 243.123 181.781C243.123 194.285 253.36 204.421 265.988 204.421Z" fill="#FFC336"/>
<path id="Vector_27" d="M265.988 197.503C274.758 197.503 281.867 190.464 281.867 181.781C281.867 173.098 274.758 166.059 265.988 166.059C257.219 166.059 250.11 173.098 250.11 181.781C250.11 190.464 257.219 197.503 265.988 197.503Z" fill="#FFC336"/>
<path id="Vector_28" opacity="0.3" d="M187.865 436.429C201.868 436.429 213.221 425.188 213.221 411.323C213.221 397.457 201.868 386.217 187.865 386.217C173.861 386.217 162.509 397.457 162.509 411.323C162.509 425.188 173.861 436.429 187.865 436.429Z" fill="#FFC336"/>
<path id="Vector_29" opacity="0.3" d="M187.865 428.06C197.2 428.06 204.769 420.567 204.769 411.323C204.769 402.079 197.2 394.586 187.865 394.586C178.529 394.586 170.961 402.079 170.961 411.323C170.961 420.567 178.529 428.06 187.865 428.06Z" fill="#FFC336"/>
<path id="Vector_30" d="M187.865 422.946C194.348 422.946 199.604 417.742 199.604 411.323C199.604 404.904 194.348 399.7 187.865 399.7C181.381 399.7 176.126 404.904 176.126 411.323C176.126 417.742 181.381 422.946 187.865 422.946Z" fill="#FFC336"/>
<path id="Vector_31" opacity="0.3" d="M293.3 342.097C309.408 342.097 322.467 329.167 322.467 313.217C322.467 297.268 309.408 284.338 293.3 284.338C277.191 284.338 264.133 297.268 264.133 313.217C264.133 329.167 277.191 342.097 293.3 342.097Z" fill="#FFC336"/>
<path id="Vector_32" opacity="0.3" d="M293.3 332.47C304.039 332.47 312.745 323.85 312.745 313.217C312.745 302.585 304.039 293.965 293.3 293.965C282.561 293.965 273.855 302.585 273.855 313.217C273.855 323.85 282.561 332.47 293.3 332.47Z" fill="#FFC336"/>
<path id="Vector_33" d="M293.3 326.587C300.758 326.587 306.803 320.602 306.803 313.218C306.803 305.834 300.758 299.848 293.3 299.848C285.842 299.848 279.797 305.834 279.797 313.218C279.797 320.602 285.842 326.587 293.3 326.587Z" fill="#FFC336"/>
</g>
<g id="guy">
<path id="Vector_34" d="M404.563 293.341L396.379 307.03C395.569 308.384 394.455 309.535 393.123 310.392C391.79 311.25 390.276 311.792 388.698 311.975C387.12 312.158 385.52 311.978 384.023 311.449C382.527 310.919 381.174 310.055 380.07 308.923V308.923C379.043 307.87 378.256 306.61 377.764 305.229C377.271 303.849 377.083 302.379 377.214 300.921C377.345 299.462 377.79 298.049 378.521 296.775C379.251 295.502 380.25 294.399 381.448 293.541L394.76 284.012C407.542 266.88 414.886 237.763 421.145 206.252L447.154 209.272C440.45 235.045 424.42 263.619 404.563 293.341Z" fill="#FFB8B8"/>
<path id="Vector_35" d="M494.267 477.327L478.486 476.702C473.303 423.891 466.686 375.931 453.236 351.073C440.21 364.887 437.251 408.531 435.071 467.952H419.779C403.703 399.474 399.644 350.922 419.779 304.821H501.842L494.267 477.327Z" fill="#272727"/>
<path id="Vector_36" d="M436.024 478.542L408.632 492.398C407.898 492.769 407.096 492.987 406.274 493.039C405.453 493.091 404.629 492.976 403.853 492.701C403.078 492.426 402.368 491.997 401.767 491.44C401.166 490.882 400.686 490.209 400.358 489.461V489.461C399.775 488.134 399.699 486.642 400.144 485.264C400.589 483.885 401.524 482.713 402.776 481.966L406.511 479.738L416.911 464.343L434.637 462.957L437.88 466.034C438.782 466.89 439.465 467.948 439.87 469.118C440.275 470.289 440.392 471.538 440.21 472.762C440.029 473.987 439.554 475.15 438.826 476.155C438.097 477.161 437.137 477.979 436.024 478.542Z" fill="#272727"/>
<path id="Vector_37" d="M491.687 491.526L460.94 492.382C460.117 492.405 459.298 492.26 458.533 491.958C457.768 491.655 457.074 491.201 456.494 490.623C455.913 490.044 455.458 489.354 455.157 488.595C454.856 487.836 454.716 487.025 454.744 486.21C454.793 484.763 455.372 483.384 456.372 482.328C457.372 481.273 458.725 480.613 460.18 480.471L464.52 480.048L480.593 470.573L497.2 476.864L498.792 481.022C499.236 482.179 499.393 483.424 499.251 484.653C499.109 485.883 498.672 487.061 497.976 488.089C497.281 489.117 496.347 489.965 495.253 490.563C494.159 491.161 492.936 491.491 491.687 491.526V491.526Z" fill="#272727"/>
<path id="Vector_38" d="M460.426 140.668C471.823 140.668 481.063 131.52 481.063 120.235C481.063 108.949 471.823 99.8008 460.426 99.8008C449.028 99.8008 439.788 108.949 439.788 120.235C439.788 131.52 449.028 140.668 460.426 140.668Z" fill="#FFB8B8"/>
<path id="Vector_39" d="M494.267 152.94L451.342 169.191C453.842 155.847 453.873 143.276 449.764 132.002L477.223 127.314C474.919 139.035 482.057 146.997 494.267 152.94Z" fill="#FFB8B8"/>
<path id="Vector_40" d="M524.568 307.946L523.444 323.889C523.239 326.795 521.882 329.502 519.668 331.419C517.454 333.337 514.563 334.309 511.628 334.124V334.124C509.704 334.002 507.846 333.388 506.234 332.342C504.622 331.296 503.311 329.854 502.431 328.156C501.551 326.458 501.131 324.563 501.212 322.657C501.294 320.75 501.873 318.897 502.895 317.279L511.942 302.946C517.288 282.314 513.048 252.598 506.893 221.068L532.143 214.192C535.708 240.571 531.693 273.015 524.568 307.946Z" fill="#FFB8B8"/>
<path id="Vector_41" d="M484.05 106.959C484.05 106.959 487.908 98.5552 477.877 94.7353C477.877 94.7353 469.389 80.9836 452.414 90.1514C452.414 90.1514 440.84 94.7353 440.84 106.959C440.84 119.183 436.982 121.475 436.982 121.475C436.982 121.475 442.727 115.639 444.271 111.055C445.814 106.471 457.815 105.431 462.445 110.015C467.075 114.599 478.649 113.835 478.649 113.835L477.877 130.643C477.877 130.643 481.735 120.711 483.278 120.711C484.821 120.711 486.365 106.959 484.05 106.959Z" fill="#272727"/>
<g id="shirt">
<path id="Vector_42" d="M407.785 215.442L450.079 227.318V154.19L444.465 155.989C439.56 157.56 435.104 160.264 431.464 163.877C427.823 167.491 425.103 171.91 423.529 176.77L407.785 215.442Z" fill="#D34E24"/>
<path id="Vector_43" d="M511.942 316.696C474.162 323.798 443.739 319.242 419.148 305.446C430.522 266.644 432.139 223.714 429.162 178.838C428.869 174.351 429.991 169.884 432.374 166.057C434.757 162.229 438.283 159.229 442.464 157.473L453.236 152.94C459.044 166.008 472.43 158.477 486.692 148.565L504.316 156.275C507.114 157.499 509.469 159.539 511.063 162.124C512.658 164.708 513.417 167.714 513.239 170.737C509.716 230.348 504.98 294.258 511.942 316.696Z" fill="#D34E24"/>
<path id="Vector_44" d="M540.98 214.817L498.686 226.693V153.565L504.301 155.364C509.205 156.935 513.661 159.639 517.302 163.252C520.942 166.866 523.662 171.285 525.236 176.145L540.98 214.817Z" fill="#D34E24"/>
</g>
</g>
</g>
</svg>
