<svg width="468" height="360" viewBox="0 0 468 360" fill="none" xmlns="http://www.w3.org/2000/svg">
<path d="M89.0264 63.9876C85.5366 63.9916 82.1916 65.3656 79.7241 67.8091C77.2567 70.2519 75.8692 73.5639 75.8647 77.0193V314.883C75.8692 318.338 77.2567 321.65 79.7241 324.093C82.1916 326.536 85.5366 327.91 89.0264 327.914H220.615C224.104 327.91 227.45 326.536 229.917 324.093C232.384 321.65 233.772 318.337 233.776 314.883V77.0193C233.772 73.5639 232.384 70.2519 229.917 67.8091C227.45 65.3656 224.104 63.9916 220.615 63.9876H89.0264Z" fill="#272727"/>
<path d="M93.3276 71.3916C90.6804 71.3942 88.1423 72.4372 86.2703 74.2904C84.3989 76.1442 83.3455 78.6571 83.3429 81.2783V310.623C83.3455 313.244 84.3983 315.758 86.2703 317.611C88.1423 319.465 90.6804 320.507 93.3276 320.51H216.313C218.961 320.507 221.499 319.465 223.371 317.611C225.243 315.758 226.296 313.244 226.299 310.623V81.2783C226.296 78.6571 225.243 76.1442 223.371 74.2904C221.499 72.4372 218.961 71.3942 216.313 71.3916H93.3276Z" fill="white"/>
<path d="M214.203 119.729H95.4389C94.8558 119.728 94.2967 119.499 93.8841 119.091C93.4722 118.683 93.24 118.129 93.2394 117.551V88.3823C93.24 87.805 93.4722 87.251 93.8841 86.843C94.2967 86.435 94.8558 86.2054 95.4389 86.2048H214.203C214.786 86.2054 215.345 86.435 215.757 86.843C216.169 87.251 216.401 87.805 216.402 88.3823V117.551C216.401 118.129 216.169 118.683 215.757 119.091C215.345 119.499 214.786 119.728 214.203 119.729ZM95.4389 87.0759C95.0886 87.0759 94.7533 87.2141 94.5062 87.4586C94.259 87.7038 94.1196 88.0359 94.1189 88.3823V117.551C94.1196 117.898 94.259 118.23 94.5062 118.475C94.7533 118.72 95.0886 118.858 95.4389 118.858H214.203C214.552 118.858 214.888 118.72 215.135 118.475C215.383 118.23 215.522 117.898 215.522 117.551V88.3823C215.522 88.0359 215.383 87.7038 215.135 87.4586C214.888 87.2141 214.552 87.0759 214.203 87.0759H95.4389Z" fill="#E6E6E6"/>
<path d="M214.203 235.142H95.4389C94.8558 235.142 94.2967 234.912 93.8848 234.504C93.4722 234.095 93.24 233.542 93.2394 232.965V178.971C93.24 178.393 93.4722 177.84 93.8841 177.431C94.2967 177.023 94.8558 176.794 95.4389 176.793H214.203C214.786 176.794 215.345 177.023 215.757 177.431C216.169 177.84 216.401 178.393 216.402 178.971V232.965C216.401 233.542 216.169 234.095 215.757 234.504C215.345 234.912 214.786 235.142 214.203 235.142ZM95.4389 177.664C95.0886 177.664 94.7533 177.802 94.5062 178.048C94.259 178.292 94.1196 178.624 94.1189 178.971V232.965C94.1196 233.311 94.259 233.643 94.5062 233.888C94.7533 234.133 95.0886 234.271 95.4389 234.271H214.203C214.552 234.271 214.888 234.133 215.135 233.888C215.382 233.643 215.522 233.311 215.522 232.965V178.971C215.522 178.624 215.382 178.292 215.135 178.047C214.888 177.802 214.552 177.664 214.203 177.664H95.4389Z" fill="#E6E6E6"/>
<path d="M213.323 165.023H160.539C159.955 165.023 159.397 164.793 158.984 164.385C158.572 163.976 158.34 163.423 158.34 162.846V133.677C158.34 133.099 158.572 132.546 158.984 132.138C159.397 131.729 159.955 131.499 160.539 131.499H213.323C213.906 131.499 214.465 131.729 214.877 132.138C215.29 132.546 215.521 133.099 215.522 133.677V162.846C215.521 163.423 215.29 163.976 214.877 164.385C214.465 164.793 213.906 165.023 213.323 165.023ZM160.539 132.37C160.189 132.37 159.854 132.508 159.606 132.753C159.359 132.998 159.219 133.33 159.219 133.677V162.846C159.219 163.192 159.359 163.524 159.606 163.77C159.854 164.014 160.189 164.152 160.539 164.152H213.323C213.673 164.152 214.008 164.014 214.255 163.77C214.503 163.524 214.642 163.192 214.642 162.846V133.676C214.642 133.33 214.503 132.998 214.255 132.753C214.008 132.508 213.673 132.37 213.323 132.37H160.539Z" fill="#E6E6E6"/>
<path d="M148.223 305.697H95.4389C94.8558 305.696 94.2967 305.467 93.8841 305.058C93.4722 304.65 93.24 304.097 93.2394 303.52V249.09C93.24 248.512 93.4722 247.959 93.8848 247.551C94.2967 247.142 94.8558 246.913 95.4389 246.912H148.223C148.806 246.913 149.365 247.142 149.777 247.551C150.189 247.959 150.422 248.512 150.422 249.09V303.52C150.422 304.097 150.189 304.65 149.777 305.058C149.365 305.467 148.806 305.696 148.223 305.697ZM95.4389 247.783C95.0886 247.784 94.7533 247.921 94.5062 248.166C94.259 248.411 94.1196 248.743 94.1189 249.09V303.52C94.1196 303.866 94.259 304.198 94.5062 304.443C94.7533 304.688 95.0886 304.825 95.4389 304.826H148.223C148.573 304.825 148.908 304.688 149.155 304.443C149.403 304.198 149.542 303.866 149.543 303.52V249.09C149.542 248.743 149.403 248.411 149.155 248.166C148.908 247.921 148.573 247.784 148.223 247.783H95.4389Z" fill="#E6E6E6"/>
<path d="M213.323 305.697H160.539C159.955 305.696 159.397 305.467 158.984 305.058C158.572 304.65 158.34 304.097 158.34 303.52V249.09C158.34 248.512 158.572 247.959 158.984 247.551C159.397 247.142 159.955 246.913 160.539 246.912H213.323C213.906 246.913 214.465 247.142 214.877 247.551C215.29 247.959 215.521 248.512 215.522 249.09V303.52C215.521 304.097 215.29 304.65 214.877 305.058C214.465 305.467 213.906 305.696 213.323 305.697ZM160.539 247.783C160.189 247.784 159.854 247.921 159.606 248.166C159.359 248.411 159.219 248.743 159.219 249.09V303.52C159.219 303.866 159.359 304.198 159.606 304.443C159.854 304.688 160.189 304.825 160.539 304.826H213.323C213.673 304.825 214.008 304.688 214.255 304.443C214.503 304.198 214.642 303.866 214.642 303.52V249.09C214.642 248.743 214.503 248.411 214.255 248.166C214.008 247.921 213.673 247.784 213.323 247.783H160.539Z" fill="#E6E6E6"/>
<path d="M113.013 204.791C117.961 204.791 121.971 200.819 121.971 195.92C121.971 191.021 117.961 187.05 113.013 187.05C108.065 187.05 104.054 191.021 104.054 195.92C104.054 200.819 108.065 204.791 113.013 204.791Z" fill="#E6E6E6"/>
<path d="M133.703 190.007C133.307 190.007 132.928 190.162 132.647 190.44C132.368 190.717 132.21 191.093 132.21 191.485C132.21 191.877 132.368 192.253 132.647 192.531C132.928 192.808 133.307 192.963 133.703 192.963H204.095C204.49 192.963 204.869 192.806 205.148 192.529C205.427 192.252 205.584 191.877 205.584 191.485C205.584 191.094 205.427 190.718 205.148 190.441C204.869 190.164 204.49 190.007 204.095 190.007H133.703Z" fill="#E6E6E6"/>
<path d="M133.703 198.877C133.308 198.877 132.928 199.032 132.647 199.308C132.367 199.585 132.21 199.961 132.208 200.353C132.208 200.744 132.364 201.121 132.643 201.398C132.922 201.676 133.301 201.833 133.697 201.834H163.993C164.389 201.834 164.768 201.678 165.049 201.401C165.329 201.124 165.486 200.748 165.486 200.355C165.486 199.963 165.329 199.587 165.049 199.31C164.768 199.033 164.389 198.877 163.993 198.877H133.703Z" fill="#E6E6E6"/>
<path d="M106.141 213.058C105.005 213.058 104.081 213.722 104.081 214.537C104.081 215.352 105.005 216.015 106.141 216.015H203.259C204.395 216.015 205.319 215.352 205.319 214.537C205.319 213.722 204.395 213.058 203.259 213.058H106.141Z" fill="#E6E6E6"/>
<path d="M106.141 221.929C105.005 221.929 104.081 222.592 104.081 223.407C104.081 224.222 105.005 224.886 106.141 224.886H203.259C204.395 224.886 205.319 224.222 205.319 223.407C205.319 222.592 204.395 221.929 203.259 221.929H106.141Z" fill="#E6E6E6"/>
<path d="M113.892 110.718C118.84 110.718 122.851 106.747 122.851 101.848C122.851 96.9483 118.84 92.9773 113.892 92.9773C108.944 92.9773 104.933 96.9483 104.933 101.848C104.933 106.747 108.944 110.718 113.892 110.718Z" fill="#E6E6E6"/>
<path d="M134.583 95.9338C134.188 95.9351 133.808 96.0908 133.53 96.3684C133.25 96.6454 133.094 97.021 133.094 97.4121C133.094 97.8039 133.25 98.1795 133.53 98.4564C133.808 98.7334 134.188 98.8897 134.583 98.891H204.974C205.17 98.8917 205.365 98.8534 205.546 98.7801C205.728 98.7062 205.893 98.5978 206.032 98.4603C206.171 98.3235 206.281 98.1606 206.357 97.9816C206.432 97.8019 206.472 97.61 206.472 97.4154C206.473 97.2214 206.434 97.0288 206.36 96.8491C206.285 96.6694 206.175 96.5059 206.037 96.3684C205.898 96.2309 205.733 96.1219 205.552 96.0474C205.371 95.9728 205.177 95.9345 204.981 95.9338C204.978 95.9338 204.976 95.9338 204.974 95.9338H134.583Z" fill="#E6E6E6"/>
<path d="M134.583 104.804C134.187 104.805 133.808 104.961 133.529 105.238C133.249 105.516 133.092 105.891 133.092 106.283C133.092 106.675 133.249 107.05 133.529 107.327C133.808 107.604 134.187 107.761 134.583 107.761H164.873C165.269 107.762 165.649 107.607 165.93 107.331C166.21 107.054 166.368 106.678 166.369 106.286C166.37 105.894 166.213 105.518 165.934 105.239C165.655 104.962 165.275 104.805 164.879 104.804C164.877 104.804 164.875 104.804 164.873 104.804H134.583Z" fill="#E6E6E6"/>
<path d="M148.176 165.029H98.6601L110.313 145.044C110.522 144.686 110.822 144.389 111.184 144.182C111.546 143.975 111.956 143.866 112.374 143.866C112.792 143.866 113.202 143.975 113.563 144.182C113.925 144.389 114.226 144.686 114.435 145.044L119.412 153.581L127.877 139.066C128.138 138.618 128.514 138.245 128.967 137.986C129.42 137.727 129.933 137.591 130.457 137.591C130.98 137.591 131.493 137.727 131.946 137.986C132.399 138.245 132.775 138.618 133.037 139.066L148.176 165.029ZM100.184 164.157H146.652L132.275 139.502C132.091 139.185 131.826 138.923 131.506 138.74C131.187 138.558 130.825 138.462 130.457 138.462C130.088 138.462 129.726 138.558 129.407 138.74C129.088 138.923 128.823 139.185 128.639 139.502L119.412 155.323L113.672 145.48C113.541 145.255 113.351 145.067 113.124 144.937C112.895 144.806 112.637 144.738 112.374 144.738C112.11 144.738 111.852 144.806 111.624 144.937C111.396 145.067 111.206 145.255 111.075 145.48L100.184 164.157Z" fill="#E6E6E6"/>
<path d="M211.517 165.029H162.001L173.654 145.044C173.862 144.686 174.163 144.389 174.524 144.182C174.886 143.975 175.297 143.866 175.714 143.866C176.132 143.866 176.542 143.975 176.904 144.182C177.266 144.389 177.566 144.686 177.775 145.044L182.753 153.581L191.217 139.066C191.478 138.618 191.855 138.245 192.307 137.986C192.76 137.727 193.274 137.591 193.797 137.591C194.32 137.591 194.834 137.727 195.287 137.986C195.739 138.245 196.116 138.618 196.377 139.066L211.517 165.029ZM163.524 164.157H209.993L195.616 139.502C195.431 139.185 195.166 138.923 194.847 138.74C194.528 138.558 194.166 138.462 193.797 138.462C193.429 138.462 193.066 138.558 192.747 138.74C192.428 138.923 192.163 139.185 191.979 139.502L182.753 155.323L177.013 145.48C176.881 145.255 176.692 145.067 176.464 144.937C176.236 144.806 175.978 144.738 175.714 144.738C175.451 144.738 175.192 144.806 174.965 144.937C174.736 145.067 174.547 145.255 174.416 145.48L163.524 164.157Z" fill="#E6E6E6"/>
<path d="M148.223 165.023H95.4389C94.8558 165.023 94.2967 164.793 93.8841 164.385C93.4722 163.976 93.24 163.423 93.2394 162.846V133.677C93.24 133.099 93.4722 132.546 93.8841 132.138C94.2967 131.729 94.8558 131.499 95.4389 131.499H148.223C148.806 131.499 149.365 131.729 149.777 132.138C150.189 132.546 150.422 133.099 150.422 133.677V162.846C150.422 163.423 150.189 163.976 149.777 164.385C149.365 164.793 148.806 165.023 148.223 165.023ZM95.4389 132.37C95.0886 132.37 94.7533 132.508 94.5062 132.753C94.259 132.998 94.1196 133.33 94.1189 133.677V162.846C94.1196 163.192 94.259 163.524 94.5062 163.77C94.7533 164.014 95.0886 164.152 95.4389 164.152H148.223C148.573 164.152 148.908 164.014 149.155 163.77C149.403 163.524 149.542 163.192 149.543 162.846V133.676C149.542 133.33 149.403 132.998 149.155 132.753C148.908 132.508 148.573 132.37 148.223 132.37H95.4389Z" fill="#E6E6E6"/>
<path d="M106.686 258.136C106.49 258.136 106.295 258.174 106.114 258.248C105.932 258.322 105.767 258.431 105.629 258.569C105.49 258.706 105.379 258.869 105.304 259.049C105.229 259.228 105.191 259.42 105.191 259.615C105.191 259.809 105.229 260.002 105.304 260.181C105.379 260.361 105.49 260.524 105.629 260.661C105.767 260.798 105.932 260.907 106.114 260.981C106.295 261.056 106.49 261.093 106.686 261.093H136.976C137.172 261.093 137.366 261.056 137.548 260.981C137.729 260.907 137.894 260.798 138.033 260.661C138.172 260.524 138.282 260.361 138.357 260.181C138.433 260.002 138.471 259.809 138.471 259.615C138.471 259.42 138.433 259.228 138.357 259.049C138.282 258.869 138.172 258.706 138.033 258.569C137.894 258.431 137.729 258.322 137.548 258.248C137.366 258.174 137.172 258.136 136.976 258.136H106.686Z" fill="#E6E6E6"/>
<path d="M106.686 266.847C106.29 266.847 105.91 267.003 105.63 267.28C105.35 267.557 105.193 267.933 105.193 268.325C105.193 268.718 105.35 269.093 105.63 269.371C105.91 269.648 106.29 269.803 106.686 269.803H136.976C137.371 269.803 137.752 269.648 138.031 269.371C138.311 269.093 138.469 268.718 138.469 268.325C138.469 267.933 138.311 267.557 138.031 267.28C137.752 267.003 137.371 266.847 136.976 266.847H106.686Z" fill="#E6E6E6"/>
<path d="M121.831 294.472C119.972 294.472 118.155 293.927 116.61 292.904C115.064 291.882 113.859 290.429 113.148 288.728C112.436 287.028 112.25 285.156 112.613 283.351C112.976 281.546 113.871 279.888 115.185 278.586C116.499 277.285 118.174 276.399 119.997 276.04C121.821 275.68 123.71 275.865 125.428 276.569C127.145 277.273 128.613 278.466 129.645 279.996C130.678 281.527 131.229 283.326 131.229 285.167C131.227 287.634 130.236 289.999 128.474 291.744C126.712 293.488 124.323 294.47 121.831 294.472ZM121.831 276.732C120.146 276.732 118.499 277.227 117.098 278.154C115.697 279.08 114.605 280.397 113.96 281.939C113.316 283.48 113.147 285.176 113.476 286.812C113.804 288.448 114.616 289.951 115.807 291.131C116.999 292.311 118.517 293.114 120.169 293.44C121.821 293.765 123.534 293.598 125.091 292.96C126.647 292.321 127.978 291.24 128.914 289.853C129.85 288.466 130.35 286.835 130.35 285.167C130.347 282.93 129.449 280.786 127.852 279.205C126.255 277.624 124.09 276.734 121.831 276.732Z" fill="#E6E6E6"/>
<path d="M202.075 294.473C202.272 294.473 202.467 294.435 202.648 294.361C202.829 294.287 202.994 294.178 203.133 294.04C203.272 293.903 203.382 293.74 203.457 293.56C203.532 293.381 203.571 293.189 203.571 292.994C203.571 292.8 203.532 292.607 203.457 292.428C203.382 292.248 203.272 292.085 203.133 291.948C202.994 291.811 202.829 291.702 202.648 291.628C202.467 291.553 202.272 291.516 202.075 291.516H171.786C171.39 291.516 171.011 291.673 170.731 291.95C170.453 292.227 170.296 292.603 170.296 292.994C170.296 293.386 170.453 293.761 170.731 294.039C171.011 294.316 171.39 294.472 171.786 294.473H202.075Z" fill="#E6E6E6"/>
<path d="M202.075 285.762C202.272 285.762 202.467 285.725 202.648 285.651C202.829 285.576 202.994 285.467 203.133 285.33C203.272 285.193 203.382 285.03 203.457 284.85C203.532 284.671 203.571 284.478 203.571 284.284C203.571 284.089 203.532 283.897 203.457 283.718C203.382 283.538 203.272 283.374 203.133 283.238C202.994 283.1 202.829 282.991 202.648 282.917C202.467 282.843 202.272 282.805 202.075 282.806H171.786C171.39 282.806 171.01 282.961 170.73 283.238C170.45 283.516 170.293 283.891 170.293 284.284C170.293 284.676 170.45 285.052 170.73 285.329C171.01 285.607 171.39 285.762 171.786 285.762H202.075Z" fill="#E6E6E6"/>
<path d="M186.931 258.136C188.79 258.136 190.607 258.682 192.152 259.705C193.698 260.728 194.903 262.18 195.614 263.881C196.325 265.581 196.511 267.453 196.149 269.258C195.786 271.063 194.891 272.721 193.577 274.023C192.262 275.324 190.587 276.21 188.765 276.569C186.941 276.929 185.052 276.744 183.334 276.04C181.616 275.336 180.149 274.143 179.116 272.613C178.083 271.082 177.532 269.283 177.532 267.442C177.535 264.975 178.526 262.61 180.288 260.865C182.05 259.121 184.439 258.139 186.931 258.136ZM186.931 275.877C188.615 275.877 190.263 275.382 191.663 274.456C193.064 273.529 194.156 272.212 194.802 270.67C195.446 269.129 195.615 267.433 195.286 265.797C194.957 264.161 194.146 262.658 192.955 261.478C191.763 260.298 190.245 259.495 188.593 259.169C186.94 258.844 185.227 259.011 183.671 259.649C182.114 260.288 180.784 261.369 179.848 262.757C178.912 264.143 178.411 265.774 178.411 267.442C178.415 269.679 179.312 271.823 180.91 273.404C182.507 274.985 184.672 275.875 186.931 275.877Z" fill="#E6E6E6"/>
<path opacity="0.3" d="M172.533 139.94C184.82 139.94 194.781 130.078 194.781 117.912C194.781 105.747 184.82 95.8846 172.533 95.8846C160.246 95.8846 150.285 105.747 150.285 117.912C150.285 130.078 160.246 139.94 172.533 139.94Z" fill="#FFC336"/>
<path opacity="0.3" d="M172.533 132.597C180.725 132.597 187.365 126.023 187.365 117.912C187.365 109.802 180.725 103.227 172.533 103.227C164.342 103.227 157.701 109.802 157.701 117.912C157.701 126.023 164.342 132.597 172.533 132.597Z" fill="#FFC336"/>
<path d="M172.533 128.11C178.221 128.11 182.833 123.544 182.833 117.912C182.833 112.28 178.221 107.714 172.533 107.714C166.845 107.714 162.234 112.28 162.234 117.912C162.234 123.544 166.845 128.11 172.533 128.11Z" fill="#FFC336"/>
<path opacity="0.3" d="M121.858 283.089C130.941 283.089 138.306 275.798 138.306 266.804C138.306 257.81 130.941 250.519 121.858 250.519C112.775 250.519 105.411 257.81 105.411 266.804C105.411 275.798 112.775 283.089 121.858 283.089Z" fill="#FFC336"/>
<path opacity="0.3" d="M121.858 277.661C127.914 277.661 132.823 272.8 132.823 266.804C132.823 260.808 127.914 255.948 121.858 255.948C115.803 255.948 110.894 260.808 110.894 266.804C110.894 272.8 115.803 277.661 121.858 277.661Z" fill="#FFC336"/>
<path d="M121.858 274.343C126.064 274.343 129.473 270.968 129.473 266.804C129.473 262.64 126.064 259.265 121.858 259.265C117.653 259.265 114.244 262.64 114.244 266.804C114.244 270.968 117.653 274.343 121.858 274.343Z" fill="#FFC336"/>
<path opacity="0.3" d="M190.249 221.901C200.697 221.901 209.168 213.514 209.168 203.168C209.168 192.823 200.697 184.435 190.249 184.435C179.8 184.435 171.329 192.823 171.329 203.168C171.329 213.514 179.8 221.901 190.249 221.901Z" fill="#FFC336"/>
<path opacity="0.3" d="M190.249 215.656C197.214 215.656 202.862 210.065 202.862 203.168C202.862 196.271 197.214 190.68 190.249 190.68C183.283 190.68 177.636 196.271 177.636 203.168C177.636 210.065 183.283 215.656 190.249 215.656Z" fill="#FFC336"/>
<path d="M190.249 211.84C195.086 211.84 199.007 207.958 199.007 203.168C199.007 198.379 195.086 194.496 190.249 194.496C185.411 194.496 181.49 198.379 181.49 203.168C181.49 207.958 185.411 211.84 190.249 211.84Z" fill="#FFC336"/>
<path d="M262.419 190.275L257.111 199.155C256.585 200.033 255.863 200.779 254.999 201.335C254.134 201.892 253.152 202.243 252.128 202.362C251.105 202.481 250.067 202.364 249.096 202.021C248.126 201.677 247.248 201.117 246.532 200.382C245.866 199.699 245.355 198.882 245.036 197.986C244.716 197.091 244.594 196.138 244.679 195.192C244.764 194.246 245.053 193.329 245.527 192.503C246.001 191.677 246.649 190.961 247.426 190.405L256.061 184.224C264.352 173.111 269.115 154.225 273.175 133.785L290.046 135.744C285.697 152.462 275.299 170.996 262.419 190.275Z" fill="#FFB8B8"/>
<path d="M320.606 309.618L310.369 309.212C307.007 274.956 302.715 243.847 293.991 227.723C285.542 236.683 283.622 264.993 282.208 303.536H272.289C261.861 259.118 259.229 227.625 272.289 197.722H325.519L320.606 309.618Z" fill="#272727"/>
<path d="M282.826 310.406L265.059 319.393C264.582 319.634 264.062 319.775 263.529 319.809C262.997 319.843 262.462 319.768 261.959 319.59C261.456 319.411 260.995 319.133 260.606 318.772C260.216 318.41 259.904 317.973 259.692 317.488C259.314 316.627 259.264 315.66 259.553 314.766C259.842 313.871 260.448 313.111 261.26 312.627L263.683 311.181L270.429 301.195L281.927 300.296L284.03 302.292C284.615 302.848 285.058 303.534 285.321 304.293C285.584 305.052 285.66 305.862 285.542 306.656C285.424 307.451 285.116 308.205 284.644 308.857C284.171 309.51 283.548 310.04 282.826 310.406Z" fill="#272727"/>
<path d="M318.932 318.828L298.988 319.383C298.454 319.398 297.923 319.304 297.427 319.108C296.931 318.911 296.48 318.617 296.104 318.242C295.727 317.866 295.432 317.419 295.237 316.926C295.042 316.434 294.951 315.908 294.969 315.379C295.001 314.441 295.376 313.546 296.025 312.861C296.674 312.177 297.551 311.749 298.495 311.657L301.31 311.382L311.736 305.237L322.508 309.317L323.541 312.014C323.829 312.765 323.931 313.572 323.838 314.37C323.746 315.167 323.463 315.931 323.011 316.598C322.561 317.265 321.955 317.815 321.245 318.203C320.536 318.591 319.742 318.805 318.932 318.828Z" fill="#272727"/>
<path d="M298.655 91.2441C306.047 91.2441 312.041 85.3103 312.041 77.9903C312.041 70.6696 306.047 64.7357 298.655 64.7357C291.261 64.7357 285.268 70.6696 285.268 77.9903C285.268 85.3103 291.261 91.2441 298.655 91.2441Z" fill="#FFB8B8"/>
<path d="M320.606 99.2043L292.762 109.746C294.384 101.09 294.404 92.9358 291.739 85.6229L309.55 82.5821C308.056 90.1849 312.686 95.3494 320.606 99.2043Z" fill="#FFB8B8"/>
<path d="M340.26 199.749L339.531 210.09C339.398 211.975 338.518 213.731 337.082 214.974C335.646 216.219 333.771 216.849 331.867 216.729C330.619 216.65 329.414 216.252 328.368 215.573C327.322 214.895 326.472 213.959 325.901 212.858C325.33 211.757 325.058 210.527 325.11 209.291C325.164 208.054 325.539 206.852 326.202 205.803L332.07 196.506C335.538 183.123 332.788 163.847 328.795 143.395L345.174 138.935C347.486 156.046 344.882 177.091 340.26 199.749Z" fill="#FFB8B8"/>
<path d="M313.978 69.3788C313.978 69.3788 316.481 63.9277 309.974 61.4499C309.974 61.4499 304.469 52.5299 293.458 58.4766C293.458 58.4766 285.95 61.4499 285.95 69.3788C285.95 77.3079 283.448 78.7946 283.448 78.7946C283.448 78.7946 287.174 75.0091 288.176 72.0357C289.177 69.0623 296.961 68.3877 299.964 71.3611C302.968 74.3345 310.475 73.8389 310.475 73.8389L309.974 84.7414C309.974 84.7414 312.477 78.299 313.478 78.299C314.478 78.299 315.48 69.3788 313.978 69.3788Z" fill="#272727"/>
<path d="M264.509 139.746L291.943 147.45V100.015L288.302 101.182C285.12 102.201 282.23 103.955 279.869 106.299C277.507 108.643 275.742 111.509 274.722 114.662L264.509 139.746Z" fill="#D34E24"/>
<path d="M332.07 205.424C307.565 210.031 287.831 207.076 271.88 198.127C279.258 172.958 280.306 145.112 278.375 116.003C278.185 113.093 278.913 110.195 280.459 107.713C282.005 105.23 284.292 103.284 287.004 102.145L293.991 99.2043C297.758 107.681 306.441 102.796 315.692 96.3665L327.124 101.368C328.939 102.162 330.466 103.485 331.5 105.162C332.535 106.838 333.027 108.787 332.912 110.748C330.627 149.415 327.555 190.87 332.07 205.424Z" fill="#D34E24"/>
<path d="M350.906 139.341L323.472 147.044V99.6097L327.114 100.777C330.295 101.796 333.186 103.55 335.547 105.893C337.908 108.237 339.673 111.104 340.694 114.256L350.906 139.341Z" fill="#D34E24"/>
</svg>
