<svg width="720" height="555" viewBox="0 0 720 555" fill="none" xmlns="http://www.w3.org/2000/svg">
<path d="M137.249 98.6476C131.869 98.6537 126.712 100.772 122.908 104.539C119.104 108.305 116.965 113.411 116.958 118.738V485.444C116.965 490.771 119.104 495.877 122.908 499.643C126.712 503.409 131.869 505.528 137.249 505.534H340.115C345.494 505.528 350.652 503.409 354.456 499.643C358.259 495.877 360.399 490.77 360.405 485.444V118.738C360.399 113.411 358.259 108.305 354.456 104.539C350.652 100.772 345.494 98.6537 340.115 98.6476H137.249Z" fill="#272727"/>
<path d="M143.88 110.062C139.799 110.066 135.886 111.674 133 114.531C130.115 117.389 128.491 121.263 128.487 125.304V478.877C128.491 482.918 130.114 486.793 133 489.65C135.886 492.508 139.799 494.115 143.88 494.12H333.483C337.565 494.115 341.477 492.508 344.363 489.65C347.249 486.793 348.873 482.918 348.877 478.877V125.304C348.873 121.263 347.249 117.389 344.363 114.531C341.477 111.674 337.565 110.066 333.483 110.062H143.88Z" fill="white"/>
<path d="M330.229 184.582H147.135C146.236 184.581 145.374 184.227 144.738 183.598C144.103 182.969 143.745 182.115 143.744 181.225V136.256C143.745 135.366 144.103 134.512 144.738 133.883C145.374 133.254 146.236 132.9 147.135 132.899H330.229C331.128 132.9 331.99 133.254 332.625 133.883C333.261 134.512 333.618 135.366 333.62 136.256V181.225C333.618 182.115 333.261 182.969 332.625 183.598C331.99 184.227 331.128 184.581 330.229 184.582V184.582ZM147.135 134.242C146.595 134.242 146.078 134.455 145.697 134.832C145.316 135.21 145.101 135.722 145.1 136.256V181.225C145.101 181.759 145.316 182.271 145.697 182.649C146.078 183.027 146.595 183.239 147.135 183.24H330.229C330.768 183.239 331.285 183.027 331.667 182.649C332.048 182.271 332.263 181.759 332.263 181.225V136.256C332.263 135.722 332.048 135.21 331.667 134.832C331.285 134.455 330.768 134.242 330.229 134.242L147.135 134.242Z" fill="#E6E6E6"/>
<path d="M330.229 362.511H147.135C146.236 362.51 145.374 362.156 144.739 361.527C144.103 360.897 143.745 360.044 143.744 359.154V275.913C143.745 275.023 144.103 274.17 144.738 273.54C145.374 272.911 146.236 272.557 147.135 272.556H330.229C331.128 272.557 331.99 272.911 332.625 273.54C333.261 274.17 333.618 275.023 333.619 275.913V359.154C333.618 360.044 333.261 360.897 332.625 361.527C331.99 362.156 331.128 362.51 330.229 362.511V362.511ZM147.135 273.899C146.595 273.899 146.078 274.112 145.697 274.49C145.316 274.867 145.101 275.379 145.1 275.913V359.154C145.101 359.688 145.316 360.2 145.697 360.578C146.078 360.955 146.595 361.168 147.135 361.168H330.229C330.768 361.168 331.285 360.955 331.667 360.578C332.048 360.2 332.263 359.688 332.263 359.154V275.913C332.263 275.379 332.048 274.867 331.667 274.489C331.285 274.112 330.768 273.899 330.229 273.899L147.135 273.899Z" fill="#E6E6E6"/>
<path d="M328.873 254.411H247.497C246.598 254.41 245.737 254.056 245.101 253.427C244.465 252.797 244.108 251.944 244.107 251.054V206.085C244.108 205.194 244.465 204.341 245.101 203.712C245.737 203.082 246.598 202.728 247.497 202.727H328.873C329.772 202.728 330.633 203.082 331.269 203.712C331.905 204.341 332.262 205.194 332.263 206.085V251.054C332.262 251.944 331.905 252.797 331.269 253.427C330.633 254.056 329.772 254.41 328.873 254.411V254.411ZM247.497 204.07C246.958 204.071 246.441 204.283 246.059 204.661C245.678 205.038 245.463 205.55 245.463 206.085V251.054C245.463 251.588 245.678 252.1 246.059 252.478C246.441 252.855 246.958 253.068 247.497 253.068H328.873C329.412 253.068 329.929 252.855 330.31 252.478C330.692 252.1 330.906 251.588 330.907 251.054V206.084C330.906 205.55 330.692 205.038 330.31 204.661C329.929 204.283 329.412 204.071 328.873 204.07L247.497 204.07Z" fill="#E6E6E6"/>
<path d="M228.51 471.283H147.135C146.236 471.282 145.374 470.928 144.738 470.298C144.103 469.669 143.745 468.816 143.744 467.926V384.013C143.745 383.123 144.103 382.27 144.739 381.641C145.374 381.011 146.236 380.657 147.135 380.656H228.51C229.409 380.657 230.271 381.011 230.906 381.641C231.542 382.27 231.9 383.123 231.901 384.013V467.926C231.9 468.816 231.542 469.669 230.906 470.298C230.271 470.928 229.409 471.282 228.51 471.283V471.283ZM147.135 381.999C146.595 382 146.078 382.212 145.697 382.59C145.316 382.967 145.101 383.479 145.1 384.013V467.926C145.101 468.46 145.316 468.972 145.697 469.349C146.078 469.727 146.595 469.939 147.135 469.94H228.51C229.05 469.939 229.567 469.727 229.948 469.349C230.329 468.972 230.544 468.46 230.545 467.926V384.013C230.544 383.479 230.329 382.967 229.948 382.59C229.567 382.212 229.05 382 228.51 381.999H147.135Z" fill="#E6E6E6"/>
<path d="M328.873 471.283H247.497C246.598 471.282 245.737 470.928 245.101 470.298C244.465 469.669 244.108 468.816 244.107 467.926V384.013C244.108 383.123 244.465 382.27 245.101 381.641C245.737 381.011 246.598 380.657 247.497 380.656H328.873C329.772 380.657 330.633 381.011 331.269 381.641C331.905 382.27 332.262 383.123 332.263 384.013V467.926C332.262 468.816 331.905 469.669 331.269 470.298C330.633 470.928 329.772 471.282 328.873 471.283V471.283ZM247.497 381.999C246.958 382 246.441 382.212 246.059 382.59C245.678 382.967 245.463 383.479 245.463 384.013V467.926C245.463 468.46 245.678 468.972 246.059 469.349C246.441 469.727 246.958 469.939 247.497 469.94H328.873C329.412 469.939 329.929 469.727 330.31 469.349C330.692 468.972 330.906 468.46 330.907 467.926V384.013C330.906 383.479 330.692 382.967 330.31 382.59C329.929 382.212 329.412 382 328.873 381.999H247.497Z" fill="#E6E6E6"/>
<path d="M174.228 315.719C181.856 315.719 188.039 309.596 188.039 302.044C188.039 294.491 181.856 288.369 174.228 288.369C166.6 288.369 160.416 294.491 160.416 302.044C160.416 309.596 166.6 315.719 174.228 315.719Z" fill="#E6E6E6"/>
<path d="M206.126 292.927C205.515 292.927 204.93 293.167 204.498 293.595C204.067 294.022 203.824 294.602 203.824 295.206C203.824 295.811 204.067 296.39 204.498 296.818C204.93 297.245 205.515 297.485 206.126 297.485H314.646C315.255 297.484 315.839 297.243 316.27 296.816C316.7 296.389 316.942 295.81 316.942 295.206C316.942 294.603 316.7 294.024 316.27 293.596C315.839 293.169 315.255 292.928 314.646 292.927H206.126Z" fill="#E6E6E6"/>
<path d="M206.126 306.602C205.516 306.602 204.93 306.841 204.498 307.267C204.066 307.694 203.823 308.273 203.821 308.877C203.82 309.481 204.061 310.061 204.491 310.489C204.922 310.917 205.506 311.159 206.116 311.161H252.822C253.433 311.161 254.018 310.921 254.45 310.493C254.882 310.066 255.124 309.486 255.124 308.881C255.124 308.277 254.882 307.697 254.45 307.27C254.018 306.842 253.433 306.602 252.822 306.602H206.126Z" fill="#E6E6E6"/>
<path d="M163.634 328.465C161.883 328.465 160.458 329.488 160.458 330.744C160.458 332.001 161.883 333.023 163.634 333.023H313.358C315.109 333.023 316.534 332.001 316.534 330.744C316.534 329.488 315.109 328.465 313.358 328.465H163.634Z" fill="#E6E6E6"/>
<path d="M163.634 342.14C161.883 342.14 160.458 343.163 160.458 344.419C160.458 345.676 161.883 346.699 163.634 346.699H313.358C315.109 346.699 316.534 345.676 316.534 344.419C316.534 343.163 315.109 342.14 313.358 342.14H163.634Z" fill="#E6E6E6"/>
<path d="M175.584 170.69C183.212 170.69 189.396 164.568 189.396 157.015C189.396 149.462 183.212 143.34 175.584 143.34C167.956 143.34 161.772 149.462 161.772 157.015C161.772 164.568 167.956 170.69 175.584 170.69Z" fill="#E6E6E6"/>
<path d="M207.482 147.898C206.873 147.9 206.288 148.14 205.858 148.568C205.427 148.995 205.186 149.574 205.186 150.177C205.186 150.781 205.427 151.36 205.858 151.787C206.288 152.214 206.873 152.455 207.482 152.457H316.002C316.304 152.458 316.604 152.399 316.884 152.286C317.164 152.172 317.418 152.005 317.633 151.793C317.847 151.582 318.017 151.331 318.134 151.055C318.25 150.778 318.311 150.482 318.311 150.182C318.312 149.883 318.253 149.586 318.138 149.309C318.022 149.032 317.853 148.78 317.64 148.568C317.426 148.356 317.172 148.188 316.893 148.073C316.614 147.958 316.314 147.899 316.012 147.898C316.008 147.898 316.005 147.898 316.002 147.898H207.482Z" fill="#E6E6E6"/>
<path d="M207.482 161.573C206.872 161.574 206.288 161.815 205.857 162.242C205.426 162.67 205.184 163.249 205.184 163.853C205.184 164.457 205.426 165.036 205.857 165.463C206.288 165.89 206.872 166.131 207.482 166.132H254.179C254.789 166.133 255.375 165.894 255.808 165.468C256.24 165.041 256.484 164.462 256.485 163.857C256.487 163.253 256.245 162.673 255.815 162.244C255.384 161.816 254.799 161.575 254.188 161.573C254.185 161.573 254.182 161.573 254.179 161.573H207.482Z" fill="#E6E6E6"/>
<path d="M228.438 254.419H152.101L170.066 223.61C170.388 223.058 170.851 222.599 171.408 222.281C171.966 221.962 172.599 221.794 173.243 221.794C173.887 221.794 174.519 221.962 175.077 222.281C175.635 222.599 176.098 223.058 176.42 223.61L184.094 236.771L197.143 214.393C197.546 213.702 198.126 213.128 198.824 212.729C199.522 212.329 200.314 212.119 201.121 212.119C201.927 212.119 202.719 212.329 203.417 212.729C204.115 213.128 204.695 213.702 205.098 214.393L228.438 254.419ZM154.45 253.076H226.089L203.924 215.065C203.64 214.577 203.231 214.173 202.739 213.891C202.247 213.61 201.689 213.462 201.121 213.462C200.553 213.462 199.994 213.61 199.502 213.891C199.01 214.173 198.602 214.577 198.318 215.065L184.094 239.457L175.245 224.282C175.042 223.934 174.75 223.645 174.399 223.444C174.047 223.243 173.649 223.137 173.243 223.137C172.837 223.137 172.438 223.243 172.087 223.444C171.735 223.645 171.443 223.934 171.241 224.282L154.45 253.076Z" fill="#E6E6E6"/>
<path d="M326.088 254.419H249.751L267.716 223.61C268.038 223.058 268.501 222.599 269.058 222.281C269.616 221.962 270.249 221.794 270.893 221.794C271.537 221.794 272.169 221.962 272.727 222.281C273.285 222.599 273.748 223.058 274.07 223.61L281.744 236.771L294.793 214.393C295.196 213.702 295.776 213.128 296.474 212.729C297.172 212.329 297.964 212.119 298.771 212.119C299.577 212.119 300.369 212.329 301.067 212.729C301.765 213.128 302.345 213.702 302.748 214.393L326.088 254.419ZM252.1 253.076H323.739L301.574 215.065C301.29 214.577 300.881 214.173 300.389 213.891C299.897 213.61 299.339 213.462 298.771 213.462C298.203 213.462 297.644 213.61 297.152 213.891C296.66 214.173 296.252 214.577 295.968 215.065L281.744 239.457L272.895 224.282C272.692 223.934 272.4 223.645 272.049 223.444C271.697 223.243 271.299 223.137 270.893 223.137C270.487 223.137 270.088 223.243 269.737 223.444C269.385 223.645 269.093 223.934 268.891 224.282L252.1 253.076Z" fill="#E6E6E6"/>
<path d="M228.51 254.411H147.135C146.236 254.41 145.374 254.056 144.738 253.427C144.103 252.797 143.745 251.944 143.744 251.054V206.085C143.745 205.194 144.103 204.341 144.738 203.712C145.374 203.082 146.236 202.728 147.135 202.727H228.51C229.409 202.728 230.271 203.082 230.906 203.712C231.542 204.341 231.9 205.194 231.901 206.085V251.054C231.9 251.944 231.542 252.797 230.906 253.427C230.271 254.056 229.409 254.41 228.51 254.411V254.411ZM147.135 204.07C146.595 204.071 146.078 204.283 145.697 204.661C145.316 205.038 145.101 205.55 145.1 206.085V251.054C145.101 251.588 145.316 252.1 145.697 252.478C146.078 252.855 146.595 253.068 147.135 253.068H228.51C229.05 253.068 229.567 252.855 229.948 252.478C230.329 252.1 230.544 251.588 230.545 251.054V206.084C230.544 205.55 230.329 205.038 229.948 204.661C229.567 204.283 229.05 204.071 228.51 204.07L147.135 204.07Z" fill="#E6E6E6"/>
<path d="M164.474 397.96C164.172 397.96 163.872 398.019 163.592 398.133C163.312 398.247 163.058 398.415 162.844 398.627C162.63 398.838 162.46 399.09 162.344 399.367C162.228 399.643 162.169 399.94 162.169 400.24C162.169 400.539 162.228 400.836 162.344 401.113C162.46 401.39 162.63 401.641 162.844 401.853C163.058 402.064 163.312 402.232 163.592 402.346C163.872 402.461 164.172 402.519 164.474 402.519H211.171C211.473 402.519 211.773 402.461 212.053 402.346C212.332 402.232 212.587 402.064 212.801 401.853C213.015 401.641 213.185 401.39 213.301 401.113C213.417 400.836 213.476 400.539 213.476 400.24C213.476 399.94 213.417 399.643 213.301 399.367C213.185 399.09 213.015 398.838 212.801 398.627C212.587 398.415 212.332 398.247 212.053 398.133C211.773 398.019 211.473 397.96 211.171 397.96H164.474Z" fill="#E6E6E6"/>
<path d="M164.474 411.389C163.864 411.389 163.278 411.629 162.847 412.057C162.415 412.484 162.172 413.064 162.172 413.668C162.172 414.273 162.415 414.852 162.847 415.28C163.278 415.707 163.864 415.947 164.474 415.947H211.171C211.781 415.947 212.367 415.707 212.798 415.28C213.23 414.852 213.473 414.273 213.473 413.668C213.473 413.064 213.23 412.484 212.798 412.057C212.367 411.629 211.781 411.389 211.171 411.389H164.474Z" fill="#E6E6E6"/>
<path d="M187.823 453.978C184.957 453.978 182.155 453.137 179.773 451.561C177.39 449.984 175.533 447.744 174.436 445.122C173.339 442.501 173.052 439.616 173.611 436.833C174.171 434.05 175.551 431.494 177.577 429.487C179.603 427.481 182.185 426.115 184.996 425.561C187.807 425.007 190.72 425.292 193.368 426.377C196.015 427.463 198.278 429.302 199.87 431.661C201.462 434.021 202.312 436.794 202.312 439.632C202.308 443.436 200.78 447.082 198.064 449.772C195.347 452.461 191.664 453.974 187.823 453.978V453.978ZM187.823 426.628C185.225 426.628 182.686 427.391 180.526 428.82C178.366 430.249 176.683 432.279 175.689 434.656C174.695 437.032 174.435 439.646 174.942 442.169C175.448 444.691 176.699 447.008 178.536 448.827C180.373 450.646 182.713 451.884 185.26 452.386C187.808 452.888 190.449 452.63 192.849 451.646C195.248 450.662 197.3 448.995 198.743 446.856C200.186 444.718 200.956 442.204 200.956 439.632C200.952 436.184 199.567 432.879 197.105 430.441C194.643 428.004 191.305 426.632 187.823 426.628V426.628Z" fill="#E6E6E6"/>
<path d="M311.533 453.979C311.836 453.979 312.136 453.92 312.415 453.806C312.695 453.692 312.949 453.524 313.163 453.312C313.378 453.101 313.547 452.849 313.663 452.572C313.779 452.296 313.839 451.999 313.839 451.699C313.839 451.4 313.779 451.103 313.663 450.826C313.547 450.549 313.378 450.298 313.163 450.086C312.949 449.875 312.695 449.707 312.415 449.593C312.136 449.478 311.836 449.42 311.533 449.42H264.837C264.227 449.421 263.642 449.662 263.211 450.089C262.781 450.516 262.539 451.096 262.539 451.699C262.539 452.303 262.781 452.882 263.211 453.31C263.642 453.737 264.227 453.978 264.837 453.979H311.533Z" fill="#E6E6E6"/>
<path d="M311.533 440.55C311.836 440.55 312.136 440.492 312.415 440.378C312.695 440.263 312.949 440.095 313.163 439.884C313.378 439.672 313.547 439.421 313.663 439.144C313.779 438.867 313.839 438.57 313.839 438.271C313.839 437.971 313.779 437.674 313.663 437.398C313.547 437.121 313.378 436.869 313.163 436.658C312.949 436.446 312.695 436.278 312.415 436.164C312.136 436.05 311.836 435.991 311.533 435.992H264.837C264.226 435.992 263.641 436.232 263.209 436.659C262.777 437.087 262.535 437.666 262.535 438.271C262.535 438.875 262.777 439.455 263.209 439.882C263.641 440.31 264.226 440.55 264.837 440.55H311.533Z" fill="#E6E6E6"/>
<path d="M288.185 397.96C291.051 397.96 293.852 398.802 296.235 400.378C298.618 401.955 300.475 404.195 301.571 406.817C302.668 409.438 302.955 412.323 302.396 415.106C301.837 417.889 300.457 420.445 298.431 422.452C296.404 424.458 293.822 425.824 291.012 426.378C288.201 426.932 285.288 426.647 282.64 425.562C279.992 424.476 277.729 422.637 276.137 420.278C274.545 417.918 273.695 415.145 273.695 412.307V412.307C273.7 408.503 275.227 404.857 277.944 402.167C280.66 399.478 284.343 397.965 288.185 397.96V397.96ZM288.185 425.311C290.782 425.311 293.322 424.548 295.481 423.119C297.641 421.69 299.324 419.66 300.319 417.283C301.313 414.907 301.573 412.293 301.066 409.77C300.559 407.248 299.308 404.931 297.472 403.112C295.635 401.293 293.295 400.055 290.747 399.553C288.199 399.051 285.559 399.309 283.159 400.293C280.759 401.277 278.708 402.944 277.265 405.083C275.822 407.221 275.051 409.735 275.051 412.307V412.307C275.056 415.755 276.44 419.06 278.903 421.498C281.365 423.935 284.703 425.307 288.185 425.311V425.311Z" fill="#E6E6E6"/>
<path opacity="0.3" d="M265.988 215.741C284.931 215.741 300.287 200.537 300.287 181.781C300.287 163.026 284.931 147.822 265.988 147.822C247.046 147.822 231.69 163.026 231.69 181.781C231.69 200.537 247.046 215.741 265.988 215.741Z" fill="#FFC336"/>
<path opacity="0.3" d="M265.988 204.421C278.617 204.421 288.854 194.285 288.854 181.781C288.854 169.278 278.617 159.142 265.988 159.142C253.36 159.142 243.123 169.278 243.123 181.781C243.123 194.285 253.36 204.421 265.988 204.421Z" fill="#FFC336"/>
<path d="M265.988 197.503C274.758 197.503 281.867 190.464 281.867 181.781C281.867 173.098 274.758 166.059 265.988 166.059C257.219 166.059 250.11 173.098 250.11 181.781C250.11 190.464 257.219 197.503 265.988 197.503Z" fill="#FFC336"/>
<path opacity="0.3" d="M187.865 436.429C201.868 436.429 213.221 425.188 213.221 411.323C213.221 397.457 201.868 386.217 187.865 386.217C173.861 386.217 162.509 397.457 162.509 411.323C162.509 425.188 173.861 436.429 187.865 436.429Z" fill="#FFC336"/>
<path opacity="0.3" d="M187.865 428.06C197.2 428.06 204.769 420.567 204.769 411.323C204.769 402.079 197.2 394.586 187.865 394.586C178.529 394.586 170.961 402.079 170.961 411.323C170.961 420.567 178.529 428.06 187.865 428.06Z" fill="#FFC336"/>
<path d="M187.865 422.946C194.348 422.946 199.604 417.742 199.604 411.323C199.604 404.904 194.348 399.7 187.865 399.7C181.381 399.7 176.126 404.904 176.126 411.323C176.126 417.742 181.381 422.946 187.865 422.946Z" fill="#FFC336"/>
<path opacity="0.3" d="M293.3 342.097C309.408 342.097 322.467 329.167 322.467 313.217C322.467 297.268 309.408 284.338 293.3 284.338C277.191 284.338 264.133 297.268 264.133 313.217C264.133 329.167 277.191 342.097 293.3 342.097Z" fill="#FFC336"/>
<path opacity="0.3" d="M293.3 332.47C304.039 332.47 312.745 323.85 312.745 313.217C312.745 302.585 304.039 293.965 293.3 293.965C282.561 293.965 273.855 302.585 273.855 313.217C273.855 323.85 282.561 332.47 293.3 332.47Z" fill="#FFC336"/>
<path d="M293.3 326.587C300.758 326.587 306.803 320.602 306.803 313.218C306.803 305.834 300.758 299.848 293.3 299.848C285.842 299.848 279.797 305.834 279.797 313.218C279.797 320.602 285.842 326.587 293.3 326.587Z" fill="#FFC336"/>
<path d="M411.632 304.989L403.448 318.678C402.638 320.032 401.524 321.182 400.192 322.04C398.859 322.898 397.345 323.439 395.767 323.622C394.189 323.806 392.589 323.625 391.092 323.096C389.596 322.567 388.243 321.702 387.139 320.571V320.571C386.112 319.517 385.325 318.257 384.833 316.877C384.34 315.496 384.152 314.027 384.283 312.568C384.414 311.11 384.859 309.696 385.59 308.423C386.32 307.15 387.319 306.047 388.517 305.189L401.829 295.659C414.611 278.527 421.955 249.41 428.214 217.9L454.223 220.92C447.519 246.693 431.489 275.267 411.632 304.989Z" fill="#FFB8B8"/>
<path d="M501.336 488.975L485.555 488.35C480.372 435.539 473.755 387.578 460.305 362.72C447.279 376.535 444.32 420.179 442.14 479.6H426.848C410.772 411.121 406.713 362.569 426.848 316.468H508.911L501.336 488.975Z" fill="#272727"/>
<path d="M443.093 490.19L415.701 504.045C414.967 504.416 414.165 504.635 413.343 504.687C412.522 504.739 411.698 504.624 410.922 504.349C410.147 504.074 409.437 503.644 408.836 503.087C408.235 502.53 407.755 501.857 407.427 501.109V501.109C406.844 499.782 406.768 498.29 407.213 496.911C407.658 495.533 408.593 494.361 409.845 493.614L413.58 491.386L423.98 475.99L441.706 474.605L444.949 477.682C445.851 478.538 446.534 479.595 446.939 480.766C447.344 481.936 447.461 483.186 447.279 484.41C447.098 485.634 446.623 486.798 445.895 487.803C445.166 488.809 444.206 489.627 443.093 490.19Z" fill="#272727"/>
<path d="M498.756 503.174L468.009 504.029C467.186 504.052 466.367 503.908 465.602 503.605C464.837 503.303 464.143 502.848 463.563 502.27C462.982 501.692 462.527 501.002 462.226 500.243C461.925 499.484 461.785 498.672 461.813 497.857C461.862 496.411 462.441 495.032 463.441 493.976C464.441 492.92 465.794 492.26 467.249 492.119L471.589 491.696L487.662 482.22L504.269 488.512L505.861 492.67C506.305 493.827 506.462 495.072 506.32 496.301C506.178 497.53 505.741 498.708 505.045 499.736C504.35 500.764 503.416 501.613 502.322 502.211C501.228 502.809 500.005 503.139 498.756 503.174V503.174Z" fill="#272727"/>
<path d="M467.495 152.316C478.892 152.316 488.132 143.167 488.132 131.882C488.132 120.597 478.892 111.448 467.495 111.448C456.097 111.448 446.857 120.597 446.857 131.882C446.857 143.167 456.097 152.316 467.495 152.316Z" fill="#FFB8B8"/>
<path d="M501.336 164.588L458.411 180.838C460.911 167.494 460.942 154.924 456.833 143.649L484.292 138.962C481.988 150.683 489.126 158.645 501.336 164.588Z" fill="#FFB8B8"/>
<path d="M531.637 319.594L530.513 335.537C530.308 338.442 528.951 341.149 526.737 343.067C524.523 344.985 521.632 345.957 518.697 345.771V345.771C516.773 345.65 514.915 345.036 513.303 343.99C511.691 342.944 510.38 341.501 509.5 339.804C508.62 338.106 508.2 336.211 508.281 334.304C508.363 332.398 508.942 330.545 509.964 328.926L519.011 314.593C524.357 293.962 520.117 264.246 513.962 232.715L539.212 225.84C542.777 252.219 538.762 284.663 531.637 319.594Z" fill="#FFB8B8"/>
<path d="M491.119 118.607C491.119 118.607 494.977 110.203 484.946 106.383C484.946 106.383 476.458 92.6312 459.483 101.799C459.483 101.799 447.909 106.383 447.909 118.607C447.909 130.83 444.051 133.122 444.051 133.122C444.051 133.122 449.796 127.286 451.34 122.703C452.883 118.119 464.884 117.079 469.514 121.663C474.144 126.246 485.718 125.483 485.718 125.483L484.946 142.29C484.946 142.29 488.804 132.358 490.347 132.358C491.89 132.358 493.434 118.607 491.119 118.607Z" fill="#272727"/>
<path d="M414.854 227.09L457.148 238.965V165.838L451.534 167.636C446.629 169.207 442.173 171.911 438.533 175.525C434.892 179.138 432.172 183.557 430.598 188.417L414.854 227.09Z" fill="#D34E24"/>
<path d="M519.011 328.344C481.231 335.446 450.808 330.89 426.217 317.093C437.591 278.292 439.208 235.361 436.231 190.486C435.938 185.999 437.06 181.532 439.443 177.704C441.826 173.877 445.352 170.877 449.533 169.121L460.305 164.588C466.113 177.656 479.499 170.125 493.761 160.212L511.385 167.923C514.183 169.146 516.538 171.187 518.132 173.771C519.727 176.356 520.486 179.361 520.308 182.385C516.785 241.996 512.049 305.905 519.011 328.344Z" fill="#D34E24"/>
<path d="M548.049 226.465L505.755 238.34V165.213L511.37 167.011C516.274 168.582 520.73 171.286 524.371 174.9C528.011 178.513 530.731 182.932 532.305 187.792L548.049 226.465Z" fill="#D34E24"/>
<path d="M706.165 503.969H181.069V505.685H706.165V503.969Z" fill="#E6E6E6"/>
</svg>
