<svg width="832" height="647" viewBox="0 0 832 647" fill="none" xmlns="http://www.w3.org/2000/svg">
<g id="undraw_design_stats_ne2k 1" clip-path="url(#clip0)">
<g id="blog">
<path id="Vector" d="M31.9458 3.05176e-05C23.4762 0.00966987 15.3562 3.37847 9.36734 9.36739C3.37843 15.3563 0.00962875 23.4763 0 31.9458V615.055C0.00976905 623.524 3.37863 631.644 9.36752 637.633C15.3564 643.622 23.4763 646.99 31.9458 647H351.343C359.813 646.99 367.932 643.622 373.921 637.633C379.91 631.644 383.279 623.524 383.289 615.055V31.9458C383.279 23.4762 379.91 15.3563 373.921 9.36737C367.933 3.37847 359.813 0.00966719 351.343 3.05176e-05H31.9458Z" fill="#272727"/>
<path id="Vector_2" d="M42.3867 18.1502C35.961 18.1575 29.8006 20.7133 25.2569 25.257C20.7133 29.8006 18.1574 35.961 18.1501 42.3867V604.613C18.1574 611.039 20.7131 617.199 25.2568 621.743C29.8005 626.287 35.9609 628.842 42.3867 628.85H340.902C347.328 628.842 353.488 626.287 358.032 621.743C362.576 617.199 365.131 611.039 365.139 604.613V42.3867C365.131 35.961 362.575 29.8006 358.032 25.257C353.488 20.7133 347.328 18.1575 340.902 18.1502H42.3867Z" fill="white"/>
<path id="Vector_3" d="M335.778 136.647H47.5105C46.0952 136.645 44.7383 136.082 43.7376 135.082C42.7368 134.081 42.1738 132.724 42.1722 131.309V59.8018C42.1738 58.3865 42.7368 57.0297 43.7376 56.0289C44.7383 55.0281 46.0952 54.4652 47.5105 54.4635H335.778C337.194 54.4652 338.55 55.0281 339.551 56.0289C340.552 57.0297 341.115 58.3865 341.117 59.8018V131.309C341.115 132.724 340.552 134.081 339.551 135.082C338.55 136.082 337.194 136.645 335.778 136.647V136.647ZM47.5105 56.5988C46.6613 56.5997 45.8471 56.9375 45.2466 57.538C44.6461 58.1384 44.3084 58.9526 44.3075 59.8018V131.309C44.3084 132.158 44.6461 132.972 45.2466 133.573C45.8471 134.173 46.6613 134.511 47.5105 134.512H335.778C336.628 134.511 337.442 134.173 338.042 133.573C338.643 132.972 338.98 132.158 338.981 131.309V59.8018C338.98 58.9526 338.643 58.1384 338.042 57.538C337.442 56.9375 336.628 56.5997 335.778 56.5988L47.5105 56.5988Z" fill="#E6E6E6"/>
<path id="Vector_4" d="M335.778 419.576H47.5105C46.0952 419.574 44.7384 419.011 43.7376 418.011C42.7368 417.01 42.1739 415.653 42.1722 414.238V281.874C42.1738 280.459 42.7368 279.102 43.7376 278.102C44.7383 277.101 46.0952 276.538 47.5105 276.536H335.778C337.194 276.538 338.55 277.101 339.551 278.102C340.552 279.102 341.115 280.459 341.117 281.874V414.238C341.115 415.653 340.552 417.01 339.551 418.011C338.55 419.011 337.194 419.574 335.778 419.576V419.576ZM47.5105 278.671C46.6613 278.672 45.8471 279.01 45.2466 279.611C44.6461 280.211 44.3084 281.025 44.3075 281.874V414.238C44.3084 415.087 44.6461 415.901 45.2466 416.502C45.8471 417.102 46.6613 417.44 47.5105 417.441H335.778C336.628 417.44 337.442 417.102 338.042 416.502C338.643 415.901 338.98 415.087 338.981 414.238V281.874C338.98 281.025 338.643 280.211 338.042 279.611C337.442 279.01 336.628 278.672 335.778 278.671L47.5105 278.671Z" fill="#E6E6E6"/>
<path id="Vector_5" d="M333.643 247.683H205.524C204.108 247.682 202.752 247.119 201.751 246.118C200.75 245.117 200.187 243.76 200.185 242.345V170.838C200.187 169.423 200.75 168.066 201.751 167.065C202.752 166.064 204.108 165.501 205.524 165.5H333.643C335.058 165.502 336.415 166.064 337.416 167.065C338.417 168.066 338.98 169.423 338.981 170.838V242.345C338.98 243.76 338.417 245.117 337.416 246.118C336.415 247.119 335.058 247.682 333.643 247.683V247.683ZM205.524 167.635C204.674 167.636 203.86 167.974 203.26 168.574C202.659 169.175 202.322 169.989 202.321 170.838V242.345C202.322 243.194 202.659 244.008 203.26 244.609C203.86 245.209 204.674 245.547 205.524 245.548H333.643C334.492 245.547 335.306 245.209 335.907 244.609C336.507 244.008 336.845 243.194 336.846 242.345V170.838C336.845 169.989 336.507 169.175 335.907 168.574C335.306 167.974 334.492 167.636 333.643 167.635L205.524 167.635Z" fill="#E6E6E6"/>
<path id="Vector_6" d="M175.63 592.536H47.5105C46.0952 592.535 44.7383 591.972 43.7376 590.971C42.7368 589.97 42.1738 588.613 42.1722 587.198V453.767C42.1739 452.352 42.7368 450.995 43.7376 449.994C44.7384 448.994 46.0952 448.431 47.5105 448.429H175.63C177.045 448.431 178.402 448.994 179.403 449.994C180.403 450.995 180.966 452.352 180.968 453.767V587.198C180.966 588.613 180.403 589.97 179.403 590.971C178.402 591.972 177.045 592.535 175.63 592.536V592.536ZM47.5105 450.564C46.6613 450.565 45.8471 450.903 45.2466 451.503C44.6461 452.104 44.3084 452.918 44.3075 453.767V587.198C44.3084 588.047 44.6461 588.862 45.2466 589.462C45.8471 590.063 46.6613 590.4 47.5105 590.401H175.63C176.479 590.4 177.293 590.063 177.894 589.462C178.494 588.862 178.832 588.047 178.833 587.198V453.767C178.832 452.918 178.494 452.104 177.894 451.503C177.293 450.903 176.479 450.565 175.63 450.564H47.5105Z" fill="#E6E6E6"/>
<path id="Vector_7" d="M333.643 592.536H205.524C204.108 592.535 202.752 591.972 201.751 590.971C200.75 589.97 200.187 588.613 200.185 587.198V453.767C200.187 452.352 200.75 450.995 201.751 449.994C202.752 448.994 204.108 448.431 205.524 448.429H333.643C335.058 448.431 336.415 448.994 337.416 449.994C338.417 450.995 338.98 452.352 338.981 453.767V587.198C338.98 588.613 338.417 589.97 337.416 590.971C336.415 591.972 335.058 592.535 333.643 592.536V592.536ZM205.524 450.564C204.674 450.565 203.86 450.903 203.26 451.503C202.659 452.104 202.322 452.918 202.321 453.767V587.198C202.322 588.047 202.659 588.862 203.26 589.462C203.86 590.063 204.674 590.4 205.524 590.401H333.643C334.492 590.4 335.306 590.063 335.907 589.462C336.507 588.862 336.845 588.047 336.846 587.198V453.767C336.845 452.918 336.507 452.104 335.907 451.503C335.306 450.903 334.492 450.565 333.643 450.564H205.524Z" fill="#E6E6E6"/>
<path id="Vector_8" d="M90.1661 345.171C102.176 345.171 111.911 335.435 111.911 323.425C111.911 311.416 102.176 301.68 90.1661 301.68C78.1565 301.68 68.4208 311.416 68.4208 323.425C68.4208 335.435 78.1565 345.171 90.1661 345.171Z" fill="#E6E6E6"/>
<path id="Vector_9" d="M140.387 308.929C139.426 308.929 138.504 309.31 137.825 309.99C137.145 310.67 136.763 311.592 136.763 312.553C136.763 313.514 137.145 314.436 137.825 315.115C138.504 315.795 139.426 316.177 140.387 316.177H311.244C312.204 316.175 313.123 315.792 313.801 315.112C314.479 314.433 314.86 313.512 314.86 312.553C314.86 311.593 314.479 310.672 313.801 309.993C313.123 309.314 312.204 308.931 311.244 308.929H140.387Z" fill="#E6E6E6"/>
<path id="Vector_10" d="M140.387 330.674C139.427 330.673 138.505 331.053 137.825 331.731C137.145 332.409 136.761 333.33 136.759 334.29C136.757 335.251 137.137 336.173 137.814 336.854C138.492 337.535 139.412 337.919 140.372 337.922H213.907C214.869 337.922 215.791 337.54 216.47 336.861C217.15 336.181 217.532 335.259 217.532 334.298C217.532 333.337 217.15 332.415 216.47 331.735C215.791 331.056 214.869 330.674 213.907 330.674H140.387Z" fill="#E6E6E6"/>
<path id="Vector_11" d="M73.4869 365.438C70.73 365.438 68.4865 367.064 68.4865 369.063C68.4865 371.061 70.73 372.687 73.4869 372.687H309.216C311.973 372.687 314.216 371.061 314.216 369.063C314.216 367.064 311.973 365.438 309.216 365.438H73.4869Z" fill="#E6E6E6"/>
<path id="Vector_12" d="M73.4869 387.184C70.73 387.184 68.4865 388.81 68.4865 390.808C68.4865 392.806 70.73 394.432 73.4869 394.432H309.216C311.973 394.432 314.216 392.806 314.216 390.808C314.216 388.81 311.973 387.184 309.216 387.184H73.4869Z" fill="#E6E6E6"/>
<path id="Vector_13" d="M92.3014 114.557C104.311 114.557 114.047 104.821 114.047 92.8115C114.047 80.8019 104.311 71.0662 92.3014 71.0662C80.2918 71.0662 70.5561 80.8019 70.5561 92.8115C70.5561 104.821 80.2918 114.557 92.3014 114.557Z" fill="#E6E6E6"/>
<path id="Vector_14" d="M142.523 78.3147C141.563 78.3169 140.643 78.6998 139.966 79.3792C139.288 80.0586 138.907 80.9791 138.907 81.9389C138.907 82.8986 139.288 83.8192 139.966 84.4986C140.643 85.178 141.563 85.5608 142.523 85.5631H313.379C313.855 85.5646 314.327 85.4722 314.768 85.2912C315.208 85.1102 315.609 84.8442 315.946 84.5083C316.284 84.1725 316.552 83.7733 316.736 83.3338C316.919 82.8942 317.014 82.4228 317.015 81.9465C317.016 81.4703 316.923 80.9985 316.741 80.5582C316.56 80.1178 316.294 79.7176 315.957 79.3803C315.621 79.043 315.222 78.7753 314.782 78.5924C314.342 78.4096 313.871 78.3152 313.394 78.3147C313.389 78.3147 313.384 78.3147 313.379 78.3147H142.523Z" fill="#E6E6E6"/>
<path id="Vector_15" d="M142.523 100.06C141.563 100.062 140.642 100.444 139.964 101.124C139.286 101.803 138.905 102.724 138.905 103.684C138.905 104.644 139.286 105.565 139.964 106.245C140.642 106.924 141.563 107.307 142.523 107.308H216.043C217.004 107.311 217.927 106.931 218.608 106.252C219.289 105.574 219.673 104.653 219.675 103.692C219.677 102.731 219.297 101.808 218.619 101.127C217.94 100.446 217.019 100.062 216.058 100.06C216.053 100.06 216.048 100.06 216.043 100.06H142.523Z" fill="#E6E6E6"/>
<path id="Vector_16" d="M175.516 247.696H55.3294L83.6134 198.706C84.1203 197.828 84.8494 197.099 85.7275 196.592C86.6055 196.085 87.6015 195.818 88.6154 195.818C89.6293 195.818 90.6253 196.085 91.5034 196.592C92.3814 197.099 93.1105 197.828 93.6174 198.706L105.7 219.634L126.245 184.05C126.879 182.951 127.792 182.038 128.891 181.403C129.991 180.768 131.238 180.434 132.507 180.434C133.777 180.434 135.024 180.768 136.123 181.403C137.222 182.038 138.135 182.951 138.77 184.05L175.516 247.696ZM59.0276 245.561H171.818L136.92 185.117C136.473 184.343 135.83 183.699 135.055 183.252C134.281 182.805 133.402 182.569 132.507 182.569C131.613 182.569 130.734 182.805 129.959 183.252C129.185 183.699 128.541 184.343 128.094 185.117L105.7 223.904L91.7679 199.774C91.4485 199.22 90.989 198.761 90.4357 198.441C89.8823 198.122 89.2545 197.953 88.6155 197.953C87.9765 197.953 87.3487 198.122 86.7954 198.441C86.242 198.761 85.7825 199.22 85.4631 199.774L59.0276 245.561Z" fill="#E6E6E6"/>
<path id="Vector_17" d="M329.259 247.696H209.072L237.356 198.706C237.863 197.828 238.592 197.099 239.47 196.592C240.348 196.085 241.344 195.818 242.358 195.818C243.372 195.818 244.368 196.085 245.246 196.592C246.124 197.099 246.853 197.828 247.36 198.706L259.443 219.634L279.987 184.05C280.622 182.951 281.535 182.038 282.634 181.403C283.733 180.768 284.98 180.434 286.25 180.434C287.519 180.434 288.766 180.768 289.866 181.403C290.965 182.038 291.878 182.951 292.512 184.05L329.259 247.696ZM212.77 245.561H325.561L290.663 185.117C290.216 184.343 289.572 183.699 288.798 183.252C288.023 182.805 287.144 182.569 286.25 182.569C285.355 182.569 284.477 182.805 283.702 183.252C282.927 183.699 282.284 184.343 281.837 185.117L259.443 223.904L245.51 199.774C245.191 199.22 244.732 198.761 244.178 198.441C243.625 198.122 242.997 197.953 242.358 197.953C241.719 197.953 241.091 198.122 240.538 198.441C239.985 198.761 239.525 199.22 239.206 199.774L212.77 245.561Z" fill="#E6E6E6"/>
<path id="Vector_18" d="M175.63 247.683H47.5105C46.0952 247.682 44.7383 247.119 43.7376 246.118C42.7368 245.117 42.1739 243.76 42.1722 242.345V170.838C42.1739 169.423 42.7368 168.066 43.7376 167.065C44.7384 166.064 46.0952 165.501 47.5105 165.5H175.63C177.045 165.501 178.402 166.064 179.403 167.065C180.403 168.066 180.966 169.423 180.968 170.838V242.345C180.966 243.76 180.403 245.117 179.403 246.118C178.402 247.119 177.045 247.682 175.63 247.683V247.683ZM47.5105 167.635C46.6613 167.636 45.8471 167.974 45.2466 168.574C44.6461 169.175 44.3084 169.989 44.3075 170.838V242.345C44.3084 243.194 44.6461 244.008 45.2466 244.609C45.8471 245.209 46.6613 245.547 47.5105 245.548H175.63C176.479 245.547 177.293 245.209 177.894 244.609C178.494 244.008 178.832 243.194 178.833 242.345V170.838C178.832 169.989 178.494 169.175 177.894 168.574C177.293 167.974 176.479 167.636 175.63 167.635L47.5105 167.635Z" fill="#E6E6E6"/>
<path id="Vector_19" d="M74.8101 475.945C74.3337 475.944 73.8617 476.037 73.4213 476.219C72.9809 476.401 72.5807 476.668 72.2435 477.004C71.9063 477.341 71.6388 477.741 71.4563 478.181C71.2738 478.621 71.1799 479.093 71.1799 479.569C71.1799 480.046 71.2738 480.517 71.4563 480.957C71.6388 481.397 71.9063 481.797 72.2435 482.134C72.5807 482.471 72.9809 482.737 73.4213 482.919C73.8617 483.101 74.3337 483.194 74.8101 483.193H148.33C148.807 483.194 149.279 483.101 149.719 482.919C150.159 482.737 150.56 482.471 150.897 482.134C151.234 481.797 151.501 481.397 151.684 480.957C151.866 480.517 151.96 480.046 151.96 479.569C151.96 479.093 151.866 478.621 151.684 478.181C151.501 477.741 151.234 477.341 150.897 477.004C150.56 476.668 150.159 476.401 149.719 476.219C149.279 476.037 148.807 475.944 148.33 475.945H74.8101Z" fill="#E6E6E6"/>
<path id="Vector_20" d="M74.8101 497.298C73.8489 497.298 72.9271 497.68 72.2474 498.359C71.5677 499.039 71.1859 499.961 71.1859 500.922C71.1859 501.883 71.5677 502.805 72.2474 503.485C72.9271 504.165 73.8489 504.546 74.8101 504.546H148.33C149.291 504.546 150.213 504.165 150.893 503.485C151.573 502.805 151.954 501.883 151.954 500.922C151.954 499.961 151.573 499.039 150.893 498.359C150.213 497.68 149.291 497.298 148.33 497.298H74.8101Z" fill="#E6E6E6"/>
<path id="Vector_21" d="M111.57 565.02C107.058 565.02 102.648 563.683 98.8962 561.176C95.1447 558.669 92.2207 555.106 90.4941 550.938C88.7674 546.769 88.3156 542.182 89.1959 537.757C90.0761 533.332 92.2488 529.267 95.4393 526.077C98.6297 522.886 102.695 520.713 107.12 519.833C111.545 518.953 116.132 519.405 120.3 521.131C124.469 522.858 128.032 525.782 130.539 529.534C133.045 533.285 134.383 537.696 134.383 542.208C134.376 548.256 131.971 554.055 127.694 558.331C123.417 562.608 117.619 565.014 111.57 565.02V565.02ZM111.57 521.53C107.481 521.53 103.483 522.743 100.083 525.015C96.6821 527.287 94.0318 530.516 92.4668 534.295C90.9018 538.073 90.4923 542.231 91.2901 546.242C92.088 550.253 94.0574 553.937 96.9492 556.829C99.841 559.721 103.525 561.69 107.536 562.488C111.547 563.286 115.705 562.876 119.483 561.311C123.262 559.746 126.491 557.096 128.763 553.695C131.035 550.295 132.248 546.297 132.248 542.208C132.242 536.726 130.061 531.47 126.185 527.594C122.308 523.717 117.052 521.537 111.57 521.53V521.53Z" fill="#E6E6E6"/>
<path id="Vector_22" d="M306.343 565.021C306.82 565.021 307.292 564.928 307.732 564.746C308.172 564.565 308.573 564.298 308.91 563.961C309.247 563.625 309.515 563.225 309.697 562.785C309.88 562.345 309.974 561.873 309.974 561.396C309.974 560.92 309.88 560.448 309.697 560.008C309.515 559.568 309.247 559.168 308.91 558.831C308.573 558.495 308.172 558.228 307.732 558.046C307.292 557.864 306.82 557.771 306.343 557.772H232.823C231.863 557.774 230.943 558.156 230.264 558.836C229.586 559.515 229.205 560.436 229.205 561.396C229.205 562.356 229.586 563.277 230.264 563.957C230.943 564.636 231.863 565.019 232.823 565.021H306.343Z" fill="#E6E6E6"/>
<path id="Vector_23" d="M306.343 543.667C306.82 543.668 307.292 543.575 307.732 543.393C308.172 543.212 308.573 542.945 308.91 542.608C309.247 542.271 309.515 541.872 309.697 541.432C309.88 540.991 309.974 540.52 309.974 540.043C309.974 539.567 309.88 539.095 309.697 538.655C309.515 538.215 309.247 537.815 308.91 537.478C308.573 537.142 308.172 536.875 307.732 536.693C307.292 536.511 306.82 536.418 306.343 536.419H232.823C231.862 536.419 230.94 536.801 230.261 537.48C229.581 538.16 229.199 539.082 229.199 540.043C229.199 541.004 229.581 541.926 230.261 542.606C230.94 543.286 231.862 543.667 232.823 543.667H306.343Z" fill="#E6E6E6"/>
<path id="Vector_24" d="M269.583 475.945C274.095 475.945 278.506 477.283 282.257 479.789C286.009 482.296 288.933 485.859 290.659 490.028C292.386 494.196 292.838 498.783 291.958 503.208C291.077 507.633 288.905 511.698 285.714 514.889C282.524 518.079 278.459 520.252 274.034 521.132C269.608 522.012 265.021 521.561 260.853 519.834C256.684 518.107 253.122 515.183 250.615 511.432C248.108 507.68 246.77 503.27 246.77 498.758V498.758C246.777 492.709 249.183 486.911 253.46 482.634C257.736 478.357 263.535 475.952 269.583 475.945V475.945ZM269.583 519.435C273.673 519.435 277.67 518.222 281.071 515.95C284.471 513.678 287.122 510.449 288.687 506.671C290.252 502.892 290.661 498.735 289.863 494.724C289.066 490.713 287.096 487.028 284.204 484.137C281.313 481.245 277.628 479.275 273.617 478.477C269.606 477.68 265.449 478.089 261.67 479.654C257.892 481.219 254.663 483.869 252.39 487.27C250.118 490.67 248.906 494.668 248.906 498.758V498.758C248.912 504.24 251.093 509.495 254.969 513.372C258.845 517.248 264.101 519.429 269.583 519.435V519.435Z" fill="#E6E6E6"/>
<path id="Vector_25" opacity="0.3" d="M234.637 186.193C264.46 186.193 288.637 162.016 288.637 132.193C288.637 102.37 264.46 78.1929 234.637 78.1929C204.813 78.1929 180.637 102.37 180.637 132.193C180.637 162.016 204.813 186.193 234.637 186.193Z" fill="#FFC336"/>
<path id="Vector_26" opacity="0.3" d="M234.637 168.193C254.519 168.193 270.637 152.075 270.637 132.193C270.637 112.311 254.519 96.1929 234.637 96.1929C214.754 96.1929 198.637 112.311 198.637 132.193C198.637 152.075 214.754 168.193 234.637 168.193Z" fill="#FFC336"/>
<path id="Vector_27" d="M234.637 157.193C248.444 157.193 259.637 146 259.637 132.193C259.637 118.386 248.444 107.193 234.637 107.193C220.829 107.193 209.637 118.386 209.637 132.193C209.637 146 220.829 157.193 234.637 157.193Z" fill="#FFC336"/>
<path id="Vector_28" opacity="0.3" d="M111.637 537.114C133.684 537.114 151.558 519.241 151.558 497.193C151.558 475.145 133.684 457.272 111.637 457.272C89.5886 457.272 71.7153 475.145 71.7153 497.193C71.7153 519.241 89.5886 537.114 111.637 537.114Z" fill="#FFC336"/>
<path id="Vector_29" opacity="0.3" d="M111.637 523.807C126.335 523.807 138.251 511.892 138.251 497.193C138.251 482.494 126.335 470.579 111.637 470.579C96.9379 470.579 85.0223 482.494 85.0223 497.193C85.0223 511.892 96.9379 523.807 111.637 523.807Z" fill="#FFC336"/>
<path id="Vector_30" d="M111.637 515.675C121.844 515.675 130.119 507.4 130.119 497.193C130.119 486.986 121.844 478.711 111.637 478.711C101.429 478.711 93.1544 486.986 93.1544 497.193C93.1544 507.4 101.429 515.675 111.637 515.675Z" fill="#FFC336"/>
<path id="Vector_31" opacity="0.3" d="M277.637 387.114C302.998 387.114 323.558 366.555 323.558 341.193C323.558 315.831 302.998 295.272 277.637 295.272C252.275 295.272 231.715 315.831 231.715 341.193C231.715 366.555 252.275 387.114 277.637 387.114Z" fill="#FFC336"/>
<path id="Vector_32" opacity="0.3" d="M277.637 371.807C294.544 371.807 308.251 358.101 308.251 341.193C308.251 324.285 294.544 310.579 277.637 310.579C260.729 310.579 247.022 324.285 247.022 341.193C247.022 358.101 260.729 371.807 277.637 371.807Z" fill="#FFC336"/>
<path id="Vector_33" d="M277.637 362.453C289.378 362.453 298.896 352.934 298.896 341.193C298.896 329.451 289.378 319.933 277.637 319.933C265.895 319.933 256.377 329.451 256.377 341.193C256.377 352.934 265.895 362.453 277.637 362.453Z" fill="#FFC336"/>
</g>
<g id="guy">
<path id="Vector_34" d="M484.129 427.546L474.682 443.504C473.748 445.082 472.462 446.424 470.924 447.423C469.386 448.423 467.638 449.054 465.816 449.268C463.994 449.481 462.148 449.272 460.421 448.654C458.693 448.037 457.132 447.03 455.858 445.71V445.71C454.672 444.482 453.764 443.014 453.195 441.404C452.626 439.795 452.41 438.082 452.561 436.382C452.712 434.681 453.226 433.033 454.069 431.549C454.913 430.065 456.065 428.779 457.448 427.779L472.813 416.669C487.567 396.697 496.044 362.754 503.269 326.02L533.29 329.541C525.552 359.586 507.048 392.897 484.129 427.546Z" fill="#FFB8B8"/>
<path id="Vector_35" d="M587.67 642.03L569.455 641.302C563.473 579.736 555.835 523.826 540.309 494.847C525.274 510.951 521.859 561.83 519.343 631.101H501.692C483.136 551.271 478.451 494.671 501.692 440.928H596.414L587.67 642.03Z" fill="#272727"/>
<path id="Vector_36" d="M520.442 643.447L488.825 659.599C487.979 660.031 487.053 660.286 486.104 660.347C485.155 660.407 484.204 660.273 483.31 659.953C482.415 659.632 481.595 659.131 480.901 658.482C480.208 657.832 479.654 657.047 479.275 656.176V656.176C478.602 654.628 478.514 652.889 479.028 651.282C479.541 649.675 480.621 648.309 482.066 647.438L486.377 644.84L498.382 626.893L518.842 625.278L522.585 628.865C523.627 629.863 524.414 631.096 524.882 632.46C525.35 633.825 525.485 635.281 525.275 636.709C525.065 638.136 524.517 639.492 523.677 640.664C522.836 641.836 521.727 642.79 520.442 643.447Z" fill="#272727"/>
<path id="Vector_37" d="M584.692 658.583L549.202 659.58C548.252 659.607 547.306 659.439 546.424 659.086C545.541 658.733 544.74 658.203 544.07 657.529C543.4 656.855 542.875 656.051 542.528 655.166C542.18 654.281 542.018 653.335 542.05 652.385C542.108 650.699 542.776 649.091 543.93 647.86C545.084 646.63 546.646 645.86 548.325 645.695L553.334 645.202L571.886 634.156L591.055 641.49L592.894 646.337C593.405 647.686 593.586 649.138 593.423 650.571C593.259 652.004 592.754 653.377 591.952 654.576C591.149 655.774 590.071 656.763 588.808 657.46C587.546 658.157 586.134 658.542 584.692 658.583V658.583Z" fill="#272727"/>
<path id="Vector_38" d="M548.608 249.565C561.764 249.565 572.429 238.9 572.429 225.744C572.429 212.588 561.764 201.923 548.608 201.923C535.452 201.923 524.787 212.588 524.787 225.744C524.787 238.9 535.452 249.565 548.608 249.565Z" fill="#FFB8B8"/>
<path id="Vector_39" d="M587.67 263.871L538.123 282.815C541.009 267.259 541.046 252.605 536.302 239.461L567.997 233.997C565.338 247.661 573.577 256.943 587.67 263.871Z" fill="#FFB8B8"/>
<path id="Vector_40" d="M622.645 444.571L621.348 463.157C621.112 466.544 619.545 469.7 616.989 471.936C614.434 474.171 611.097 475.305 607.709 475.089V475.089C605.489 474.947 603.343 474.231 601.483 473.012C599.622 471.792 598.11 470.111 597.094 468.132C596.078 466.152 595.593 463.943 595.687 461.721C595.781 459.498 596.45 457.338 597.629 455.451L608.072 438.742C614.242 414.691 609.348 380.049 602.243 343.291L631.388 335.277C635.504 366.028 630.869 403.85 622.645 444.571Z" fill="#FFB8B8"/>
<path id="Vector_41" d="M575.877 210.268C575.877 210.268 580.33 200.471 568.752 196.018C568.752 196.018 558.955 179.986 539.361 190.674C539.361 190.674 526.002 196.018 526.002 210.268C526.002 224.518 521.549 227.189 521.549 227.189C521.549 227.189 528.18 220.386 529.962 215.042C531.743 209.699 545.596 208.486 550.939 213.83C556.283 219.174 569.643 218.283 569.643 218.283L568.752 237.877C568.752 237.877 573.205 226.299 574.986 226.299C576.768 226.299 578.549 210.268 575.877 210.268Z" fill="#272727"/>
<g id="shirt">
<path id="Vector_42" d="M487.848 336.734L536.666 350.578V265.328L530.186 267.424C524.525 269.256 519.381 272.408 515.179 276.621C510.977 280.833 507.838 285.985 506.02 291.651L487.848 336.734Z" fill="#D34E24"/>
<path id="Vector_43" d="M608.072 454.772C564.463 463.052 529.348 457.74 500.963 441.657C514.092 396.423 515.959 346.376 512.523 294.062C512.184 288.831 513.479 283.624 516.23 279.162C518.981 274.699 523.05 271.202 527.876 269.155L540.309 263.871C547.014 279.105 562.465 270.326 578.927 258.77L599.269 267.759C602.499 269.185 605.217 271.564 607.057 274.577C608.898 277.59 609.774 281.093 609.569 284.618C605.502 354.111 600.036 428.614 608.072 454.772Z" fill="#D34E24"/>
<path id="Vector_44" d="M641.589 336.005L592.771 349.849V264.599L599.251 266.696C604.912 268.527 610.056 271.68 614.258 275.892C618.46 280.105 621.599 285.256 623.417 290.922L641.589 336.005Z" fill="#D34E24"/>
</g>
</g>
</g>
<defs>
<clipPath id="clip0">
<rect width="831.064" height="647" fill="white"/>
</clipPath>
</defs>
</svg>
