<svg width="655" height="360" viewBox="0 0 655 360" fill="none" xmlns="http://www.w3.org/2000/svg">
<g clip-path="url(#clip0)">
<path d="M121.924 186.854C121.924 253.789 67.6569 308.056 0.721436 308.056V65.6513C67.6569 65.6513 121.924 119.918 121.924 186.854Z" fill="#272727"/>
<path d="M532.425 186.854C532.425 253.789 586.692 308.056 653.627 308.056V65.6513C586.692 65.6513 532.425 119.918 532.425 186.854Z" fill="#272727"/>
<path d="M118.261 51.0861C116.548 51.0861 114.875 50.5784 113.451 49.6271C112.027 48.6758 110.918 47.3237 110.262 45.7418C109.607 44.1599 109.436 42.4192 109.77 40.7398C110.104 39.0605 110.928 37.5179 112.139 36.3071C113.35 35.0964 114.892 34.2719 116.572 33.9378C118.251 33.6038 119.992 33.7752 121.574 34.4305C123.156 35.0857 124.508 36.1953 125.459 37.619C126.41 39.0427 126.918 40.7165 126.918 42.4288C126.915 44.724 126.002 46.9245 124.379 48.5475C122.756 50.1705 120.556 51.0835 118.261 51.0861V51.0861ZM118.261 35.2143C116.834 35.2143 115.439 35.6375 114.252 36.4302C113.066 37.2229 112.141 38.3497 111.595 39.6679C111.049 40.9862 110.906 42.4368 111.185 43.8362C111.463 45.2357 112.15 46.5212 113.159 47.5302C114.168 48.5391 115.454 49.2262 116.853 49.5046C118.253 49.783 119.703 49.6401 121.021 49.094C122.34 48.548 123.466 47.6233 124.259 46.4369C125.052 45.2505 125.475 43.8557 125.475 42.4288C125.473 40.516 124.712 38.6823 123.36 37.3298C122.007 35.9773 120.173 35.2165 118.261 35.2143V35.2143Z" fill="#272727"/>
<path d="M118.261 51.0861C116.548 51.0861 114.875 50.5784 113.451 49.6271C112.027 48.6758 110.918 47.3237 110.262 45.7418C109.607 44.1599 109.436 42.4192 109.77 40.7398C110.104 39.0605 110.928 37.5179 112.139 36.3071C113.35 35.0964 114.892 34.2719 116.572 33.9378C118.251 33.6038 119.992 33.7752 121.574 34.4305C123.156 35.0857 124.508 36.1953 125.459 37.619C126.41 39.0427 126.918 40.7165 126.918 42.4288C126.915 44.724 126.002 46.9245 124.379 48.5475C122.756 50.1705 120.556 51.0835 118.261 51.0861V51.0861ZM118.261 35.2143C116.834 35.2143 115.439 35.6375 114.252 36.4302C113.066 37.2229 112.141 38.3497 111.595 39.6679C111.049 40.9862 110.906 42.4368 111.185 43.8362C111.463 45.2357 112.15 46.5212 113.159 47.5302C114.168 48.5391 115.454 49.2262 116.853 49.5046C118.253 49.783 119.703 49.6401 121.021 49.094C122.34 48.548 123.466 47.6233 124.259 46.4369C125.052 45.2505 125.475 43.8557 125.475 42.4288C125.473 40.516 124.712 38.6823 123.36 37.3298C122.007 35.9773 120.173 35.2165 118.261 35.2143V35.2143Z" fill="#272727"/>
<path d="M517.657 313.315C515.945 313.315 514.271 312.807 512.848 311.856C511.424 310.904 510.314 309.552 509.659 307.97C509.004 306.388 508.832 304.648 509.166 302.968C509.5 301.289 510.325 299.746 511.536 298.536C512.746 297.325 514.289 296.5 515.968 296.166C517.648 295.832 519.388 296.004 520.97 296.659C522.552 297.314 523.904 298.424 524.856 299.848C525.807 301.271 526.315 302.945 526.315 304.657C526.312 306.953 525.399 309.153 523.776 310.776C522.153 312.399 519.953 313.312 517.657 313.315V313.315ZM517.657 297.443C516.23 297.443 514.836 297.866 513.649 298.659C512.463 299.451 511.538 300.578 510.992 301.896C510.446 303.215 510.303 304.665 510.582 306.065C510.86 307.464 511.547 308.75 512.556 309.759C513.565 310.768 514.85 311.455 516.25 311.733C517.649 312.012 519.1 311.869 520.418 311.323C521.736 310.777 522.863 309.852 523.656 308.665C524.449 307.479 524.872 306.084 524.872 304.657C524.87 302.745 524.109 300.911 522.756 299.558C521.404 298.206 519.57 297.445 517.657 297.443V297.443Z" fill="#272727"/>
<path d="M468.242 93.2421H454V79H468.242V93.2421ZM455.096 92.1466H467.147V80.0956H455.096L455.096 92.1466Z" fill="#272727"/>
<path d="M164.052 262.736L154.337 252.321L164.752 242.607L174.467 253.021L164.052 262.736ZM155.886 252.375L164.106 261.187L172.918 252.968L164.698 244.155L155.886 252.375Z" fill="#272727"/>
<path d="M0 0V360H654.349V0H0ZM652.906 358.557H1.44288V1.4429H652.906V358.557Z" fill="#272727"/>
<path d="M489.434 359.639C473.834 357.197 458.834 355.12 444.436 353.407L449.981 342.318C448.056 341.677 439.716 348.092 439.716 348.092L446.773 316.016C437.15 317.299 432.66 350.017 432.66 350.017L421.754 339.111L427.122 351.458C383.062 346.828 345.042 345.384 313.083 345.715L317.828 336.224C315.904 335.582 307.564 341.998 307.564 341.998L314.621 309.922C304.998 311.205 300.507 343.922 300.507 343.922L289.602 333.016L295.288 346.094C273.395 346.73 251.55 348.49 229.838 351.365C234.574 336.613 251.111 322.431 251.111 322.431C238.395 326.387 231.78 332.832 228.356 338.806C227.664 308.498 232.326 278.306 242.129 249.619C242.129 249.619 216.469 307.356 220.318 345.847L220.806 352.684C198.482 356.167 187.28 359.639 187.28 359.639H489.434Z" fill="#272727"/>
<path opacity="0.3" d="M331.232 282.095C386.616 282.095 431.513 237.198 431.513 181.815C431.513 126.431 386.616 81.5342 331.232 81.5342C275.849 81.5342 230.952 126.431 230.952 181.815C230.952 237.198 275.849 282.095 331.232 282.095Z" fill="#FFC336"/>
<path d="M290.05 54.2383L223.281 135.251L322.099 251.875L387.978 174.423L290.05 54.2383Z" fill="#CC4B23"/>
<path opacity="0.1" d="M290.05 54.2383L223.281 135.251L322.099 251.875L387.978 174.423L290.05 54.2383Z" fill="#272727"/>
<path d="M225.952 136.142C227.428 133.483 229.26 131.038 231.396 128.873L292.721 66.7017C292.721 66.7017 314.087 63.1407 318.538 73.8238L240.196 137.922L225.952 136.142Z" fill="#E5E5E5"/>
<path d="M222.836 134.806L313.642 273.687C313.642 273.687 322.544 279.918 331.447 276.357L424.479 213.594L325.66 64.0309L236.635 133.471L222.836 134.806Z" fill="#CC4B23"/>
<path d="M314.559 85.7046L257.578 126.65L258.419 127.822L315.401 86.8762L314.559 85.7046Z" fill="#272727"/>
<path d="M256.822 141.976L255.619 142.771L330.4 255.834L331.604 255.038L256.822 141.976Z" fill="#272727"/>
<path d="M400.007 213.894L339.484 258.425L340.339 259.588L400.863 215.057L400.007 213.894Z" fill="#272727"/>
<path d="M325.362 87.6561L324.179 88.48L401.631 199.762L402.815 198.938L325.362 87.6561Z" fill="#272727"/>
<path d="M301.438 65.8192L230.992 130.473L231.594 131.128L302.04 66.4748L301.438 65.8192Z" fill="#272727"/>
<path d="M307.307 66.3735L233.681 131.371L234.271 132.038L307.896 67.0411L307.307 66.3735Z" fill="#272727"/>
<path d="M311.912 67.6689L235.482 131.376L236.053 132.061L312.482 68.3531L311.912 67.6689Z" fill="#272727"/>
<path d="M630.541 186.854C626.444 185.335 621.36 182.741 618.208 179.993L620.429 186.132H580.762V187.575H620.429L618.208 193.716C621.36 190.968 626.444 188.374 630.541 186.854Z" fill="white"/>
<path d="M74.3086 186.132H34.6408L36.8619 179.992C33.7105 182.739 28.6266 185.333 24.5291 186.854C28.6266 188.373 33.7105 190.967 36.8619 193.714L34.6408 187.575H74.3086V186.132Z" fill="white"/>
</g>
<defs>
<clipPath id="clip0">
<rect width="654.349" height="360" fill="white"/>
</clipPath>
</defs>
</svg>
