<svg width="345" height="360" viewBox="0 0 345 360" fill="none" xmlns="http://www.w3.org/2000/svg">
<g clip-path="url(#clip0)">
<path d="M133.086 360C206.587 360 266.171 349.474 266.171 336.489C266.171 323.504 206.587 312.978 133.086 312.978C59.5845 312.978 0 323.504 0 336.489C0 349.474 59.5845 360 133.086 360Z" fill="#272727"/>
<path d="M213.973 260.132C285.806 260.132 344.038 201.899 344.038 130.066C344.038 58.2325 285.806 0 213.973 0C142.139 0 83.9062 58.2325 83.9062 130.066C83.9062 201.899 142.139 260.132 213.973 260.132Z" fill="#272727"/>
<path opacity="0.05" d="M213.973 237.439C273.273 237.439 321.346 189.367 321.346 130.066C321.346 70.7651 273.273 22.6924 213.973 22.6924C154.672 22.6924 106.599 70.7651 106.599 130.066C106.599 189.367 154.672 237.439 213.973 237.439Z" fill="black"/>
<path opacity="0.05" d="M213.973 218.068C262.575 218.068 301.975 178.668 301.975 130.066C301.975 81.4635 262.575 42.0638 213.973 42.0638C165.371 42.0638 125.971 81.4635 125.971 130.066C125.971 178.668 165.371 218.068 213.973 218.068Z" fill="black"/>
<path opacity="0.05" d="M213.973 193.162C248.819 193.162 277.068 164.913 277.068 130.066C277.068 95.2192 248.819 66.9701 213.973 66.9701C179.126 66.9701 150.877 95.2192 150.877 130.066C150.877 164.913 179.126 193.162 213.973 193.162Z" fill="black"/>
<path d="M85.0582 141.706C85.0582 141.706 74.8327 170.49 79.3777 180.716C83.922 190.941 91.1182 200.788 91.1182 200.788C91.1182 200.788 88.467 143.599 85.0582 141.706Z" fill="#FFC336"/>
<path opacity="0.1" d="M91.83 142.361C91.83 142.361 81.6045 171.145 86.1495 181.37C90.6945 191.596 97.89 201.443 97.89 201.443C97.89 201.443 95.2388 144.254 91.83 142.361Z" fill="black"/>
<path d="M92.2545 208.363C92.2545 208.363 91.497 215.559 91.1182 215.938C90.7395 216.316 91.497 217.074 91.1182 218.21C90.7395 219.346 90.3607 220.861 91.1182 221.239C91.8757 221.618 86.952 254.947 86.952 254.947C86.952 254.947 74.8327 270.854 79.7565 295.85L81.2715 321.225C81.2715 321.225 93.012 321.983 93.012 317.817C93.012 317.817 92.2545 312.893 92.2545 310.621C92.2545 308.348 94.1482 308.348 93.012 307.212C91.8757 306.076 91.8757 305.318 91.8757 305.318C91.8757 305.318 93.7695 303.803 93.3908 303.425C93.012 303.046 96.7995 276.156 96.7995 276.156C96.7995 276.156 100.965 271.99 100.965 269.718V267.446C100.965 267.446 102.859 262.522 102.859 262.143C102.859 261.764 113.085 238.661 113.085 238.661L117.25 255.325L121.795 279.186C121.795 279.186 124.068 300.774 128.613 309.106C128.613 309.106 136.566 336.374 136.566 335.617C136.566 334.86 149.821 332.966 149.443 329.558C149.064 326.149 141.49 278.429 141.49 278.429L143.383 207.605L92.2545 208.363Z" fill="#121212"/>
<path d="M82.0282 319.332C82.0282 319.332 71.8028 339.404 78.6202 340.162C85.437 340.919 88.0882 340.919 91.1182 337.889C92.775 336.233 96.129 334.011 98.8297 332.336C100.43 331.36 101.722 329.953 102.559 328.276C103.396 326.598 103.744 324.719 103.561 322.853C103.362 321.001 102.67 319.474 100.965 319.332C96.4207 318.953 91.1182 314.787 91.1182 314.787L82.0282 319.332Z" fill="#121212"/>
<path d="M138.46 334.103C138.46 334.103 128.234 354.175 135.051 354.932C141.868 355.69 144.52 355.69 147.55 352.661C149.206 351.004 152.56 348.782 155.261 347.107C156.861 346.131 158.154 344.723 158.991 343.046C159.828 341.369 160.175 339.49 159.993 337.624C159.793 335.771 159.1 334.244 157.396 334.103C152.851 333.724 147.55 329.557 147.55 329.557L138.46 334.103Z" fill="#121212"/>
<path d="M127.652 108.857C136.445 108.857 143.572 101.729 143.572 92.937C143.572 84.144 136.445 77.016 127.652 77.016C118.859 77.016 111.732 84.144 111.732 92.937C111.732 101.729 118.859 108.857 127.652 108.857Z" fill="#FFB8B8"/>
<path d="M117.418 98.1675C117.418 98.1675 106.045 119.092 105.136 119.092C104.226 119.092 125.605 125.915 125.605 125.915C125.605 125.915 131.518 105.901 132.428 104.081L117.418 98.1675Z" fill="#FFB8B8"/>
<path d="M134.862 121.065C134.862 121.065 112.138 108.567 109.865 108.946C107.593 109.325 83.3542 130.533 83.733 139.244C84.1117 147.955 87.1418 162.347 87.1418 162.347C87.1418 162.347 88.278 202.493 90.5498 202.871C92.8223 203.25 90.171 210.068 90.9285 210.068C91.686 210.068 143.951 210.068 144.33 208.931C144.709 207.795 134.862 121.065 134.862 121.065Z" fill="#FFC336"/>
<path d="M147.55 211.014C147.55 211.014 154.745 232.981 148.685 232.223C142.626 231.466 139.975 213.286 139.975 213.286L147.55 211.014Z" fill="#FFB8B8"/>
<path d="M128.234 119.74C128.234 119.74 114.221 122.769 116.493 141.706C118.766 160.642 122.932 179.579 122.932 179.579L136.945 210.257L138.46 215.938L148.685 213.286L141.111 169.354C141.111 169.354 138.46 122.39 135.051 120.876C132.902 119.959 130.565 119.569 128.234 119.74Z" fill="#FFC336"/>
<path opacity="0.1" d="M119.713 179.011L137.134 210.067L122.456 177.343L119.713 179.011Z" fill="black"/>
<path d="M143.502 88.2487L143.555 87.0322L145.975 87.6345C145.949 87.2437 145.839 86.8635 145.651 86.52C145.464 86.1765 145.204 85.8773 144.89 85.644L147.469 85.4992C145.305 82.4257 142.541 79.8217 139.344 77.8455C136.147 75.87 132.582 74.5622 128.865 74.0023C123.289 73.1941 117.079 74.3636 113.256 78.5017C111.401 80.5095 110.236 83.0617 109.407 85.6657C107.88 90.4627 107.569 96.18 110.752 100.079C113.989 104.042 119.64 104.818 124.732 105.308C126.524 105.48 128.401 105.64 130.062 104.946C130.247 103.041 130.003 101.12 129.349 99.3218C129.076 98.7653 128.946 98.1495 128.969 97.53C129.196 96.0157 131.217 95.634 132.735 95.8388C134.253 96.0428 136.078 96.3563 137.075 95.1938C137.762 94.3928 137.722 93.2272 137.813 92.1757C138.061 89.3137 143.476 88.8487 143.502 88.2487Z" fill="#121212"/>
<path d="M241.15 339.724C251.395 339.724 259.7 331.419 259.7 321.174C259.7 310.93 251.395 302.624 241.15 302.624C230.905 302.624 222.6 310.93 222.6 321.174C222.6 331.419 230.905 339.724 241.15 339.724Z" fill="#D34E24"/>
<path d="M23.2954 333.254C33.5403 333.254 41.8454 324.948 41.8454 314.704C41.8454 304.459 33.5403 296.153 23.2954 296.153C13.0505 296.153 4.74536 304.459 4.74536 314.704C4.74536 324.948 13.0505 333.254 23.2954 333.254Z" fill="#D34E24"/>
<path d="M23.2954 303.487C30.6812 303.487 36.6687 297.499 36.6687 290.113C36.6687 282.728 30.6812 276.74 23.2954 276.74C15.9095 276.74 9.92213 282.728 9.92213 290.113C9.92213 297.499 15.9095 303.487 23.2954 303.487Z" fill="#D34E24"/>
<path d="M23.2954 278.897C28.537 278.897 32.7861 274.649 32.7861 269.407C32.7861 264.165 28.537 259.916 23.2954 259.916C18.0539 259.916 13.8047 264.165 13.8047 269.407C13.8047 274.649 18.0539 278.897 23.2954 278.897Z" fill="#D34E24"/>
</g>
<defs>
<clipPath id="clip0">
<rect width="344.25" height="360" fill="white"/>
</clipPath>
</defs>
</svg>
