<svg width="459" height="480" viewBox="0 0 459 480" fill="none" xmlns="http://www.w3.org/2000/svg">
<g clip-path="url(#clip0)">
<path d="M177.448 480C275.449 480 354.895 465.965 354.895 448.652C354.895 431.339 275.449 417.304 177.448 417.304C79.446 417.304 0 431.339 0 448.652C0 465.965 79.446 480 177.448 480Z" fill="#272727"/>
<path d="M285.297 346.842C381.075 346.842 458.718 269.199 458.718 173.421C458.718 77.6433 381.075 0 285.297 0C189.519 0 111.875 77.6433 111.875 173.421C111.875 269.199 189.519 346.842 285.297 346.842Z" fill="#272727"/>
<path opacity="0.05" d="M285.297 316.586C364.364 316.586 428.461 252.489 428.461 173.421C428.461 94.3535 364.364 30.2565 285.297 30.2565C206.229 30.2565 142.132 94.3535 142.132 173.421C142.132 252.489 206.229 316.586 285.297 316.586Z" fill="black"/>
<path opacity="0.05" d="M285.297 290.757C350.1 290.757 402.633 238.224 402.633 173.421C402.633 108.618 350.1 56.0851 285.297 56.0851C220.494 56.0851 167.961 108.618 167.961 173.421C167.961 238.224 220.494 290.757 285.297 290.757Z" fill="black"/>
<path opacity="0.05" d="M285.297 257.549C331.759 257.549 369.424 219.884 369.424 173.421C369.424 126.959 331.759 89.2935 285.297 89.2935C238.834 89.2935 201.169 126.959 201.169 173.421C201.169 219.884 238.834 257.549 285.297 257.549Z" fill="black"/>
<path d="M113.411 188.941C113.411 188.941 99.777 227.32 105.837 240.954C111.896 254.588 121.491 267.718 121.491 267.718C121.491 267.718 117.956 191.466 113.411 188.941Z" fill="#FFC336"/>
<path opacity="0.1" d="M122.44 189.814C122.44 189.814 108.806 228.193 114.866 241.827C120.926 255.461 130.52 268.591 130.52 268.591C130.52 268.591 126.985 192.339 122.44 189.814Z" fill="black"/>
<path d="M123.006 277.817C123.006 277.817 121.996 287.412 121.491 287.917C120.986 288.422 121.996 289.432 121.491 290.947C120.986 292.462 120.481 294.481 121.491 294.986C122.501 295.491 115.936 339.929 115.936 339.929C115.936 339.929 99.7769 361.138 106.342 394.467L108.362 428.3C108.362 428.3 124.016 429.31 124.016 423.756C124.016 423.756 123.006 417.191 123.006 414.161C123.006 411.131 125.531 411.131 124.016 409.616C122.501 408.101 122.501 407.091 122.501 407.091C122.501 407.091 125.026 405.071 124.521 404.566C124.016 404.061 129.066 368.208 129.066 368.208C129.066 368.208 134.62 362.653 134.62 359.624V356.594C134.62 356.594 137.145 350.029 137.145 349.524C137.145 349.019 150.78 318.215 150.78 318.215L156.334 340.434L162.394 372.248C162.394 372.248 165.424 401.032 171.484 412.141C171.484 412.141 182.088 448.499 182.088 447.489C182.088 446.48 199.762 443.955 199.257 439.41C198.752 434.865 188.653 371.238 188.653 371.238L191.178 276.807L123.006 277.817Z" fill="#121212"/>
<path d="M109.371 425.776C109.371 425.776 95.7371 452.539 104.827 453.549C113.916 454.559 117.451 454.559 121.491 450.519C123.7 448.311 128.172 445.348 131.773 443.115C133.907 441.813 135.63 439.937 136.746 437.701C137.862 435.464 138.325 432.959 138.082 430.471C137.816 428.001 136.893 425.965 134.62 425.776C128.561 425.271 121.491 419.716 121.491 419.716L109.371 425.776Z" fill="#121212"/>
<path d="M184.613 445.47C184.613 445.47 170.979 472.233 180.068 473.243C189.158 474.253 192.693 474.253 196.733 470.214C198.941 468.005 203.414 465.042 207.015 462.809C209.148 461.508 210.872 459.631 211.988 457.395C213.104 455.158 213.567 452.653 213.324 450.165C213.057 447.695 212.134 445.659 209.862 445.47C203.802 444.965 196.733 439.41 196.733 439.41L184.613 445.47Z" fill="#121212"/>
<path d="M170.203 145.143C181.926 145.143 191.43 135.639 191.43 123.916C191.43 112.192 181.926 102.688 170.203 102.688C158.479 102.688 148.976 112.192 148.976 123.916C148.976 135.639 158.479 145.143 170.203 145.143Z" fill="#FFB8B8"/>
<path d="M156.557 130.89C156.557 130.89 141.394 158.789 140.181 158.789C138.968 158.789 167.474 167.887 167.474 167.887C167.474 167.887 175.358 141.201 176.571 138.775L156.557 130.89Z" fill="#FFB8B8"/>
<path d="M179.816 161.42C179.816 161.42 149.517 144.756 146.487 145.261C143.457 145.766 111.139 174.044 111.644 185.659C112.149 197.273 116.189 216.463 116.189 216.463C116.189 216.463 117.704 269.99 120.733 270.495C123.763 271 120.228 280.09 121.238 280.09C122.248 280.09 191.935 280.09 192.44 278.575C192.945 277.06 179.816 161.42 179.816 161.42Z" fill="#FFC336"/>
<path d="M196.733 281.352C196.733 281.352 206.327 310.641 198.247 309.631C190.168 308.621 186.633 284.382 186.633 284.382L196.733 281.352Z" fill="#FFB8B8"/>
<path d="M170.979 159.653C170.979 159.653 152.295 163.692 155.324 188.941C158.354 214.19 163.909 239.439 163.909 239.439L182.593 280.342L184.613 287.917L198.247 284.382L188.148 225.805C188.148 225.805 184.613 163.187 180.068 161.168C177.202 159.946 174.086 159.426 170.979 159.653V159.653Z" fill="#FFC336"/>
<path opacity="0.1" d="M159.617 238.682L182.846 280.089L163.275 236.457L159.617 238.682Z" fill="black"/>
<path d="M191.336 117.665L191.406 116.043L194.633 116.846C194.599 116.325 194.452 115.818 194.202 115.36C193.952 114.902 193.606 114.503 193.187 114.192L196.625 113.999C193.74 109.901 190.055 106.429 185.792 103.794C181.529 101.16 176.776 99.4163 171.82 98.6697C164.385 97.5921 156.106 99.1515 151.008 104.669C148.535 107.346 146.981 110.749 145.876 114.221C143.84 120.617 143.425 128.24 147.67 133.438C151.985 138.722 159.52 139.757 166.31 140.41C168.699 140.64 171.202 140.854 173.416 139.928C173.663 137.388 173.338 134.826 172.465 132.429C172.102 131.687 171.928 130.866 171.959 130.04C172.261 128.021 174.956 127.512 176.98 127.785C179.004 128.057 181.437 128.475 182.767 126.925C183.683 125.857 183.629 124.303 183.751 122.901C184.081 119.085 191.302 118.465 191.336 117.665Z" fill="#121212"/>
<path d="M321.534 452.966C335.194 452.966 346.267 441.892 346.267 428.232C346.267 414.573 335.194 403.499 321.534 403.499C307.874 403.499 296.8 414.573 296.8 428.232C296.8 441.892 307.874 452.966 321.534 452.966Z" fill="#D34E24"/>
<path d="M31.0605 444.338C44.7204 444.338 55.7939 433.264 55.7939 419.605C55.7939 405.945 44.7204 394.871 31.0605 394.871C17.4007 394.871 6.32715 405.945 6.32715 419.605C6.32715 433.264 17.4007 444.338 31.0605 444.338Z" fill="#D34E24"/>
<path d="M31.0605 404.65C40.9083 404.65 48.8916 396.666 48.8916 386.818C48.8916 376.971 40.9083 368.987 31.0605 368.987C21.2127 368.987 13.2295 376.971 13.2295 386.818C13.2295 396.666 21.2127 404.65 31.0605 404.65Z" fill="#D34E24"/>
<path d="M31.0605 371.863C38.0493 371.863 43.7148 366.198 43.7148 359.209C43.7148 352.22 38.0493 346.555 31.0605 346.555C24.0718 346.555 18.4062 352.22 18.4062 359.209C18.4062 366.198 24.0718 371.863 31.0605 371.863Z" fill="#D34E24"/>
</g>
<defs>
<clipPath id="clip0">
<rect width="458.718" height="480" fill="white"/>
</clipPath>
</defs>
</svg>
