<svg width="755" height="720" viewBox="0 0 755 720" fill="none" xmlns="http://www.w3.org/2000/svg">
<g clip-path="url(#clip0)">
<path d="M700.639 191.288V150.862H694.353V191.288C692.55 192.017 691.056 193.351 690.129 195.061C689.201 196.77 688.897 198.749 689.269 200.659C689.64 202.568 690.664 204.288 692.165 205.525C693.666 206.762 695.551 207.439 697.496 207.439C699.441 207.439 701.325 206.762 702.826 205.525C704.327 204.288 705.351 202.568 705.723 200.659C706.094 198.749 705.79 196.77 704.863 195.061C703.935 193.351 702.442 192.017 700.639 191.288Z" fill="#FFC336"/>
<path d="M715.306 599.258H672.352V77.5264H655.59V599.258H612.636C607.545 599.258 602.505 600.261 597.802 602.209C593.099 604.157 588.826 607.012 585.226 610.611C581.627 614.211 578.771 618.484 576.823 623.187C574.875 627.89 573.873 632.931 573.873 638.021V638.021H754.069V638.021C754.069 632.931 753.067 627.89 751.118 623.187C749.17 618.484 746.315 614.211 742.716 610.611C739.116 607.012 734.843 604.157 730.14 602.209C725.437 600.261 720.396 599.258 715.306 599.258V599.258Z" fill="#E5E5E5"/>
<path d="M573.96 155.053H753.982L742.974 17.4536C742.571 12.7089 740.408 8.2865 736.909 5.05651C733.41 1.82651 728.829 0.0227237 724.068 0H603.874C599.112 0.0227263 594.532 1.82651 591.033 5.05651C587.534 8.2865 585.371 12.7089 584.968 17.4536L573.96 155.053Z" fill="#D34E24"/>
<path d="M64.0092 479.339H613.481V423.241C613.481 271.752 490.235 148.505 338.745 148.505C187.256 148.505 64.0092 271.752 64.0092 423.241V479.339Z" fill="#333333"/>
<path opacity="0.2" d="M61.8116 477.505H611.284V421.408C611.284 269.918 488.037 146.672 336.548 146.672C185.058 146.672 61.8116 269.918 61.8116 421.408V477.505Z" fill="#333333"/>
<path d="M135.223 498.757H558.09C557.688 476.51 548.574 455.308 532.708 439.708C516.841 424.108 495.488 415.355 473.236 415.33H220.076C197.825 415.355 176.472 424.108 160.605 439.708C144.738 455.308 135.625 476.51 135.223 498.757V498.757Z" fill="#D34E24"/>
<path d="M84.8661 490.127C131.736 490.127 169.732 452.131 169.732 405.261C169.732 358.391 131.736 320.395 84.8661 320.395C37.9958 320.395 0 358.391 0 405.261C0 452.131 37.9958 490.127 84.8661 490.127Z" fill="#272727"/>
<path d="M599.816 490.127C646.687 490.127 684.682 452.131 684.682 405.261C684.682 358.391 646.687 320.395 599.816 320.395C552.946 320.395 514.95 358.391 514.95 405.261C514.95 452.131 552.946 490.127 599.816 490.127Z" fill="#272727"/>
<path d="M535.807 448.413V480.058H143.841V448.413H56.098V602.651C56.098 612.101 59.852 621.164 66.5342 627.847C73.2165 634.529 82.2796 638.283 91.7297 638.283H587.918C592.597 638.283 597.231 637.361 601.554 635.571C605.877 633.78 609.805 631.155 613.114 627.847C616.422 624.538 619.047 620.61 620.838 616.287C622.628 611.964 623.55 607.331 623.55 602.651V448.413H535.807Z" fill="#272727"/>
<path opacity="0.2" d="M84.8661 422.522C94.3991 422.522 102.127 414.794 102.127 405.261C102.127 395.728 94.3991 388 84.8661 388C75.3332 388 67.6052 395.728 67.6052 405.261C67.6052 414.794 75.3332 422.522 84.8661 422.522Z" fill="black"/>
<path opacity="0.2" d="M599.816 422.522C609.349 422.522 617.077 414.794 617.077 405.261C617.077 395.728 609.349 388 599.816 388C590.283 388 582.555 395.728 582.555 405.261C582.555 414.794 590.283 422.522 599.816 422.522Z" fill="black"/>
<path d="M370.008 138.81C370.008 138.81 371.705 171.052 383.583 177.839C395.462 184.627 383.583 230.443 383.583 230.443L327.586 232.14L324.192 177.839C324.192 177.839 330.979 155.779 327.586 145.598C324.192 135.417 370.008 138.81 370.008 138.81Z" fill="#FFB8B8"/>
<path d="M432.793 586.793L412.431 610.55L444.672 641.094L461.641 607.156L432.793 586.793Z" fill="#FFB8B8"/>
<path d="M288.556 586.793L308.92 610.55L276.678 641.094L259.709 607.156L288.556 586.793Z" fill="#FFB8B8"/>
<path d="M421.764 361.953C421.764 361.953 543.941 402.679 537.153 441.708C530.366 480.737 477.761 618.186 477.761 618.186C477.761 618.186 448.914 618.186 426.854 587.641L442.127 553.703C442.127 553.703 435.339 535.037 447.217 531.644C459.096 528.25 465.883 468.858 465.883 468.858C465.883 468.858 379.341 462.071 360.675 429.829L326.737 348.378L421.764 361.953Z" fill="#121212"/>
<path d="M299.587 361.953C299.587 361.953 177.41 402.679 184.197 441.708C190.985 480.737 243.589 618.186 243.589 618.186C243.589 618.186 272.436 618.186 294.496 587.641L279.224 553.703C279.224 553.703 286.011 535.037 274.133 531.644C262.255 528.25 255.467 468.858 255.467 468.858C255.467 468.858 342.009 462.071 360.675 429.829L394.613 348.378L299.587 361.953Z" fill="#121212"/>
<path d="M438.733 628.367C438.733 628.367 455.702 613.095 457.399 624.973C459.096 636.852 455.702 684.365 455.702 684.365C455.702 684.365 472.671 720 447.217 720C421.764 720 409.885 692.85 413.279 665.699C416.673 638.549 401.401 628.367 401.401 628.367C401.401 628.367 382.735 591.035 401.401 587.641C420.067 584.248 426.854 592.732 426.854 592.732C426.854 592.732 420.067 623.276 438.733 628.367Z" fill="#121212"/>
<path d="M282.618 628.367C282.618 628.367 265.649 613.095 263.952 624.973C262.255 636.852 265.649 684.365 265.649 684.365C265.649 684.365 248.68 720 274.133 720C299.587 720 311.465 692.85 308.071 665.699C304.677 638.549 319.949 628.367 319.949 628.367C319.949 628.367 338.615 591.035 319.949 587.641C301.284 584.248 294.496 592.732 294.496 592.732C294.496 592.732 301.284 623.276 282.618 628.367Z" fill="#121212"/>
<path d="M343.706 158.325C365.261 158.325 382.735 140.851 382.735 119.296C382.735 97.741 365.261 80.2673 343.706 80.2673C322.151 80.2673 304.677 97.741 304.677 119.296C304.677 140.851 322.151 158.325 343.706 158.325Z" fill="#FFB8B8"/>
<path d="M349.645 186.324L325.889 167.658L268.194 194.808L266.497 349.227C266.497 349.227 230.862 366.196 241.043 388.255C241.043 388.255 271.588 395.043 285.163 408.618C298.738 422.193 375.099 403.527 407.34 393.346C439.581 383.165 448.066 371.286 448.066 371.286L415.825 325.47L434.49 208.383L376.802 169.598L349.645 186.324Z" fill="#E5E5E5"/>
<path d="M391.155 92.7321C390.305 91.5782 389.528 90.3722 388.828 89.121C387.618 86.1736 389.53 82.7002 387.744 79.948C385.92 77.1385 381.292 76.546 378.142 74.6373C373.291 71.6969 372.409 65.9273 367.863 62.6872C364.588 60.3526 359.918 59.7233 355.541 59.8565C351.164 59.9897 346.846 60.7809 342.468 60.8677C336.558 60.9996 330.694 59.8005 325.31 57.359L328.54 63.6773C324.951 62.8949 321.522 61.505 318.401 59.5675C316.973 61.3395 319.586 64.029 317.966 65.6911C317.302 66.2272 316.516 66.5916 315.677 66.7521C309.447 68.5225 303.581 71.3845 298.351 75.2049C297.141 75.9749 296.139 77.0323 295.436 78.2828C294.594 80.1485 295.341 82.2092 295.277 84.193C295.161 87.7977 292.409 90.9409 290.456 94.1882C288.503 97.4354 287.449 101.645 290.345 104.401C291.05 104.961 291.725 105.557 292.369 106.186C295.271 109.609 290.134 114.622 292.61 118.254C293.685 119.831 295.888 120.629 297.803 121.561C301.471 123.276 304.557 126.026 306.681 129.474L305.193 118.548C305.115 118.278 305.101 117.994 305.152 117.717C305.204 117.441 305.319 117.181 305.489 116.957C306.21 116.222 307.72 116.515 308.715 116.028C309.81 115.493 309.893 114.265 309.849 113.236L309.514 105.304C309.364 101.737 309.322 101.264 311.949 98.3846C313.784 96.3732 316.671 95.1596 319.571 94.2671C326.197 92.2275 333.325 91.522 340.37 90.8326C348.551 90.032 357.763 86.0624 364.116 90.2771C369.317 93.7272 371.046 99.3982 373.552 104.428C375.805 108.948 381.586 122.259 386.398 115.054C389.421 110.529 394.043 97.7702 391.155 92.7321Z" fill="#121212"/>
<path d="M350.406 107.974C350.246 107.974 350.091 108.038 349.978 108.152C349.864 108.266 349.8 108.42 349.8 108.581V124.921C349.8 125.082 349.864 125.236 349.978 125.349C350.091 125.463 350.246 125.527 350.406 125.527H378.535C378.696 125.527 378.85 125.463 378.964 125.349C379.078 125.236 379.142 125.082 379.142 124.921V108.581C379.142 108.42 379.078 108.266 378.964 108.152C378.85 108.038 378.696 107.974 378.535 107.974L350.406 107.974Z" fill="#121212"/>
<path d="M353.55 109.415C353.25 109.416 352.963 109.535 352.751 109.747C352.539 109.959 352.42 110.246 352.42 110.545V122.956C352.42 123.256 352.539 123.543 352.751 123.755C352.963 123.967 353.25 124.086 353.55 124.086H375.392C375.692 124.086 375.979 123.967 376.191 123.755C376.402 123.543 376.522 123.256 376.522 122.956V110.545C376.522 110.246 376.402 109.959 376.191 109.747C375.979 109.535 375.692 109.416 375.392 109.415H353.55Z" fill="#E5E5E5"/>
<path d="M350.722 113.357H336.07V116.751H350.722V113.357Z" fill="#121212"/>
<path d="M310.574 107.974C310.413 107.975 310.259 108.039 310.145 108.152C310.032 108.266 309.968 108.42 309.967 108.581V124.921C309.968 125.082 310.032 125.236 310.145 125.349C310.259 125.463 310.413 125.527 310.574 125.527H338.703C338.864 125.527 339.018 125.463 339.131 125.349C339.245 125.236 339.309 125.082 339.309 124.921V108.581C339.309 108.42 339.245 108.266 339.131 108.152C339.018 108.039 338.864 107.975 338.703 107.974L310.574 107.974Z" fill="#121212"/>
<path d="M313.718 109.415C313.418 109.416 313.131 109.535 312.919 109.747C312.707 109.958 312.587 110.246 312.587 110.545V122.956C312.587 123.256 312.707 123.543 312.919 123.755C313.131 123.967 313.418 124.086 313.718 124.086H335.559C335.859 124.086 336.146 123.967 336.358 123.755C336.57 123.543 336.689 123.256 336.69 122.956V110.545C336.689 110.246 336.57 109.958 336.358 109.747C336.146 109.535 335.859 109.416 335.559 109.415H313.718Z" fill="#E5E5E5"/>
<path d="M295.197 311.939H392.629C396.519 311.939 400.249 313.484 403 316.235C405.75 318.985 407.296 322.716 407.296 326.606V326.606H280.53C280.53 322.716 282.075 318.985 284.826 316.235C287.576 313.484 291.307 311.939 295.197 311.939V311.939Z" fill="#3F3D56"/>
<path d="M290.663 317.439C289.177 317.439 287.706 317.742 286.341 318.329C284.976 318.916 283.745 319.775 282.723 320.853C281.7 321.932 280.909 323.207 280.396 324.602C279.883 325.997 279.659 327.481 279.739 328.965L286.833 426.518C286.983 429.314 288.199 431.946 290.231 433.872C292.264 435.798 294.957 436.872 297.757 436.872H389.228C392.028 436.872 394.722 435.798 396.754 433.872C398.786 431.946 400.002 429.314 400.152 426.518L407.246 328.965C407.326 327.481 407.103 325.997 406.59 324.602C406.077 323.207 405.285 321.932 404.263 320.853C403.241 319.775 402.009 318.916 400.644 318.329C399.279 317.742 397.808 317.439 396.322 317.439H290.663Z" fill="#333333"/>
<path d="M385.28 376.377L364.917 388.255C364.917 388.255 315.707 428.981 349.645 435.768C383.583 442.556 392.068 406.921 392.068 406.921L403.946 393.346L385.28 376.377Z" fill="#FFB8B8"/>
<path d="M288.557 367.892L308.92 379.771C308.92 379.771 358.13 420.496 324.192 427.284C290.254 434.072 281.769 398.437 281.769 398.437L269.891 384.861L288.557 367.892Z" fill="#FFB8B8"/>
<path d="M412.431 206.687L434.491 208.383C434.491 208.383 451.46 223.656 449.763 244.018C449.763 244.018 465.035 288.138 461.641 306.804C461.641 306.804 465.035 337.348 459.944 349.227C454.853 361.105 412.431 406.921 412.431 406.921C412.431 406.921 373.402 376.377 375.099 374.68L426.006 323.773L400.552 289.835L412.431 206.687Z" fill="#E5E5E5"/>
<path d="M268.194 194.808L267.345 195.657C267.345 195.657 229.165 211.777 230.862 232.14C230.862 232.14 215.59 276.26 218.984 294.926C218.984 294.926 215.59 325.47 220.681 337.348C225.771 349.227 268.194 395.043 268.194 395.043C268.194 395.043 307.223 364.499 305.526 362.802L254.619 311.895L280.072 277.957L268.194 194.808Z" fill="#E5E5E5"/>
</g>
<defs>
<clipPath id="clip0">
<rect width="754.069" height="720" fill="white"/>
</clipPath>
</defs>
</svg>
