<svg width="378" height="360" viewBox="0 0 378 360" fill="none" xmlns="http://www.w3.org/2000/svg">
<g clip-path="url(#clip0)">
<path d="M350.319 95.644V75.4311H347.176V95.644C346.275 96.0087 345.528 96.6756 345.064 97.5304C344.601 98.3852 344.449 99.3747 344.634 100.329C344.82 101.284 345.332 102.144 346.083 102.763C346.833 103.381 347.775 103.719 348.748 103.719C349.72 103.719 350.663 103.381 351.413 102.763C352.164 102.144 352.676 101.284 352.861 100.329C353.047 99.3747 352.895 98.3852 352.431 97.5304C351.968 96.6756 351.221 96.0087 350.319 95.644Z" fill="#FFC336"/>
<path d="M357.653 299.629H336.176V38.7632H327.795V299.629H306.318C303.773 299.629 301.252 300.13 298.901 301.104C296.549 302.078 294.413 303.506 292.613 305.306C290.813 307.105 289.386 309.242 288.412 311.594C287.438 313.945 286.936 316.465 286.936 319.011V319.011H377.035V319.011C377.035 316.465 376.533 313.945 375.559 311.594C374.585 309.242 373.158 307.105 371.358 305.306C369.558 303.506 367.421 302.078 365.07 301.104C362.718 300.13 360.198 299.629 357.653 299.629V299.629Z" fill="#E5E5E5"/>
<path d="M286.98 77.5264H376.991L371.487 8.72678C371.286 6.35443 370.204 4.14325 368.455 2.52825C366.705 0.913257 364.415 0.0113618 362.034 0H301.937C299.556 0.0113631 297.266 0.913257 295.516 2.52825C293.767 4.14325 292.685 6.35443 292.484 8.72678L286.98 77.5264Z" fill="#D34E24"/>
<path d="M32.0046 239.669H306.741V211.62C306.741 135.876 245.117 74.2525 169.373 74.2525C93.6279 74.2525 32.0046 135.876 32.0046 211.62V239.669Z" fill="#333333"/>
<path opacity="0.2" d="M30.9058 238.753H305.642V210.704C305.642 134.959 244.019 73.3358 168.274 73.3358C92.5291 73.3358 30.9058 134.959 30.9058 210.704V238.753Z" fill="#333333"/>
<path d="M67.6115 249.379H279.045C278.844 238.255 274.287 227.654 266.354 219.854C258.42 212.054 247.744 207.677 236.618 207.665H110.038C98.9126 207.677 88.2359 212.054 80.3026 219.854C72.3692 227.654 67.8124 238.255 67.6115 249.379V249.379Z" fill="#D34E24"/>
<path d="M42.433 245.063C65.8682 245.063 84.8661 226.066 84.8661 202.63C84.8661 179.195 65.8682 160.197 42.433 160.197C18.9979 160.197 0 179.195 0 202.63C0 226.066 18.9979 245.063 42.433 245.063Z" fill="#272727"/>
<path d="M299.908 245.063C323.343 245.063 342.341 226.066 342.341 202.63C342.341 179.195 323.343 160.197 299.908 160.197C276.473 160.197 257.475 179.195 257.475 202.63C257.475 226.066 276.473 245.063 299.908 245.063Z" fill="#272727"/>
<path d="M267.904 224.207V240.029H71.9204V224.207H28.049V301.326C28.049 306.051 29.926 310.582 33.2671 313.923C36.6082 317.264 41.1398 319.142 45.8648 319.142H293.959C296.299 319.142 298.615 318.681 300.777 317.785C302.939 316.89 304.902 315.578 306.557 313.923C308.211 312.269 309.524 310.305 310.419 308.143C311.314 305.982 311.775 303.665 311.775 301.326V224.207H267.904Z" fill="#272727"/>
<path opacity="0.2" d="M42.4331 211.261C47.1995 211.261 51.0635 207.397 51.0635 202.63C51.0635 197.864 47.1995 194 42.4331 194C37.6666 194 33.8026 197.864 33.8026 202.63C33.8026 207.397 37.6666 211.261 42.4331 211.261Z" fill="black"/>
<path opacity="0.2" d="M299.908 211.261C304.675 211.261 308.539 207.397 308.539 202.63C308.539 197.864 304.675 194 299.908 194C295.142 194 291.278 197.864 291.278 202.63C291.278 207.397 295.142 211.261 299.908 211.261Z" fill="black"/>
<path d="M185.004 69.4052C185.004 69.4052 185.852 85.5258 191.792 88.9196C197.731 92.3134 191.792 115.222 191.792 115.222L163.793 116.07L162.096 88.9196C162.096 88.9196 165.49 77.8897 163.793 72.799C162.096 67.7083 185.004 69.4052 185.004 69.4052Z" fill="#FFB8B8"/>
<path d="M216.397 293.396L206.215 305.275L222.336 320.547L230.821 303.578L216.397 293.396Z" fill="#FFB8B8"/>
<path d="M144.278 293.396L154.46 305.275L138.339 320.547L129.855 303.578L144.278 293.396Z" fill="#FFB8B8"/>
<path d="M210.882 180.977C210.882 180.977 271.97 201.339 268.577 220.854C265.183 240.368 238.881 309.093 238.881 309.093C238.881 309.093 224.457 309.093 213.427 293.821L221.063 276.852C221.063 276.852 217.669 267.519 223.609 265.822C229.548 264.125 232.942 234.429 232.942 234.429C232.942 234.429 189.671 231.035 180.338 214.915L163.369 174.189L210.882 180.977Z" fill="#121212"/>
<path d="M149.793 180.977C149.793 180.977 88.7048 201.339 92.0986 220.854C95.4924 240.368 121.794 309.093 121.794 309.093C121.794 309.093 136.218 309.093 147.248 293.821L139.612 276.852C139.612 276.852 143.006 267.519 137.067 265.822C131.127 264.125 127.734 234.429 127.734 234.429C127.734 234.429 171.005 231.035 180.338 214.915L197.307 174.189L149.793 180.977Z" fill="#121212"/>
<path d="M219.366 314.184C219.366 314.184 227.851 306.548 228.699 312.487C229.548 318.426 227.851 342.182 227.851 342.182C227.851 342.182 236.335 360 223.609 360C210.882 360 204.943 346.425 206.64 332.85C208.336 319.274 200.7 314.184 200.7 314.184C200.7 314.184 191.367 295.518 200.7 293.821C210.033 292.124 213.427 296.366 213.427 296.366C213.427 296.366 210.033 311.638 219.366 314.184Z" fill="#121212"/>
<path d="M141.309 314.184C141.309 314.184 132.824 306.548 131.976 312.487C131.127 318.426 132.824 342.182 132.824 342.182C132.824 342.182 124.34 360 137.067 360C149.793 360 155.732 346.425 154.036 332.85C152.339 319.274 159.975 314.184 159.975 314.184C159.975 314.184 169.308 295.518 159.975 293.821C150.642 292.124 147.248 296.366 147.248 296.366C147.248 296.366 150.642 311.638 141.309 314.184Z" fill="#121212"/>
<path d="M171.853 79.1624C182.631 79.1624 191.367 70.4255 191.367 59.648C191.367 48.8705 182.631 40.1336 171.853 40.1336C161.076 40.1336 152.339 48.8705 152.339 59.648C152.339 70.4255 161.076 79.1624 171.853 79.1624Z" fill="#FFB8B8"/>
<path d="M174.823 93.1619L162.944 83.8289L134.097 97.4041L133.249 174.613C133.249 174.613 115.431 183.098 120.522 194.128C120.522 194.128 135.794 197.521 142.581 204.309C149.369 211.097 187.549 201.764 203.67 196.673C219.791 191.582 224.033 185.643 224.033 185.643L207.912 162.735L217.245 104.192L188.401 84.7991L174.823 93.1619Z" fill="#E5E5E5"/>
<path d="M195.578 46.3661C195.152 45.7891 194.764 45.1861 194.414 44.5605C193.809 43.0868 194.765 41.3501 193.872 39.974C192.96 38.5692 190.646 38.273 189.071 37.3186C186.645 35.8485 186.204 32.9637 183.932 31.3436C182.294 30.1763 179.959 29.8616 177.771 29.9282C175.582 29.9948 173.423 30.3905 171.234 30.4339C168.279 30.4998 165.347 29.9002 162.655 28.6795L164.27 31.8386C162.476 31.4475 160.761 30.7525 159.201 29.7838C158.486 30.6698 159.793 32.0145 158.983 32.8455C158.651 33.1136 158.258 33.2958 157.839 33.3761C154.724 34.2612 151.791 35.6922 149.176 37.6024C148.57 37.9875 148.07 38.5161 147.718 39.1414C147.297 40.0743 147.67 41.1046 147.638 42.0965C147.58 43.8988 146.204 45.4705 145.228 47.0941C144.252 48.7177 143.725 50.8227 145.173 52.2007C145.525 52.4806 145.863 52.7784 146.185 53.093C147.635 54.8044 145.067 57.3108 146.305 59.127C146.842 59.9155 147.944 60.3146 148.902 60.7804C150.736 61.6379 152.279 63.0132 153.341 64.7368L152.596 59.2742C152.557 59.1392 152.55 58.9969 152.576 58.8587C152.602 58.7206 152.66 58.5903 152.745 58.4785C153.105 58.1111 153.86 58.2575 154.358 58.0142C154.905 57.7465 154.946 57.1324 154.925 56.6181L154.757 52.6521C154.682 50.8687 154.661 50.6318 155.974 49.1923C156.892 48.1866 158.335 47.5798 159.785 47.1335C163.099 46.1138 166.662 45.761 170.185 45.4163C174.275 45.016 178.881 43.0312 182.058 45.1385C184.659 46.8636 185.523 49.6991 186.776 52.2139C187.902 54.4742 190.793 61.1294 193.199 57.5269C194.71 55.2645 197.022 48.8851 195.578 46.3661Z" fill="#121212"/>
<path d="M175.203 53.9872C175.123 53.9872 175.046 54.0192 174.989 54.076C174.932 54.1328 174.9 54.2099 174.9 54.2903V62.4605C174.9 62.5409 174.932 62.6179 174.989 62.6747C175.046 62.7315 175.123 62.7635 175.203 62.7636H189.268C189.348 62.7635 189.425 62.7315 189.482 62.6747C189.539 62.6179 189.571 62.5409 189.571 62.4605V54.2903C189.571 54.2099 189.539 54.1328 189.482 54.076C189.425 54.0192 189.348 53.9872 189.268 53.9872L175.203 53.9872Z" fill="#121212"/>
<path d="M176.775 54.7077C176.625 54.7078 176.481 54.7674 176.376 54.8734C176.27 54.9793 176.21 55.1229 176.21 55.2727V61.478C176.21 61.6278 176.27 61.7714 176.376 61.8774C176.481 61.9833 176.625 62.0429 176.775 62.043H187.696C187.846 62.0429 187.989 61.9833 188.095 61.8774C188.201 61.7714 188.261 61.6278 188.261 61.478V55.2727C188.261 55.1229 188.201 54.9793 188.095 54.8734C187.989 54.7674 187.846 54.7078 187.696 54.7077H176.775Z" fill="#E5E5E5"/>
<path d="M175.361 56.6784H168.035V58.3753H175.361V56.6784Z" fill="#121212"/>
<path d="M155.287 53.9872C155.206 53.9873 155.129 54.0193 155.073 54.0761C155.016 54.1329 154.984 54.2099 154.984 54.2903V62.4605C154.984 62.5408 155.016 62.6178 155.073 62.6747C155.129 62.7315 155.206 62.7634 155.287 62.7636H169.352C169.432 62.7634 169.509 62.7315 169.566 62.6747C169.623 62.6178 169.655 62.5408 169.655 62.4605V54.2903C169.655 54.2099 169.623 54.1329 169.566 54.0761C169.509 54.0193 169.432 53.9873 169.352 53.9872L155.287 53.9872Z" fill="#121212"/>
<path d="M156.859 54.7077C156.709 54.7078 156.565 54.7674 156.459 54.8733C156.353 54.9792 156.294 55.1228 156.293 55.2727V61.478C156.294 61.6279 156.353 61.7715 156.459 61.8774C156.565 61.9834 156.709 62.0429 156.859 62.043H167.78C167.929 62.0429 168.073 61.9834 168.179 61.8774C168.285 61.7715 168.345 61.6279 168.345 61.478V55.2727C168.345 55.1228 168.285 54.9792 168.179 54.8733C168.073 54.7674 167.929 54.7078 167.78 54.7077H156.859Z" fill="#E5E5E5"/>
<path d="M147.598 155.969H196.314C198.259 155.969 200.125 156.742 201.5 158.117C202.875 159.493 203.648 161.358 203.648 163.303V163.303H140.265C140.265 161.358 141.037 159.493 142.413 158.117C143.788 156.742 145.653 155.969 147.598 155.969V155.969Z" fill="#3F3D56"/>
<path d="M145.332 158.72C144.589 158.719 143.853 158.871 143.171 159.164C142.488 159.458 141.872 159.887 141.361 160.427C140.85 160.966 140.454 161.604 140.198 162.301C139.941 162.998 139.83 163.741 139.87 164.483L143.417 213.259C143.492 214.657 144.1 215.973 145.116 216.936C146.132 217.899 147.479 218.436 148.879 218.436H194.614C196.014 218.436 197.361 217.899 198.377 216.936C199.393 215.973 200.001 214.657 200.076 213.259L203.623 164.483C203.663 163.741 203.551 162.998 203.295 162.301C203.038 161.604 202.643 160.966 202.131 160.427C201.62 159.887 201.005 159.458 200.322 159.164C199.64 158.871 198.904 158.719 198.161 158.72H145.332Z" fill="#333333"/>
<path d="M192.64 188.188L182.459 194.128C182.459 194.128 157.854 214.49 174.823 217.884C191.792 221.278 196.034 203.461 196.034 203.461L201.973 196.673L192.64 188.188Z" fill="#FFB8B8"/>
<path d="M144.278 183.946L154.46 189.885C154.46 189.885 179.065 210.248 162.096 213.642C145.127 217.036 140.885 199.218 140.885 199.218L134.945 192.431L144.278 183.946Z" fill="#FFB8B8"/>
<path d="M206.215 103.343L217.245 104.192C217.245 104.192 225.73 111.828 224.881 122.009C224.881 122.009 232.517 144.069 230.82 153.402C230.82 153.402 232.517 168.674 229.972 174.613C227.427 180.552 206.215 203.461 206.215 203.461C206.215 203.461 186.701 188.189 187.549 187.34L213.003 161.886L200.276 144.917L206.215 103.343Z" fill="#E5E5E5"/>
<path d="M134.097 97.4041L133.673 97.8284C133.673 97.8284 114.583 105.889 115.431 116.07C115.431 116.07 107.795 138.13 109.492 147.463C109.492 147.463 107.795 162.735 110.34 168.674C112.886 174.613 134.097 197.521 134.097 197.521C134.097 197.521 153.611 182.249 152.763 181.401L127.309 155.947L140.036 138.978L134.097 97.4041Z" fill="#E5E5E5"/>
</g>
<defs>
<clipPath id="clip0">
<rect width="377.035" height="360" fill="white"/>
</clipPath>
</defs>
</svg>
